<?xml version="1.0" encoding="utf-8" standalone="no"?>
<!DOCTYPE svg PUBLIC "-//W3C//DTD SVG 1.1//EN"
  "http://www.w3.org/Graphics/SVG/1.1/DTD/svg11.dtd">
<svg xmlns:xlink="http://www.w3.org/1999/xlink" width="404.923125pt" height="330.230025pt" viewBox="0 0 404.923125 330.230025" xmlns="http://www.w3.org/2000/svg" version="1.1">
 <metadata>
  <rdf:RDF xmlns:dc="http://purl.org/dc/elements/1.1/" xmlns:cc="http://creativecommons.org/ns#" xmlns:rdf="http://www.w3.org/1999/02/22-rdf-syntax-ns#">
   <cc:Work>
    <dc:type rdf:resource="http://purl.org/dc/dcmitype/StillImage"/>
    <dc:date>2023-06-13T17:48:57.315236</dc:date>
    <dc:format>image/svg+xml</dc:format>
    <dc:creator>
     <cc:Agent>
      <dc:title>Matplotlib v3.7.0, https://matplotlib.org/</dc:title>
     </cc:Agent>
    </dc:creator>
   </cc:Work>
  </rdf:RDF>
 </metadata>
 <defs>
  <style type="text/css">*{stroke-linejoin: round; stroke-linecap: butt}</style>
 </defs>
 <g id="figure_1">
  <g id="patch_1">
   <path d="M 0 330.230025 
L 404.923125 330.230025 
L 404.923125 0 
L 0 0 
z
" style="fill: #ffffff"/>
  </g>
  <g id="axes_1">
   <g id="patch_2">
    <path d="M 40.603125 273.312 
L 397.723125 273.312 
L 397.723125 7.2 
L 40.603125 7.2 
z
" style="fill: #ffffff"/>
   </g>
   <g id="matplotlib.axis_1">
    <g id="xtick_1">
     <g id="line2d_1">
      <path d="M 87.755333 273.312 
L 87.755333 7.2 
" clip-path="url(#pd7a0b57143)" style="fill: none; stroke: #cccccc; stroke-width: 0.8; stroke-linecap: round"/>
     </g>
     <g id="text_1">
      <!-- cube_20 -->
      <g style="fill: #262626" transform="translate(66.724083 287.910437) scale(0.1 -0.1)">
       <defs>
        <path id="DejaVuSans-63" d="M 3122 3366 
L 3122 2828 
Q 2878 2963 2633 3030 
Q 2388 3097 2138 3097 
Q 1578 3097 1268 2742 
Q 959 2388 959 1747 
Q 959 1106 1268 751 
Q 1578 397 2138 397 
Q 2388 397 2633 464 
Q 2878 531 3122 666 
L 3122 134 
Q 2881 22 2623 -34 
Q 2366 -91 2075 -91 
Q 1284 -91 818 406 
Q 353 903 353 1747 
Q 353 2603 823 3093 
Q 1294 3584 2113 3584 
Q 2378 3584 2631 3529 
Q 2884 3475 3122 3366 
z
" transform="scale(0.015625)"/>
        <path id="DejaVuSans-75" d="M 544 1381 
L 544 3500 
L 1119 3500 
L 1119 1403 
Q 1119 906 1312 657 
Q 1506 409 1894 409 
Q 2359 409 2629 706 
Q 2900 1003 2900 1516 
L 2900 3500 
L 3475 3500 
L 3475 0 
L 2900 0 
L 2900 538 
Q 2691 219 2414 64 
Q 2138 -91 1772 -91 
Q 1169 -91 856 284 
Q 544 659 544 1381 
z
M 1991 3584 
L 1991 3584 
z
" transform="scale(0.015625)"/>
        <path id="DejaVuSans-62" d="M 3116 1747 
Q 3116 2381 2855 2742 
Q 2594 3103 2138 3103 
Q 1681 3103 1420 2742 
Q 1159 2381 1159 1747 
Q 1159 1113 1420 752 
Q 1681 391 2138 391 
Q 2594 391 2855 752 
Q 3116 1113 3116 1747 
z
M 1159 2969 
Q 1341 3281 1617 3432 
Q 1894 3584 2278 3584 
Q 2916 3584 3314 3078 
Q 3713 2572 3713 1747 
Q 3713 922 3314 415 
Q 2916 -91 2278 -91 
Q 1894 -91 1617 61 
Q 1341 213 1159 525 
L 1159 0 
L 581 0 
L 581 4863 
L 1159 4863 
L 1159 2969 
z
" transform="scale(0.015625)"/>
        <path id="DejaVuSans-65" d="M 3597 1894 
L 3597 1613 
L 953 1613 
Q 991 1019 1311 708 
Q 1631 397 2203 397 
Q 2534 397 2845 478 
Q 3156 559 3463 722 
L 3463 178 
Q 3153 47 2828 -22 
Q 2503 -91 2169 -91 
Q 1331 -91 842 396 
Q 353 884 353 1716 
Q 353 2575 817 3079 
Q 1281 3584 2069 3584 
Q 2775 3584 3186 3129 
Q 3597 2675 3597 1894 
z
M 3022 2063 
Q 3016 2534 2758 2815 
Q 2500 3097 2075 3097 
Q 1594 3097 1305 2825 
Q 1016 2553 972 2059 
L 3022 2063 
z
" transform="scale(0.015625)"/>
        <path id="DejaVuSans-5f" d="M 3263 -1063 
L 3263 -1509 
L -63 -1509 
L -63 -1063 
L 3263 -1063 
z
" transform="scale(0.015625)"/>
        <path id="DejaVuSans-32" d="M 1228 531 
L 3431 531 
L 3431 0 
L 469 0 
L 469 531 
Q 828 903 1448 1529 
Q 2069 2156 2228 2338 
Q 2531 2678 2651 2914 
Q 2772 3150 2772 3378 
Q 2772 3750 2511 3984 
Q 2250 4219 1831 4219 
Q 1534 4219 1204 4116 
Q 875 4013 500 3803 
L 500 4441 
Q 881 4594 1212 4672 
Q 1544 4750 1819 4750 
Q 2544 4750 2975 4387 
Q 3406 4025 3406 3419 
Q 3406 3131 3298 2873 
Q 3191 2616 2906 2266 
Q 2828 2175 2409 1742 
Q 1991 1309 1228 531 
z
" transform="scale(0.015625)"/>
        <path id="DejaVuSans-30" d="M 2034 4250 
Q 1547 4250 1301 3770 
Q 1056 3291 1056 2328 
Q 1056 1369 1301 889 
Q 1547 409 2034 409 
Q 2525 409 2770 889 
Q 3016 1369 3016 2328 
Q 3016 3291 2770 3770 
Q 2525 4250 2034 4250 
z
M 2034 4750 
Q 2819 4750 3233 4129 
Q 3647 3509 3647 2328 
Q 3647 1150 3233 529 
Q 2819 -91 2034 -91 
Q 1250 -91 836 529 
Q 422 1150 422 2328 
Q 422 3509 836 4129 
Q 1250 4750 2034 4750 
z
" transform="scale(0.015625)"/>
       </defs>
       <use xlink:href="#DejaVuSans-63"/>
       <use xlink:href="#DejaVuSans-75" x="54.980469"/>
       <use xlink:href="#DejaVuSans-62" x="118.359375"/>
       <use xlink:href="#DejaVuSans-65" x="181.835938"/>
       <use xlink:href="#DejaVuSans-5f" x="243.359375"/>
       <use xlink:href="#DejaVuSans-32" x="293.359375"/>
       <use xlink:href="#DejaVuSans-30" x="356.982422"/>
      </g>
     </g>
    </g>
    <g id="xtick_2">
     <g id="line2d_2">
      <path d="M 175.360528 273.312 
L 175.360528 7.2 
" clip-path="url(#pd7a0b57143)" style="fill: none; stroke: #cccccc; stroke-width: 0.8; stroke-linecap: round"/>
     </g>
     <g id="text_2">
      <!-- cube_40 -->
      <g style="fill: #262626" transform="translate(154.329278 287.910437) scale(0.1 -0.1)">
       <defs>
        <path id="DejaVuSans-34" d="M 2419 4116 
L 825 1625 
L 2419 1625 
L 2419 4116 
z
M 2253 4666 
L 3047 4666 
L 3047 1625 
L 3713 1625 
L 3713 1100 
L 3047 1100 
L 3047 0 
L 2419 0 
L 2419 1100 
L 313 1100 
L 313 1709 
L 2253 4666 
z
" transform="scale(0.015625)"/>
       </defs>
       <use xlink:href="#DejaVuSans-63"/>
       <use xlink:href="#DejaVuSans-75" x="54.980469"/>
       <use xlink:href="#DejaVuSans-62" x="118.359375"/>
       <use xlink:href="#DejaVuSans-65" x="181.835938"/>
       <use xlink:href="#DejaVuSans-5f" x="243.359375"/>
       <use xlink:href="#DejaVuSans-34" x="293.359375"/>
       <use xlink:href="#DejaVuSans-30" x="356.982422"/>
      </g>
     </g>
    </g>
    <g id="xtick_3">
     <g id="line2d_3">
      <path d="M 262.965722 273.312 
L 262.965722 7.2 
" clip-path="url(#pd7a0b57143)" style="fill: none; stroke: #cccccc; stroke-width: 0.8; stroke-linecap: round"/>
     </g>
     <g id="text_3">
      <!-- cube_60 -->
      <g style="fill: #262626" transform="translate(241.934472 287.910437) scale(0.1 -0.1)">
       <defs>
        <path id="DejaVuSans-36" d="M 2113 2584 
Q 1688 2584 1439 2293 
Q 1191 2003 1191 1497 
Q 1191 994 1439 701 
Q 1688 409 2113 409 
Q 2538 409 2786 701 
Q 3034 994 3034 1497 
Q 3034 2003 2786 2293 
Q 2538 2584 2113 2584 
z
M 3366 4563 
L 3366 3988 
Q 3128 4100 2886 4159 
Q 2644 4219 2406 4219 
Q 1781 4219 1451 3797 
Q 1122 3375 1075 2522 
Q 1259 2794 1537 2939 
Q 1816 3084 2150 3084 
Q 2853 3084 3261 2657 
Q 3669 2231 3669 1497 
Q 3669 778 3244 343 
Q 2819 -91 2113 -91 
Q 1303 -91 875 529 
Q 447 1150 447 2328 
Q 447 3434 972 4092 
Q 1497 4750 2381 4750 
Q 2619 4750 2861 4703 
Q 3103 4656 3366 4563 
z
" transform="scale(0.015625)"/>
       </defs>
       <use xlink:href="#DejaVuSans-63"/>
       <use xlink:href="#DejaVuSans-75" x="54.980469"/>
       <use xlink:href="#DejaVuSans-62" x="118.359375"/>
       <use xlink:href="#DejaVuSans-65" x="181.835938"/>
       <use xlink:href="#DejaVuSans-5f" x="243.359375"/>
       <use xlink:href="#DejaVuSans-36" x="293.359375"/>
       <use xlink:href="#DejaVuSans-30" x="356.982422"/>
      </g>
     </g>
    </g>
    <g id="xtick_4">
     <g id="line2d_4">
      <path d="M 350.570917 273.312 
L 350.570917 7.2 
" clip-path="url(#pd7a0b57143)" style="fill: none; stroke: #cccccc; stroke-width: 0.8; stroke-linecap: round"/>
     </g>
     <g id="text_4">
      <!-- cube_80 -->
      <g style="fill: #262626" transform="translate(329.539667 287.910437) scale(0.1 -0.1)">
       <defs>
        <path id="DejaVuSans-38" d="M 2034 2216 
Q 1584 2216 1326 1975 
Q 1069 1734 1069 1313 
Q 1069 891 1326 650 
Q 1584 409 2034 409 
Q 2484 409 2743 651 
Q 3003 894 3003 1313 
Q 3003 1734 2745 1975 
Q 2488 2216 2034 2216 
z
M 1403 2484 
Q 997 2584 770 2862 
Q 544 3141 544 3541 
Q 544 4100 942 4425 
Q 1341 4750 2034 4750 
Q 2731 4750 3128 4425 
Q 3525 4100 3525 3541 
Q 3525 3141 3298 2862 
Q 3072 2584 2669 2484 
Q 3125 2378 3379 2068 
Q 3634 1759 3634 1313 
Q 3634 634 3220 271 
Q 2806 -91 2034 -91 
Q 1263 -91 848 271 
Q 434 634 434 1313 
Q 434 1759 690 2068 
Q 947 2378 1403 2484 
z
M 1172 3481 
Q 1172 3119 1398 2916 
Q 1625 2713 2034 2713 
Q 2441 2713 2670 2916 
Q 2900 3119 2900 3481 
Q 2900 3844 2670 4047 
Q 2441 4250 2034 4250 
Q 1625 4250 1398 4047 
Q 1172 3844 1172 3481 
z
" transform="scale(0.015625)"/>
       </defs>
       <use xlink:href="#DejaVuSans-63"/>
       <use xlink:href="#DejaVuSans-75" x="54.980469"/>
       <use xlink:href="#DejaVuSans-62" x="118.359375"/>
       <use xlink:href="#DejaVuSans-65" x="181.835938"/>
       <use xlink:href="#DejaVuSans-5f" x="243.359375"/>
       <use xlink:href="#DejaVuSans-38" x="293.359375"/>
       <use xlink:href="#DejaVuSans-30" x="356.982422"/>
      </g>
     </g>
    </g>
    <g id="text_5">
     <!-- Test Cases -->
     <g style="fill: #262626" transform="translate(192.887344 301.866687) scale(0.1 -0.1)">
      <defs>
       <path id="DejaVuSans-54" d="M -19 4666 
L 3928 4666 
L 3928 4134 
L 2272 4134 
L 2272 0 
L 1638 0 
L 1638 4134 
L -19 4134 
L -19 4666 
z
" transform="scale(0.015625)"/>
       <path id="DejaVuSans-73" d="M 2834 3397 
L 2834 2853 
Q 2591 2978 2328 3040 
Q 2066 3103 1784 3103 
Q 1356 3103 1142 2972 
Q 928 2841 928 2578 
Q 928 2378 1081 2264 
Q 1234 2150 1697 2047 
L 1894 2003 
Q 2506 1872 2764 1633 
Q 3022 1394 3022 966 
Q 3022 478 2636 193 
Q 2250 -91 1575 -91 
Q 1294 -91 989 -36 
Q 684 19 347 128 
L 347 722 
Q 666 556 975 473 
Q 1284 391 1588 391 
Q 1994 391 2212 530 
Q 2431 669 2431 922 
Q 2431 1156 2273 1281 
Q 2116 1406 1581 1522 
L 1381 1569 
Q 847 1681 609 1914 
Q 372 2147 372 2553 
Q 372 3047 722 3315 
Q 1072 3584 1716 3584 
Q 2034 3584 2315 3537 
Q 2597 3491 2834 3397 
z
" transform="scale(0.015625)"/>
       <path id="DejaVuSans-74" d="M 1172 4494 
L 1172 3500 
L 2356 3500 
L 2356 3053 
L 1172 3053 
L 1172 1153 
Q 1172 725 1289 603 
Q 1406 481 1766 481 
L 2356 481 
L 2356 0 
L 1766 0 
Q 1100 0 847 248 
Q 594 497 594 1153 
L 594 3053 
L 172 3053 
L 172 3500 
L 594 3500 
L 594 4494 
L 1172 4494 
z
" transform="scale(0.015625)"/>
       <path id="DejaVuSans-20" transform="scale(0.015625)"/>
       <path id="DejaVuSans-43" d="M 4122 4306 
L 4122 3641 
Q 3803 3938 3442 4084 
Q 3081 4231 2675 4231 
Q 1875 4231 1450 3742 
Q 1025 3253 1025 2328 
Q 1025 1406 1450 917 
Q 1875 428 2675 428 
Q 3081 428 3442 575 
Q 3803 722 4122 1019 
L 4122 359 
Q 3791 134 3420 21 
Q 3050 -91 2638 -91 
Q 1578 -91 968 557 
Q 359 1206 359 2328 
Q 359 3453 968 4101 
Q 1578 4750 2638 4750 
Q 3056 4750 3426 4639 
Q 3797 4528 4122 4306 
z
" transform="scale(0.015625)"/>
       <path id="DejaVuSans-61" d="M 2194 1759 
Q 1497 1759 1228 1600 
Q 959 1441 959 1056 
Q 959 750 1161 570 
Q 1363 391 1709 391 
Q 2188 391 2477 730 
Q 2766 1069 2766 1631 
L 2766 1759 
L 2194 1759 
z
M 3341 1997 
L 3341 0 
L 2766 0 
L 2766 531 
Q 2569 213 2275 61 
Q 1981 -91 1556 -91 
Q 1019 -91 701 211 
Q 384 513 384 1019 
Q 384 1609 779 1909 
Q 1175 2209 1959 2209 
L 2766 2209 
L 2766 2266 
Q 2766 2663 2505 2880 
Q 2244 3097 1772 3097 
Q 1472 3097 1187 3025 
Q 903 2953 641 2809 
L 641 3341 
Q 956 3463 1253 3523 
Q 1550 3584 1831 3584 
Q 2591 3584 2966 3190 
Q 3341 2797 3341 1997 
z
" transform="scale(0.015625)"/>
      </defs>
      <use xlink:href="#DejaVuSans-54"/>
      <use xlink:href="#DejaVuSans-65" x="44.083984"/>
      <use xlink:href="#DejaVuSans-73" x="105.607422"/>
      <use xlink:href="#DejaVuSans-74" x="157.707031"/>
      <use xlink:href="#DejaVuSans-20" x="196.916016"/>
      <use xlink:href="#DejaVuSans-43" x="228.703125"/>
      <use xlink:href="#DejaVuSans-61" x="298.527344"/>
      <use xlink:href="#DejaVuSans-73" x="359.806641"/>
      <use xlink:href="#DejaVuSans-65" x="411.90625"/>
      <use xlink:href="#DejaVuSans-73" x="473.429688"/>
     </g>
    </g>
   </g>
   <g id="matplotlib.axis_2">
    <g id="ytick_1">
     <g id="line2d_5">
      <path d="M 40.603125 273.312 
L 397.723125 273.312 
" clip-path="url(#pd7a0b57143)" style="fill: none; stroke: #cccccc; stroke-width: 0.8; stroke-linecap: round"/>
     </g>
     <g id="text_6">
      <!-- 0 -->
      <g style="fill: #262626" transform="translate(27.240625 277.111219) scale(0.1 -0.1)">
       <use xlink:href="#DejaVuSans-30"/>
      </g>
     </g>
    </g>
    <g id="ytick_2">
     <g id="line2d_6">
      <path d="M 40.603125 242.88842 
L 397.723125 242.88842 
" clip-path="url(#pd7a0b57143)" style="fill: none; stroke: #cccccc; stroke-width: 0.8; stroke-linecap: round"/>
     </g>
     <g id="text_7">
      <!-- 10 -->
      <g style="fill: #262626" transform="translate(20.878125 246.687639) scale(0.1 -0.1)">
       <defs>
        <path id="DejaVuSans-31" d="M 794 531 
L 1825 531 
L 1825 4091 
L 703 3866 
L 703 4441 
L 1819 4666 
L 2450 4666 
L 2450 531 
L 3481 531 
L 3481 0 
L 794 0 
L 794 531 
z
" transform="scale(0.015625)"/>
       </defs>
       <use xlink:href="#DejaVuSans-31"/>
       <use xlink:href="#DejaVuSans-30" x="63.623047"/>
      </g>
     </g>
    </g>
    <g id="ytick_3">
     <g id="line2d_7">
      <path d="M 40.603125 212.46484 
L 397.723125 212.46484 
" clip-path="url(#pd7a0b57143)" style="fill: none; stroke: #cccccc; stroke-width: 0.8; stroke-linecap: round"/>
     </g>
     <g id="text_8">
      <!-- 20 -->
      <g style="fill: #262626" transform="translate(20.878125 216.264058) scale(0.1 -0.1)">
       <use xlink:href="#DejaVuSans-32"/>
       <use xlink:href="#DejaVuSans-30" x="63.623047"/>
      </g>
     </g>
    </g>
    <g id="ytick_4">
     <g id="line2d_8">
      <path d="M 40.603125 182.04126 
L 397.723125 182.04126 
" clip-path="url(#pd7a0b57143)" style="fill: none; stroke: #cccccc; stroke-width: 0.8; stroke-linecap: round"/>
     </g>
     <g id="text_9">
      <!-- 30 -->
      <g style="fill: #262626" transform="translate(20.878125 185.840478) scale(0.1 -0.1)">
       <defs>
        <path id="DejaVuSans-33" d="M 2597 2516 
Q 3050 2419 3304 2112 
Q 3559 1806 3559 1356 
Q 3559 666 3084 287 
Q 2609 -91 1734 -91 
Q 1441 -91 1130 -33 
Q 819 25 488 141 
L 488 750 
Q 750 597 1062 519 
Q 1375 441 1716 441 
Q 2309 441 2620 675 
Q 2931 909 2931 1356 
Q 2931 1769 2642 2001 
Q 2353 2234 1838 2234 
L 1294 2234 
L 1294 2753 
L 1863 2753 
Q 2328 2753 2575 2939 
Q 2822 3125 2822 3475 
Q 2822 3834 2567 4026 
Q 2313 4219 1838 4219 
Q 1578 4219 1281 4162 
Q 984 4106 628 3988 
L 628 4550 
Q 988 4650 1302 4700 
Q 1616 4750 1894 4750 
Q 2613 4750 3031 4423 
Q 3450 4097 3450 3541 
Q 3450 3153 3228 2886 
Q 3006 2619 2597 2516 
z
" transform="scale(0.015625)"/>
       </defs>
       <use xlink:href="#DejaVuSans-33"/>
       <use xlink:href="#DejaVuSans-30" x="63.623047"/>
      </g>
     </g>
    </g>
    <g id="ytick_5">
     <g id="line2d_9">
      <path d="M 40.603125 151.617679 
L 397.723125 151.617679 
" clip-path="url(#pd7a0b57143)" style="fill: none; stroke: #cccccc; stroke-width: 0.8; stroke-linecap: round"/>
     </g>
     <g id="text_10">
      <!-- 40 -->
      <g style="fill: #262626" transform="translate(20.878125 155.416898) scale(0.1 -0.1)">
       <use xlink:href="#DejaVuSans-34"/>
       <use xlink:href="#DejaVuSans-30" x="63.623047"/>
      </g>
     </g>
    </g>
    <g id="ytick_6">
     <g id="line2d_10">
      <path d="M 40.603125 121.194099 
L 397.723125 121.194099 
" clip-path="url(#pd7a0b57143)" style="fill: none; stroke: #cccccc; stroke-width: 0.8; stroke-linecap: round"/>
     </g>
     <g id="text_11">
      <!-- 50 -->
      <g style="fill: #262626" transform="translate(20.878125 124.993318) scale(0.1 -0.1)">
       <defs>
        <path id="DejaVuSans-35" d="M 691 4666 
L 3169 4666 
L 3169 4134 
L 1269 4134 
L 1269 2991 
Q 1406 3038 1543 3061 
Q 1681 3084 1819 3084 
Q 2600 3084 3056 2656 
Q 3513 2228 3513 1497 
Q 3513 744 3044 326 
Q 2575 -91 1722 -91 
Q 1428 -91 1123 -41 
Q 819 9 494 109 
L 494 744 
Q 775 591 1075 516 
Q 1375 441 1709 441 
Q 2250 441 2565 725 
Q 2881 1009 2881 1497 
Q 2881 1984 2565 2268 
Q 2250 2553 1709 2553 
Q 1456 2553 1204 2497 
Q 953 2441 691 2322 
L 691 4666 
z
" transform="scale(0.015625)"/>
       </defs>
       <use xlink:href="#DejaVuSans-35"/>
       <use xlink:href="#DejaVuSans-30" x="63.623047"/>
      </g>
     </g>
    </g>
    <g id="ytick_7">
     <g id="line2d_11">
      <path d="M 40.603125 90.770519 
L 397.723125 90.770519 
" clip-path="url(#pd7a0b57143)" style="fill: none; stroke: #cccccc; stroke-width: 0.8; stroke-linecap: round"/>
     </g>
     <g id="text_12">
      <!-- 60 -->
      <g style="fill: #262626" transform="translate(20.878125 94.569738) scale(0.1 -0.1)">
       <use xlink:href="#DejaVuSans-36"/>
       <use xlink:href="#DejaVuSans-30" x="63.623047"/>
      </g>
     </g>
    </g>
    <g id="ytick_8">
     <g id="line2d_12">
      <path d="M 40.603125 60.346939 
L 397.723125 60.346939 
" clip-path="url(#pd7a0b57143)" style="fill: none; stroke: #cccccc; stroke-width: 0.8; stroke-linecap: round"/>
     </g>
     <g id="text_13">
      <!-- 70 -->
      <g style="fill: #262626" transform="translate(20.878125 64.146158) scale(0.1 -0.1)">
       <defs>
        <path id="DejaVuSans-37" d="M 525 4666 
L 3525 4666 
L 3525 4397 
L 1831 0 
L 1172 0 
L 2766 4134 
L 525 4134 
L 525 4666 
z
" transform="scale(0.015625)"/>
       </defs>
       <use xlink:href="#DejaVuSans-37"/>
       <use xlink:href="#DejaVuSans-30" x="63.623047"/>
      </g>
     </g>
    </g>
    <g id="ytick_9">
     <g id="line2d_13">
      <path d="M 40.603125 29.923359 
L 397.723125 29.923359 
" clip-path="url(#pd7a0b57143)" style="fill: none; stroke: #cccccc; stroke-width: 0.8; stroke-linecap: round"/>
     </g>
     <g id="text_14">
      <!-- 80 -->
      <g style="fill: #262626" transform="translate(20.878125 33.722577) scale(0.1 -0.1)">
       <use xlink:href="#DejaVuSans-38"/>
       <use xlink:href="#DejaVuSans-30" x="63.623047"/>
      </g>
     </g>
    </g>
    <g id="text_15">
     <!-- Speedup Ratio -->
     <g style="fill: #262626" transform="translate(14.798438 176.698187) rotate(-90) scale(0.1 -0.1)">
      <defs>
       <path id="DejaVuSans-53" d="M 3425 4513 
L 3425 3897 
Q 3066 4069 2747 4153 
Q 2428 4238 2131 4238 
Q 1616 4238 1336 4038 
Q 1056 3838 1056 3469 
Q 1056 3159 1242 3001 
Q 1428 2844 1947 2747 
L 2328 2669 
Q 3034 2534 3370 2195 
Q 3706 1856 3706 1288 
Q 3706 609 3251 259 
Q 2797 -91 1919 -91 
Q 1588 -91 1214 -16 
Q 841 59 441 206 
L 441 856 
Q 825 641 1194 531 
Q 1563 422 1919 422 
Q 2459 422 2753 634 
Q 3047 847 3047 1241 
Q 3047 1584 2836 1778 
Q 2625 1972 2144 2069 
L 1759 2144 
Q 1053 2284 737 2584 
Q 422 2884 422 3419 
Q 422 4038 858 4394 
Q 1294 4750 2059 4750 
Q 2388 4750 2728 4690 
Q 3069 4631 3425 4513 
z
" transform="scale(0.015625)"/>
       <path id="DejaVuSans-70" d="M 1159 525 
L 1159 -1331 
L 581 -1331 
L 581 3500 
L 1159 3500 
L 1159 2969 
Q 1341 3281 1617 3432 
Q 1894 3584 2278 3584 
Q 2916 3584 3314 3078 
Q 3713 2572 3713 1747 
Q 3713 922 3314 415 
Q 2916 -91 2278 -91 
Q 1894 -91 1617 61 
Q 1341 213 1159 525 
z
M 3116 1747 
Q 3116 2381 2855 2742 
Q 2594 3103 2138 3103 
Q 1681 3103 1420 2742 
Q 1159 2381 1159 1747 
Q 1159 1113 1420 752 
Q 1681 391 2138 391 
Q 2594 391 2855 752 
Q 3116 1113 3116 1747 
z
" transform="scale(0.015625)"/>
       <path id="DejaVuSans-64" d="M 2906 2969 
L 2906 4863 
L 3481 4863 
L 3481 0 
L 2906 0 
L 2906 525 
Q 2725 213 2448 61 
Q 2172 -91 1784 -91 
Q 1150 -91 751 415 
Q 353 922 353 1747 
Q 353 2572 751 3078 
Q 1150 3584 1784 3584 
Q 2172 3584 2448 3432 
Q 2725 3281 2906 2969 
z
M 947 1747 
Q 947 1113 1208 752 
Q 1469 391 1925 391 
Q 2381 391 2643 752 
Q 2906 1113 2906 1747 
Q 2906 2381 2643 2742 
Q 2381 3103 1925 3103 
Q 1469 3103 1208 2742 
Q 947 2381 947 1747 
z
" transform="scale(0.015625)"/>
       <path id="DejaVuSans-52" d="M 2841 2188 
Q 3044 2119 3236 1894 
Q 3428 1669 3622 1275 
L 4263 0 
L 3584 0 
L 2988 1197 
Q 2756 1666 2539 1819 
Q 2322 1972 1947 1972 
L 1259 1972 
L 1259 0 
L 628 0 
L 628 4666 
L 2053 4666 
Q 2853 4666 3247 4331 
Q 3641 3997 3641 3322 
Q 3641 2881 3436 2590 
Q 3231 2300 2841 2188 
z
M 1259 4147 
L 1259 2491 
L 2053 2491 
Q 2509 2491 2742 2702 
Q 2975 2913 2975 3322 
Q 2975 3731 2742 3939 
Q 2509 4147 2053 4147 
L 1259 4147 
z
" transform="scale(0.015625)"/>
       <path id="DejaVuSans-69" d="M 603 3500 
L 1178 3500 
L 1178 0 
L 603 0 
L 603 3500 
z
M 603 4863 
L 1178 4863 
L 1178 4134 
L 603 4134 
L 603 4863 
z
" transform="scale(0.015625)"/>
       <path id="DejaVuSans-6f" d="M 1959 3097 
Q 1497 3097 1228 2736 
Q 959 2375 959 1747 
Q 959 1119 1226 758 
Q 1494 397 1959 397 
Q 2419 397 2687 759 
Q 2956 1122 2956 1747 
Q 2956 2369 2687 2733 
Q 2419 3097 1959 3097 
z
M 1959 3584 
Q 2709 3584 3137 3096 
Q 3566 2609 3566 1747 
Q 3566 888 3137 398 
Q 2709 -91 1959 -91 
Q 1206 -91 779 398 
Q 353 888 353 1747 
Q 353 2609 779 3096 
Q 1206 3584 1959 3584 
z
" transform="scale(0.015625)"/>
      </defs>
      <use xlink:href="#DejaVuSans-53"/>
      <use xlink:href="#DejaVuSans-70" x="63.476562"/>
      <use xlink:href="#DejaVuSans-65" x="126.953125"/>
      <use xlink:href="#DejaVuSans-65" x="188.476562"/>
      <use xlink:href="#DejaVuSans-64" x="250"/>
      <use xlink:href="#DejaVuSans-75" x="313.476562"/>
      <use xlink:href="#DejaVuSans-70" x="376.855469"/>
      <use xlink:href="#DejaVuSans-20" x="440.332031"/>
      <use xlink:href="#DejaVuSans-52" x="472.119141"/>
      <use xlink:href="#DejaVuSans-61" x="539.351562"/>
      <use xlink:href="#DejaVuSans-74" x="600.630859"/>
      <use xlink:href="#DejaVuSans-69" x="639.839844"/>
      <use xlink:href="#DejaVuSans-6f" x="667.623047"/>
     </g>
    </g>
   </g>
   <g id="patch_3">
    <path d="M 56.835852 273.312 
L 67.142346 273.312 
L 67.142346 272.741285 
L 56.835852 272.741285 
z
" clip-path="url(#pd7a0b57143)" style="fill: #ee6666; stroke: #ffffff; stroke-linejoin: miter"/>
   </g>
   <g id="patch_4">
    <path d="M 144.441047 273.312 
L 154.747541 273.312 
L 154.747541 272.859747 
L 144.441047 272.859747 
z
" clip-path="url(#pd7a0b57143)" style="fill: #ee6666; stroke: #ffffff; stroke-linejoin: miter"/>
   </g>
   <g id="patch_5">
    <path d="M 232.046242 273.312 
L 242.352735 273.312 
L 242.352735 272.766282 
L 232.046242 272.766282 
z
" clip-path="url(#pd7a0b57143)" style="fill: #ee6666; stroke: #ffffff; stroke-linejoin: miter"/>
   </g>
   <g id="patch_6">
    <path d="M 319.651437 273.312 
L 329.95793 273.312 
L 329.95793 272.934665 
L 319.651437 272.934665 
z
" clip-path="url(#pd7a0b57143)" style="fill: #ee6666; stroke: #ffffff; stroke-linejoin: miter"/>
   </g>
   <g id="patch_7">
    <path d="M 67.142346 273.312 
L 77.448839 273.312 
L 77.448839 269.969522 
L 67.142346 269.969522 
z
" clip-path="url(#pd7a0b57143)" style="fill: #9988dd; stroke: #ffffff; stroke-linejoin: miter"/>
   </g>
   <g id="patch_8">
    <path d="M 154.747541 273.312 
L 165.054034 273.312 
L 165.054034 269.946869 
L 154.747541 269.946869 
z
" clip-path="url(#pd7a0b57143)" style="fill: #9988dd; stroke: #ffffff; stroke-linejoin: miter"/>
   </g>
   <g id="patch_9">
    <path d="M 242.352735 273.312 
L 252.659229 273.312 
L 252.659229 269.618238 
L 242.352735 269.618238 
z
" clip-path="url(#pd7a0b57143)" style="fill: #9988dd; stroke: #ffffff; stroke-linejoin: miter"/>
   </g>
   <g id="patch_10">
    <path d="M 329.95793 273.312 
L 340.264424 273.312 
L 340.264424 270.104859 
L 329.95793 270.104859 
z
" clip-path="url(#pd7a0b57143)" style="fill: #9988dd; stroke: #ffffff; stroke-linejoin: miter"/>
   </g>
   <g id="patch_11">
    <path d="M 77.448839 273.312 
L 87.755333 273.312 
L 87.755333 260.350104 
L 77.448839 260.350104 
z
" clip-path="url(#pd7a0b57143)" style="fill: #eecc55; stroke: #ffffff; stroke-linejoin: miter"/>
   </g>
   <g id="patch_12">
    <path d="M 165.054034 273.312 
L 175.360528 273.312 
L 175.360528 246.071805 
L 165.054034 246.071805 
z
" clip-path="url(#pd7a0b57143)" style="fill: #eecc55; stroke: #ffffff; stroke-linejoin: miter"/>
   </g>
   <g id="patch_13">
    <path d="M 252.659229 273.312 
L 262.965722 273.312 
L 262.965722 248.330504 
L 252.659229 248.330504 
z
" clip-path="url(#pd7a0b57143)" style="fill: #eecc55; stroke: #ffffff; stroke-linejoin: miter"/>
   </g>
   <g id="patch_14">
    <path d="M 340.264424 273.312 
L 350.570917 273.312 
L 350.570917 225.658705 
L 340.264424 225.658705 
z
" clip-path="url(#pd7a0b57143)" style="fill: #eecc55; stroke: #ffffff; stroke-linejoin: miter"/>
   </g>
   <g id="patch_15">
    <path d="M 87.755333 273.312 
L 98.061826 273.312 
L 98.061826 260.48302 
L 87.755333 260.48302 
z
" clip-path="url(#pd7a0b57143)" style="fill: #88bb44; stroke: #ffffff; stroke-linejoin: miter"/>
   </g>
   <g id="patch_16">
    <path d="M 175.360528 273.312 
L 185.667021 273.312 
L 185.667021 243.594872 
L 175.360528 243.594872 
z
" clip-path="url(#pd7a0b57143)" style="fill: #88bb44; stroke: #ffffff; stroke-linejoin: miter"/>
   </g>
   <g id="patch_17">
    <path d="M 262.965722 273.312 
L 273.272216 273.312 
L 273.272216 229.86813 
L 262.965722 229.86813 
z
" clip-path="url(#pd7a0b57143)" style="fill: #88bb44; stroke: #ffffff; stroke-linejoin: miter"/>
   </g>
   <g id="patch_18">
    <path d="M 350.570917 273.312 
L 360.877411 273.312 
L 360.877411 235.193267 
L 350.570917 235.193267 
z
" clip-path="url(#pd7a0b57143)" style="fill: #88bb44; stroke: #ffffff; stroke-linejoin: miter"/>
   </g>
   <g id="patch_19">
    <path d="M 98.061826 273.312 
L 108.36832 273.312 
L 108.36832 252.111993 
L 98.061826 252.111993 
z
" clip-path="url(#pd7a0b57143)" style="fill: #ffbbbb; stroke: #ffffff; stroke-linejoin: miter"/>
   </g>
   <g id="patch_20">
    <path d="M 185.667021 273.312 
L 195.973515 273.312 
L 195.973515 226.206316 
L 185.667021 226.206316 
z
" clip-path="url(#pd7a0b57143)" style="fill: #ffbbbb; stroke: #ffffff; stroke-linejoin: miter"/>
   </g>
   <g id="patch_21">
    <path d="M 273.272216 273.312 
L 283.578709 273.312 
L 283.578709 201.689779 
L 273.272216 201.689779 
z
" clip-path="url(#pd7a0b57143)" style="fill: #ffbbbb; stroke: #ffffff; stroke-linejoin: miter"/>
   </g>
   <g id="patch_22">
    <path d="M 360.877411 273.312 
L 371.183904 273.312 
L 371.183904 167.029514 
L 360.877411 167.029514 
z
" clip-path="url(#pd7a0b57143)" style="fill: #ffbbbb; stroke: #ffffff; stroke-linejoin: miter"/>
   </g>
   <g id="patch_23">
    <path d="M 108.36832 273.312 
L 118.674813 273.312 
L 118.674813 242.045216 
L 108.36832 242.045216 
z
" clip-path="url(#pd7a0b57143)" style="fill: #964b00; stroke: #ffffff; stroke-linejoin: miter"/>
   </g>
   <g id="patch_24">
    <path d="M 195.973515 273.312 
L 206.280008 273.312 
L 206.280008 200.085377 
L 195.973515 200.085377 
z
" clip-path="url(#pd7a0b57143)" style="fill: #964b00; stroke: #ffffff; stroke-linejoin: miter"/>
   </g>
   <g id="patch_25">
    <path d="M 283.578709 273.312 
L 293.885203 273.312 
L 293.885203 149.310963 
L 283.578709 149.310963 
z
" clip-path="url(#pd7a0b57143)" style="fill: #964b00; stroke: #ffffff; stroke-linejoin: miter"/>
   </g>
   <g id="patch_26">
    <path d="M 371.183904 273.312 
L 381.490398 273.312 
L 381.490398 38.536641 
L 371.183904 38.536641 
z
" clip-path="url(#pd7a0b57143)" style="fill: #964b00; stroke: #ffffff; stroke-linejoin: miter"/>
   </g>
   <g id="LineCollection_1">
    <path d="M 61.989099 272.742444 
L 61.989099 272.740127 
" clip-path="url(#pd7a0b57143)" style="fill: none; stroke: #000000"/>
    <path d="M 149.594294 272.860801 
L 149.594294 272.858693 
" clip-path="url(#pd7a0b57143)" style="fill: none; stroke: #000000"/>
    <path d="M 237.199489 272.780252 
L 237.199489 272.752311 
" clip-path="url(#pd7a0b57143)" style="fill: none; stroke: #000000"/>
    <path d="M 324.804683 272.944325 
L 324.804683 272.925005 
" clip-path="url(#pd7a0b57143)" style="fill: none; stroke: #000000"/>
   </g>
   <g id="line2d_14">
    <defs>
     <path id="m2ddbe15bae" d="M 5 0 
L -5 -0 
" style="stroke: #000000"/>
    </defs>
    <g clip-path="url(#pd7a0b57143)">
     <use xlink:href="#m2ddbe15bae" x="61.989099" y="272.742444" style="stroke: #000000"/>
     <use xlink:href="#m2ddbe15bae" x="149.594294" y="272.860801" style="stroke: #000000"/>
     <use xlink:href="#m2ddbe15bae" x="237.199489" y="272.780252" style="stroke: #000000"/>
     <use xlink:href="#m2ddbe15bae" x="324.804683" y="272.944325" style="stroke: #000000"/>
    </g>
   </g>
   <g id="line2d_15">
    <g clip-path="url(#pd7a0b57143)">
     <use xlink:href="#m2ddbe15bae" x="61.989099" y="272.740127" style="stroke: #000000"/>
     <use xlink:href="#m2ddbe15bae" x="149.594294" y="272.858693" style="stroke: #000000"/>
     <use xlink:href="#m2ddbe15bae" x="237.199489" y="272.752311" style="stroke: #000000"/>
     <use xlink:href="#m2ddbe15bae" x="324.804683" y="272.925005" style="stroke: #000000"/>
    </g>
   </g>
   <g id="LineCollection_2">
    <path d="M 72.295593 269.974035 
L 72.295593 269.96501 
" clip-path="url(#pd7a0b57143)" style="fill: none; stroke: #000000"/>
    <path d="M 159.900787 270.011143 
L 159.900787 269.882595 
" clip-path="url(#pd7a0b57143)" style="fill: none; stroke: #000000"/>
    <path d="M 247.505982 269.952523 
L 247.505982 269.283953 
" clip-path="url(#pd7a0b57143)" style="fill: none; stroke: #000000"/>
    <path d="M 335.111177 270.375541 
L 335.111177 269.834176 
" clip-path="url(#pd7a0b57143)" style="fill: none; stroke: #000000"/>
   </g>
   <g id="line2d_16">
    <g clip-path="url(#pd7a0b57143)">
     <use xlink:href="#m2ddbe15bae" x="72.295593" y="269.974035" style="stroke: #000000"/>
     <use xlink:href="#m2ddbe15bae" x="159.900787" y="270.011143" style="stroke: #000000"/>
     <use xlink:href="#m2ddbe15bae" x="247.505982" y="269.952523" style="stroke: #000000"/>
     <use xlink:href="#m2ddbe15bae" x="335.111177" y="270.375541" style="stroke: #000000"/>
    </g>
   </g>
   <g id="line2d_17">
    <g clip-path="url(#pd7a0b57143)">
     <use xlink:href="#m2ddbe15bae" x="72.295593" y="269.96501" style="stroke: #000000"/>
     <use xlink:href="#m2ddbe15bae" x="159.900787" y="269.882595" style="stroke: #000000"/>
     <use xlink:href="#m2ddbe15bae" x="247.505982" y="269.283953" style="stroke: #000000"/>
     <use xlink:href="#m2ddbe15bae" x="335.111177" y="269.834176" style="stroke: #000000"/>
    </g>
   </g>
   <g id="LineCollection_3">
    <path d="M 82.602086 260.356287 
L 82.602086 260.343921 
" clip-path="url(#pd7a0b57143)" style="fill: none; stroke: #000000"/>
    <path d="M 170.207281 246.083218 
L 170.207281 246.060391 
" clip-path="url(#pd7a0b57143)" style="fill: none; stroke: #000000"/>
    <path d="M 257.812476 252.459946 
L 257.812476 244.201063 
" clip-path="url(#pd7a0b57143)" style="fill: none; stroke: #000000"/>
    <path d="M 345.41767 226.019917 
L 345.41767 225.297493 
" clip-path="url(#pd7a0b57143)" style="fill: none; stroke: #000000"/>
   </g>
   <g id="line2d_18">
    <g clip-path="url(#pd7a0b57143)">
     <use xlink:href="#m2ddbe15bae" x="82.602086" y="260.356287" style="stroke: #000000"/>
     <use xlink:href="#m2ddbe15bae" x="170.207281" y="246.083218" style="stroke: #000000"/>
     <use xlink:href="#m2ddbe15bae" x="257.812476" y="252.459946" style="stroke: #000000"/>
     <use xlink:href="#m2ddbe15bae" x="345.41767" y="226.019917" style="stroke: #000000"/>
    </g>
   </g>
   <g id="line2d_19">
    <g clip-path="url(#pd7a0b57143)">
     <use xlink:href="#m2ddbe15bae" x="82.602086" y="260.343921" style="stroke: #000000"/>
     <use xlink:href="#m2ddbe15bae" x="170.207281" y="246.060391" style="stroke: #000000"/>
     <use xlink:href="#m2ddbe15bae" x="257.812476" y="244.201063" style="stroke: #000000"/>
     <use xlink:href="#m2ddbe15bae" x="345.41767" y="225.297493" style="stroke: #000000"/>
    </g>
   </g>
   <g id="LineCollection_4">
    <path d="M 92.90858 260.487895 
L 92.90858 260.478145 
" clip-path="url(#pd7a0b57143)" style="fill: none; stroke: #000000"/>
    <path d="M 180.513774 243.612851 
L 180.513774 243.576893 
" clip-path="url(#pd7a0b57143)" style="fill: none; stroke: #000000"/>
    <path d="M 268.118969 230.244354 
L 268.118969 229.491906 
" clip-path="url(#pd7a0b57143)" style="fill: none; stroke: #000000"/>
    <path d="M 355.724164 235.601138 
L 355.724164 234.785397 
" clip-path="url(#pd7a0b57143)" style="fill: none; stroke: #000000"/>
   </g>
   <g id="line2d_20">
    <g clip-path="url(#pd7a0b57143)">
     <use xlink:href="#m2ddbe15bae" x="92.90858" y="260.487895" style="stroke: #000000"/>
     <use xlink:href="#m2ddbe15bae" x="180.513774" y="243.612851" style="stroke: #000000"/>
     <use xlink:href="#m2ddbe15bae" x="268.118969" y="230.244354" style="stroke: #000000"/>
     <use xlink:href="#m2ddbe15bae" x="355.724164" y="235.601138" style="stroke: #000000"/>
    </g>
   </g>
   <g id="line2d_21">
    <g clip-path="url(#pd7a0b57143)">
     <use xlink:href="#m2ddbe15bae" x="92.90858" y="260.478145" style="stroke: #000000"/>
     <use xlink:href="#m2ddbe15bae" x="180.513774" y="243.576893" style="stroke: #000000"/>
     <use xlink:href="#m2ddbe15bae" x="268.118969" y="229.491906" style="stroke: #000000"/>
     <use xlink:href="#m2ddbe15bae" x="355.724164" y="234.785397" style="stroke: #000000"/>
    </g>
   </g>
   <g id="LineCollection_5">
    <path d="M 103.215073 252.125794 
L 103.215073 252.098192 
" clip-path="url(#pd7a0b57143)" style="fill: none; stroke: #000000"/>
    <path d="M 190.820268 226.25719 
L 190.820268 226.155442 
" clip-path="url(#pd7a0b57143)" style="fill: none; stroke: #000000"/>
    <path d="M 278.425463 201.969822 
L 278.425463 201.409736 
" clip-path="url(#pd7a0b57143)" style="fill: none; stroke: #000000"/>
    <path d="M 366.030657 168.177365 
L 366.030657 165.881663 
" clip-path="url(#pd7a0b57143)" style="fill: none; stroke: #000000"/>
   </g>
   <g id="line2d_22">
    <g clip-path="url(#pd7a0b57143)">
     <use xlink:href="#m2ddbe15bae" x="103.215073" y="252.125794" style="stroke: #000000"/>
     <use xlink:href="#m2ddbe15bae" x="190.820268" y="226.25719" style="stroke: #000000"/>
     <use xlink:href="#m2ddbe15bae" x="278.425463" y="201.969822" style="stroke: #000000"/>
     <use xlink:href="#m2ddbe15bae" x="366.030657" y="168.177365" style="stroke: #000000"/>
    </g>
   </g>
   <g id="line2d_23">
    <g clip-path="url(#pd7a0b57143)">
     <use xlink:href="#m2ddbe15bae" x="103.215073" y="252.098192" style="stroke: #000000"/>
     <use xlink:href="#m2ddbe15bae" x="190.820268" y="226.155442" style="stroke: #000000"/>
     <use xlink:href="#m2ddbe15bae" x="278.425463" y="201.409736" style="stroke: #000000"/>
     <use xlink:href="#m2ddbe15bae" x="366.030657" y="165.881663" style="stroke: #000000"/>
    </g>
   </g>
   <g id="LineCollection_6">
    <path d="M 113.521567 242.054783 
L 113.521567 242.035648 
" clip-path="url(#pd7a0b57143)" style="fill: none; stroke: #000000"/>
    <path d="M 201.126761 200.223775 
L 201.126761 199.946978 
" clip-path="url(#pd7a0b57143)" style="fill: none; stroke: #000000"/>
    <path d="M 288.731956 149.608565 
L 288.731956 149.01336 
" clip-path="url(#pd7a0b57143)" style="fill: none; stroke: #000000"/>
    <path d="M 376.337151 57.201282 
L 376.337151 19.872 
" clip-path="url(#pd7a0b57143)" style="fill: none; stroke: #000000"/>
   </g>
   <g id="line2d_24">
    <g clip-path="url(#pd7a0b57143)">
     <use xlink:href="#m2ddbe15bae" x="113.521567" y="242.054783" style="stroke: #000000"/>
     <use xlink:href="#m2ddbe15bae" x="201.126761" y="200.223775" style="stroke: #000000"/>
     <use xlink:href="#m2ddbe15bae" x="288.731956" y="149.608565" style="stroke: #000000"/>
     <use xlink:href="#m2ddbe15bae" x="376.337151" y="57.201282" style="stroke: #000000"/>
    </g>
   </g>
   <g id="line2d_25">
    <g clip-path="url(#pd7a0b57143)">
     <use xlink:href="#m2ddbe15bae" x="113.521567" y="242.035648" style="stroke: #000000"/>
     <use xlink:href="#m2ddbe15bae" x="201.126761" y="199.946978" style="stroke: #000000"/>
     <use xlink:href="#m2ddbe15bae" x="288.731956" y="149.01336" style="stroke: #000000"/>
     <use xlink:href="#m2ddbe15bae" x="376.337151" y="19.872" style="stroke: #000000"/>
    </g>
   </g>
   <g id="patch_27">
    <path d="M 40.603125 273.312 
L 40.603125 7.2 
" style="fill: none; stroke: #cccccc; stroke-width: 0.8; stroke-linejoin: miter; stroke-linecap: square"/>
   </g>
   <g id="patch_28">
    <path d="M 397.723125 273.312 
L 397.723125 7.2 
" style="fill: none; stroke: #cccccc; stroke-width: 0.8; stroke-linejoin: miter; stroke-linecap: square"/>
   </g>
   <g id="patch_29">
    <path d="M 40.603125 273.312 
L 397.723125 273.312 
" style="fill: none; stroke: #cccccc; stroke-width: 0.8; stroke-linejoin: miter; stroke-linecap: square"/>
   </g>
   <g id="patch_30">
    <path d="M 40.603125 7.2 
L 397.723125 7.2 
" style="fill: none; stroke: #cccccc; stroke-width: 0.8; stroke-linejoin: miter; stroke-linecap: square"/>
   </g>
   <g id="text_16">
    <!-- Speedup Ratio over "polyvest" (time) -->
    <g style="fill: #262626" transform="translate(107.154375 320.5344) scale(0.12 -0.12)">
     <defs>
      <path id="DejaVuSans-76" d="M 191 3500 
L 800 3500 
L 1894 563 
L 2988 3500 
L 3597 3500 
L 2284 0 
L 1503 0 
L 191 3500 
z
" transform="scale(0.015625)"/>
      <path id="DejaVuSans-72" d="M 2631 2963 
Q 2534 3019 2420 3045 
Q 2306 3072 2169 3072 
Q 1681 3072 1420 2755 
Q 1159 2438 1159 1844 
L 1159 0 
L 581 0 
L 581 3500 
L 1159 3500 
L 1159 2956 
Q 1341 3275 1631 3429 
Q 1922 3584 2338 3584 
Q 2397 3584 2469 3576 
Q 2541 3569 2628 3553 
L 2631 2963 
z
" transform="scale(0.015625)"/>
      <path id="DejaVuSans-22" d="M 1147 4666 
L 1147 2931 
L 616 2931 
L 616 4666 
L 1147 4666 
z
M 2328 4666 
L 2328 2931 
L 1797 2931 
L 1797 4666 
L 2328 4666 
z
" transform="scale(0.015625)"/>
      <path id="DejaVuSans-6c" d="M 603 4863 
L 1178 4863 
L 1178 0 
L 603 0 
L 603 4863 
z
" transform="scale(0.015625)"/>
      <path id="DejaVuSans-79" d="M 2059 -325 
Q 1816 -950 1584 -1140 
Q 1353 -1331 966 -1331 
L 506 -1331 
L 506 -850 
L 844 -850 
Q 1081 -850 1212 -737 
Q 1344 -625 1503 -206 
L 1606 56 
L 191 3500 
L 800 3500 
L 1894 763 
L 2988 3500 
L 3597 3500 
L 2059 -325 
z
" transform="scale(0.015625)"/>
      <path id="DejaVuSans-28" d="M 1984 4856 
Q 1566 4138 1362 3434 
Q 1159 2731 1159 2009 
Q 1159 1288 1364 580 
Q 1569 -128 1984 -844 
L 1484 -844 
Q 1016 -109 783 600 
Q 550 1309 550 2009 
Q 550 2706 781 3412 
Q 1013 4119 1484 4856 
L 1984 4856 
z
" transform="scale(0.015625)"/>
      <path id="DejaVuSans-6d" d="M 3328 2828 
Q 3544 3216 3844 3400 
Q 4144 3584 4550 3584 
Q 5097 3584 5394 3201 
Q 5691 2819 5691 2113 
L 5691 0 
L 5113 0 
L 5113 2094 
Q 5113 2597 4934 2840 
Q 4756 3084 4391 3084 
Q 3944 3084 3684 2787 
Q 3425 2491 3425 1978 
L 3425 0 
L 2847 0 
L 2847 2094 
Q 2847 2600 2669 2842 
Q 2491 3084 2119 3084 
Q 1678 3084 1418 2786 
Q 1159 2488 1159 1978 
L 1159 0 
L 581 0 
L 581 3500 
L 1159 3500 
L 1159 2956 
Q 1356 3278 1631 3431 
Q 1906 3584 2284 3584 
Q 2666 3584 2933 3390 
Q 3200 3197 3328 2828 
z
" transform="scale(0.015625)"/>
      <path id="DejaVuSans-29" d="M 513 4856 
L 1013 4856 
Q 1481 4119 1714 3412 
Q 1947 2706 1947 2009 
Q 1947 1309 1714 600 
Q 1481 -109 1013 -844 
L 513 -844 
Q 928 -128 1133 580 
Q 1338 1288 1338 2009 
Q 1338 2731 1133 3434 
Q 928 4138 513 4856 
z
" transform="scale(0.015625)"/>
     </defs>
     <use xlink:href="#DejaVuSans-53"/>
     <use xlink:href="#DejaVuSans-70" x="63.476562"/>
     <use xlink:href="#DejaVuSans-65" x="126.953125"/>
     <use xlink:href="#DejaVuSans-65" x="188.476562"/>
     <use xlink:href="#DejaVuSans-64" x="250"/>
     <use xlink:href="#DejaVuSans-75" x="313.476562"/>
     <use xlink:href="#DejaVuSans-70" x="376.855469"/>
     <use xlink:href="#DejaVuSans-20" x="440.332031"/>
     <use xlink:href="#DejaVuSans-52" x="472.119141"/>
     <use xlink:href="#DejaVuSans-61" x="539.351562"/>
     <use xlink:href="#DejaVuSans-74" x="600.630859"/>
     <use xlink:href="#DejaVuSans-69" x="639.839844"/>
     <use xlink:href="#DejaVuSans-6f" x="667.623047"/>
     <use xlink:href="#DejaVuSans-20" x="728.804688"/>
     <use xlink:href="#DejaVuSans-6f" x="760.591797"/>
     <use xlink:href="#DejaVuSans-76" x="821.773438"/>
     <use xlink:href="#DejaVuSans-65" x="880.953125"/>
     <use xlink:href="#DejaVuSans-72" x="942.476562"/>
     <use xlink:href="#DejaVuSans-20" x="983.589844"/>
     <use xlink:href="#DejaVuSans-22" x="1015.376953"/>
     <use xlink:href="#DejaVuSans-70" x="1061.373047"/>
     <use xlink:href="#DejaVuSans-6f" x="1124.849609"/>
     <use xlink:href="#DejaVuSans-6c" x="1186.03125"/>
     <use xlink:href="#DejaVuSans-79" x="1213.814453"/>
     <use xlink:href="#DejaVuSans-76" x="1272.994141"/>
     <use xlink:href="#DejaVuSans-65" x="1332.173828"/>
     <use xlink:href="#DejaVuSans-73" x="1393.697266"/>
     <use xlink:href="#DejaVuSans-74" x="1445.796875"/>
     <use xlink:href="#DejaVuSans-22" x="1485.005859"/>
     <use xlink:href="#DejaVuSans-20" x="1531.001953"/>
     <use xlink:href="#DejaVuSans-28" x="1562.789062"/>
     <use xlink:href="#DejaVuSans-74" x="1601.802734"/>
     <use xlink:href="#DejaVuSans-69" x="1641.011719"/>
     <use xlink:href="#DejaVuSans-6d" x="1668.794922"/>
     <use xlink:href="#DejaVuSans-65" x="1766.207031"/>
     <use xlink:href="#DejaVuSans-29" x="1827.730469"/>
    </g>
   </g>
   <g id="legend_1">
    <g id="patch_31">
     <path d="M 47.603125 103.26875 
L 172.809375 103.26875 
Q 174.809375 103.26875 174.809375 101.26875 
L 174.809375 14.2 
Q 174.809375 12.2 172.809375 12.2 
L 47.603125 12.2 
Q 45.603125 12.2 45.603125 14.2 
L 45.603125 101.26875 
Q 45.603125 103.26875 47.603125 103.26875 
z
" style="fill: #ffffff; opacity: 0.8; stroke: #cccccc; stroke-linejoin: miter"/>
    </g>
    <g id="patch_32">
     <path d="M 49.603125 23.798437 
L 69.603125 23.798437 
L 69.603125 16.798437 
L 49.603125 16.798437 
z
" style="fill: #ee6666; stroke: #ffffff; stroke-linejoin: miter"/>
    </g>
    <g id="text_17">
     <!-- baseline -->
     <g style="fill: #262626" transform="translate(77.603125 23.798437) scale(0.1 -0.1)">
      <defs>
       <path id="DejaVuSans-6e" d="M 3513 2113 
L 3513 0 
L 2938 0 
L 2938 2094 
Q 2938 2591 2744 2837 
Q 2550 3084 2163 3084 
Q 1697 3084 1428 2787 
Q 1159 2491 1159 1978 
L 1159 0 
L 581 0 
L 581 3500 
L 1159 3500 
L 1159 2956 
Q 1366 3272 1645 3428 
Q 1925 3584 2291 3584 
Q 2894 3584 3203 3211 
Q 3513 2838 3513 2113 
z
" transform="scale(0.015625)"/>
      </defs>
      <use xlink:href="#DejaVuSans-62"/>
      <use xlink:href="#DejaVuSans-61" x="63.476562"/>
      <use xlink:href="#DejaVuSans-73" x="124.755859"/>
      <use xlink:href="#DejaVuSans-65" x="176.855469"/>
      <use xlink:href="#DejaVuSans-6c" x="238.378906"/>
      <use xlink:href="#DejaVuSans-69" x="266.162109"/>
      <use xlink:href="#DejaVuSans-6e" x="293.945312"/>
      <use xlink:href="#DejaVuSans-65" x="357.324219"/>
     </g>
    </g>
    <g id="patch_33">
     <path d="M 49.603125 38.476562 
L 69.603125 38.476562 
L 69.603125 31.476562 
L 49.603125 31.476562 
z
" style="fill: #9988dd; stroke: #ffffff; stroke-linejoin: miter"/>
    </g>
    <g id="text_18">
     <!-- bound-remove -->
     <g style="fill: #262626" transform="translate(77.603125 38.476562) scale(0.1 -0.1)">
      <defs>
       <path id="DejaVuSans-2d" d="M 313 2009 
L 1997 2009 
L 1997 1497 
L 313 1497 
L 313 2009 
z
" transform="scale(0.015625)"/>
      </defs>
      <use xlink:href="#DejaVuSans-62"/>
      <use xlink:href="#DejaVuSans-6f" x="63.476562"/>
      <use xlink:href="#DejaVuSans-75" x="124.658203"/>
      <use xlink:href="#DejaVuSans-6e" x="188.037109"/>
      <use xlink:href="#DejaVuSans-64" x="251.416016"/>
      <use xlink:href="#DejaVuSans-2d" x="314.892578"/>
      <use xlink:href="#DejaVuSans-72" x="350.976562"/>
      <use xlink:href="#DejaVuSans-65" x="389.839844"/>
      <use xlink:href="#DejaVuSans-6d" x="451.363281"/>
      <use xlink:href="#DejaVuSans-6f" x="548.775391"/>
      <use xlink:href="#DejaVuSans-76" x="609.957031"/>
      <use xlink:href="#DejaVuSans-65" x="669.136719"/>
     </g>
    </g>
    <g id="patch_34">
     <path d="M 49.603125 53.154687 
L 69.603125 53.154687 
L 69.603125 46.154687 
L 49.603125 46.154687 
z
" style="fill: #eecc55; stroke: #ffffff; stroke-linejoin: miter"/>
    </g>
    <g id="text_19">
     <!-- fast-linalg -->
     <g style="fill: #262626" transform="translate(77.603125 53.154687) scale(0.1 -0.1)">
      <defs>
       <path id="DejaVuSans-66" d="M 2375 4863 
L 2375 4384 
L 1825 4384 
Q 1516 4384 1395 4259 
Q 1275 4134 1275 3809 
L 1275 3500 
L 2222 3500 
L 2222 3053 
L 1275 3053 
L 1275 0 
L 697 0 
L 697 3053 
L 147 3053 
L 147 3500 
L 697 3500 
L 697 3744 
Q 697 4328 969 4595 
Q 1241 4863 1831 4863 
L 2375 4863 
z
" transform="scale(0.015625)"/>
       <path id="DejaVuSans-67" d="M 2906 1791 
Q 2906 2416 2648 2759 
Q 2391 3103 1925 3103 
Q 1463 3103 1205 2759 
Q 947 2416 947 1791 
Q 947 1169 1205 825 
Q 1463 481 1925 481 
Q 2391 481 2648 825 
Q 2906 1169 2906 1791 
z
M 3481 434 
Q 3481 -459 3084 -895 
Q 2688 -1331 1869 -1331 
Q 1566 -1331 1297 -1286 
Q 1028 -1241 775 -1147 
L 775 -588 
Q 1028 -725 1275 -790 
Q 1522 -856 1778 -856 
Q 2344 -856 2625 -561 
Q 2906 -266 2906 331 
L 2906 616 
Q 2728 306 2450 153 
Q 2172 0 1784 0 
Q 1141 0 747 490 
Q 353 981 353 1791 
Q 353 2603 747 3093 
Q 1141 3584 1784 3584 
Q 2172 3584 2450 3431 
Q 2728 3278 2906 2969 
L 2906 3500 
L 3481 3500 
L 3481 434 
z
" transform="scale(0.015625)"/>
      </defs>
      <use xlink:href="#DejaVuSans-66"/>
      <use xlink:href="#DejaVuSans-61" x="35.205078"/>
      <use xlink:href="#DejaVuSans-73" x="96.484375"/>
      <use xlink:href="#DejaVuSans-74" x="148.583984"/>
      <use xlink:href="#DejaVuSans-2d" x="187.792969"/>
      <use xlink:href="#DejaVuSans-6c" x="223.876953"/>
      <use xlink:href="#DejaVuSans-69" x="251.660156"/>
      <use xlink:href="#DejaVuSans-6e" x="279.443359"/>
      <use xlink:href="#DejaVuSans-61" x="342.822266"/>
      <use xlink:href="#DejaVuSans-6c" x="404.101562"/>
      <use xlink:href="#DejaVuSans-67" x="431.884766"/>
     </g>
    </g>
    <g id="patch_35">
     <path d="M 49.603125 67.832812 
L 69.603125 67.832812 
L 69.603125 60.832812 
L 49.603125 60.832812 
z
" style="fill: #88bb44; stroke: #ffffff; stroke-linejoin: miter"/>
    </g>
    <g id="text_20">
     <!-- vecplusextraoptim -->
     <g style="fill: #262626" transform="translate(77.603125 67.832812) scale(0.1 -0.1)">
      <defs>
       <path id="DejaVuSans-78" d="M 3513 3500 
L 2247 1797 
L 3578 0 
L 2900 0 
L 1881 1375 
L 863 0 
L 184 0 
L 1544 1831 
L 300 3500 
L 978 3500 
L 1906 2253 
L 2834 3500 
L 3513 3500 
z
" transform="scale(0.015625)"/>
      </defs>
      <use xlink:href="#DejaVuSans-76"/>
      <use xlink:href="#DejaVuSans-65" x="59.179688"/>
      <use xlink:href="#DejaVuSans-63" x="120.703125"/>
      <use xlink:href="#DejaVuSans-70" x="175.683594"/>
      <use xlink:href="#DejaVuSans-6c" x="239.160156"/>
      <use xlink:href="#DejaVuSans-75" x="266.943359"/>
      <use xlink:href="#DejaVuSans-73" x="330.322266"/>
      <use xlink:href="#DejaVuSans-65" x="382.421875"/>
      <use xlink:href="#DejaVuSans-78" x="442.195312"/>
      <use xlink:href="#DejaVuSans-74" x="501.375"/>
      <use xlink:href="#DejaVuSans-72" x="540.583984"/>
      <use xlink:href="#DejaVuSans-61" x="581.697266"/>
      <use xlink:href="#DejaVuSans-6f" x="642.976562"/>
      <use xlink:href="#DejaVuSans-70" x="704.158203"/>
      <use xlink:href="#DejaVuSans-74" x="767.634766"/>
      <use xlink:href="#DejaVuSans-69" x="806.84375"/>
      <use xlink:href="#DejaVuSans-6d" x="834.626953"/>
     </g>
    </g>
    <g id="patch_36">
     <path d="M 49.603125 82.510937 
L 69.603125 82.510937 
L 69.603125 75.510937 
L 49.603125 75.510937 
z
" style="fill: #ffbbbb; stroke: #ffffff; stroke-linejoin: miter"/>
    </g>
    <g id="text_21">
     <!-- aligned-vec -->
     <g style="fill: #262626" transform="translate(77.603125 82.510937) scale(0.1 -0.1)">
      <use xlink:href="#DejaVuSans-61"/>
      <use xlink:href="#DejaVuSans-6c" x="61.279297"/>
      <use xlink:href="#DejaVuSans-69" x="89.0625"/>
      <use xlink:href="#DejaVuSans-67" x="116.845703"/>
      <use xlink:href="#DejaVuSans-6e" x="180.322266"/>
      <use xlink:href="#DejaVuSans-65" x="243.701172"/>
      <use xlink:href="#DejaVuSans-64" x="305.224609"/>
      <use xlink:href="#DejaVuSans-2d" x="368.701172"/>
      <use xlink:href="#DejaVuSans-76" x="402.160156"/>
      <use xlink:href="#DejaVuSans-65" x="461.339844"/>
      <use xlink:href="#DejaVuSans-63" x="522.863281"/>
     </g>
    </g>
    <g id="patch_37">
     <path d="M 49.603125 97.189062 
L 69.603125 97.189062 
L 69.603125 90.189062 
L 49.603125 90.189062 
z
" style="fill: #964b00; stroke: #ffffff; stroke-linejoin: miter"/>
    </g>
    <g id="text_22">
     <!-- reduce-precision -->
     <g style="fill: #262626" transform="translate(77.603125 97.189062) scale(0.1 -0.1)">
      <use xlink:href="#DejaVuSans-72"/>
      <use xlink:href="#DejaVuSans-65" x="38.863281"/>
      <use xlink:href="#DejaVuSans-64" x="100.386719"/>
      <use xlink:href="#DejaVuSans-75" x="163.863281"/>
      <use xlink:href="#DejaVuSans-63" x="227.242188"/>
      <use xlink:href="#DejaVuSans-65" x="282.222656"/>
      <use xlink:href="#DejaVuSans-2d" x="343.746094"/>
      <use xlink:href="#DejaVuSans-70" x="379.830078"/>
      <use xlink:href="#DejaVuSans-72" x="443.306641"/>
      <use xlink:href="#DejaVuSans-65" x="482.169922"/>
      <use xlink:href="#DejaVuSans-63" x="543.693359"/>
      <use xlink:href="#DejaVuSans-69" x="598.673828"/>
      <use xlink:href="#DejaVuSans-73" x="626.457031"/>
      <use xlink:href="#DejaVuSans-69" x="678.556641"/>
      <use xlink:href="#DejaVuSans-6f" x="706.339844"/>
      <use xlink:href="#DejaVuSans-6e" x="767.521484"/>
     </g>
    </g>
   </g>
  </g>
 </g>
 <defs>
  <clipPath id="pd7a0b57143">
   <rect x="40.603125" y="7.2" width="357.12" height="266.112"/>
  </clipPath>
 </defs>
</svg>
