<?xml version="1.0" encoding="utf-8" standalone="no"?>
<!DOCTYPE svg PUBLIC "-//W3C//DTD SVG 1.1//EN"
  "http://www.w3.org/Graphics/SVG/1.1/DTD/svg11.dtd">
<svg xmlns:xlink="http://www.w3.org/1999/xlink" width="392.176977pt" height="347.568578pt" viewBox="0 0 392.176977 347.568578" xmlns="http://www.w3.org/2000/svg" version="1.1">
 <metadata>
  <rdf:RDF xmlns:dc="http://purl.org/dc/elements/1.1/" xmlns:cc="http://creativecommons.org/ns#" xmlns:rdf="http://www.w3.org/1999/02/22-rdf-syntax-ns#">
   <cc:Work>
    <dc:type rdf:resource="http://purl.org/dc/dcmitype/StillImage"/>
    <dc:date>2023-06-19T16:24:47.323939</dc:date>
    <dc:format>image/svg+xml</dc:format>
    <dc:creator>
     <cc:Agent>
      <dc:title>Matplotlib v3.5.0, https://matplotlib.org/</dc:title>
     </cc:Agent>
    </dc:creator>
   </cc:Work>
  </rdf:RDF>
 </metadata>
 <defs>
  <style type="text/css">*{stroke-linejoin: round; stroke-linecap: butt}</style>
 </defs>
 <g id="figure_1">
  <g id="patch_1">
   <path d="M 0 347.568578 
L 392.176977 347.568578 
L 392.176977 0 
L 0 0 
z
" style="fill: #ffffff"/>
  </g>
  <g id="axes_1">
   <g id="patch_2">
    <path d="M 27.856977 304.572768 
L 384.976977 304.572768 
L 384.976977 38.460768 
L 27.856977 38.460768 
z
" style="fill: #ffffff"/>
   </g>
   <g id="matplotlib.axis_1">
    <g id="xtick_1">
     <g id="line2d_1">
      <path d="M 73.603754 304.572768 
L 73.603754 38.460768 
" clip-path="url(#p66ae7b3ec8)" style="fill: none; stroke: #cccccc; stroke-width: 0.8; stroke-linecap: round"/>
     </g>
     <g id="text_1">
      <!-- $\mathrm{cube\ 20}$ -->
      <g transform="translate(50.652445 321.258645)scale(0.14 -0.14)">
       <defs>
        <path id="CMR17-63" d="M 2234 2240 
C 2112 2240 1933 2240 1933 2017 
C 1933 1838 2080 1787 2163 1787 
C 2208 1787 2394 1807 2394 2024 
C 2394 2467 1958 2803 1466 2803 
C 787 2803 211 2178 211 1363 
C 211 516 813 -64 1466 -64 
C 2259 -64 2458 677 2458 748 
C 2458 774 2451 793 2406 793 
C 2362 793 2355 787 2330 703 
C 2163 180 1798 51 1523 51 
C 1114 51 621 427 621 1369 
C 621 2338 1094 2688 1472 2688 
C 1722 2688 2093 2573 2234 2240 
z
" transform="scale(0.015625)"/>
        <path id="CMR17-75" d="M 1882 2693 
L 1882 2528 
C 2259 2528 2317 2489 2317 2186 
L 2317 1032 
C 2317 500 2029 38 1555 38 
C 1030 38 986 348 986 678 
L 986 2763 
L 211 2693 
L 211 2528 
C 467 2528 640 2528 646 2274 
L 646 1058 
C 646 633 646 361 813 183 
C 896 101 1056 -64 1517 -64 
C 2061 -64 2272 377 2323 506 
L 2330 506 
L 2330 -63 
L 3091 -63 
L 3091 128 
C 2714 128 2656 166 2656 473 
L 2656 2763 
L 1882 2693 
z
" transform="scale(0.015625)"/>
        <path id="CMR17-62" d="M 960 4396 
L 198 4326 
L 198 4160 
C 576 4160 634 4122 634 3817 
L 634 -13 
L 749 -13 
L 934 441 
C 1120 141 1395 -64 1766 -64 
C 2406 -64 3053 500 3053 1370 
C 3053 2188 2477 2790 1830 2790 
C 1434 2790 1152 2579 960 2330 
L 960 4396 
z
M 973 2004 
C 973 2118 973 2138 1062 2272 
C 1312 2657 1670 2688 1792 2688 
C 1984 2688 2643 2585 2643 1376 
C 2643 108 1888 38 1734 38 
C 1536 38 1248 114 1043 486 
C 973 608 973 621 973 735 
L 973 2004 
z
" transform="scale(0.015625)"/>
        <path id="CMR17-65" d="M 2438 1472 
C 2464 1498 2464 1511 2464 1576 
C 2464 2238 2118 2816 1389 2816 
C 710 2816 173 2169 173 1383 
C 173 551 781 -64 1459 -64 
C 2176 -64 2458 607 2458 740 
C 2458 784 2419 784 2406 784 
C 2362 784 2355 771 2330 696 
C 2189 265 1837 51 1504 51 
C 1229 51 954 203 781 480 
C 582 803 582 1176 582 1472 
L 2438 1472 
z
M 589 1568 
C 634 2505 1126 2714 1382 2714 
C 1818 2714 2112 2297 2118 1568 
L 589 1568 
z
" transform="scale(0.015625)"/>
        <path id="CMR17-32" d="M 2669 989 
L 2554 989 
C 2490 536 2438 459 2413 420 
C 2381 369 1920 369 1830 369 
L 602 369 
C 832 619 1280 1072 1824 1597 
C 2214 1967 2669 2402 2669 3035 
C 2669 3790 2067 4224 1395 4224 
C 691 4224 262 3604 262 3030 
C 262 2780 448 2748 525 2748 
C 589 2748 781 2787 781 3010 
C 781 3207 614 3264 525 3264 
C 486 3264 448 3258 422 3245 
C 544 3790 915 4058 1306 4058 
C 1862 4058 2227 3617 2227 3035 
C 2227 2479 1901 2000 1536 1584 
L 262 146 
L 262 0 
L 2515 0 
L 2669 989 
z
" transform="scale(0.015625)"/>
        <path id="CMR17-30" d="M 2688 2025 
C 2688 2416 2682 3080 2413 3591 
C 2176 4039 1798 4198 1466 4198 
C 1158 4198 768 4058 525 3597 
C 269 3118 243 2524 243 2025 
C 243 1661 250 1106 448 619 
C 723 -39 1216 -128 1466 -128 
C 1760 -128 2208 -7 2470 600 
C 2662 1042 2688 1559 2688 2025 
z
M 1466 -26 
C 1056 -26 813 325 723 812 
C 653 1188 653 1738 653 2096 
C 653 2588 653 2997 736 3387 
C 858 3929 1216 4096 1466 4096 
C 1728 4096 2067 3923 2189 3400 
C 2272 3036 2278 2607 2278 2096 
C 2278 1680 2278 1169 2202 792 
C 2067 95 1690 -26 1466 -26 
z
" transform="scale(0.015625)"/>
       </defs>
       <use xlink:href="#CMR17-63" transform="scale(0.996264)"/>
       <use xlink:href="#CMR17-75" transform="translate(40.48566 0)scale(0.996264)"/>
       <use xlink:href="#CMR17-62" transform="translate(91.38103 0)scale(0.996264)"/>
       <use xlink:href="#CMR17-65" transform="translate(144.878839 0)scale(0.996264)"/>
       <use xlink:href="#CMR17-32" transform="translate(216.593612 0)scale(0.996264)"/>
       <use xlink:href="#CMR17-30" transform="translate(262.284089 0)scale(0.996264)"/>
      </g>
     </g>
    </g>
    <g id="xtick_2">
     <g id="line2d_2">
      <path d="M 162.145903 304.572768 
L 162.145903 38.460768 
" clip-path="url(#p66ae7b3ec8)" style="fill: none; stroke: #cccccc; stroke-width: 0.8; stroke-linecap: round"/>
     </g>
     <g id="text_2">
      <!-- $\mathrm{cube\ 40}$ -->
      <g transform="translate(139.194594 321.258645)scale(0.14 -0.14)">
       <defs>
        <path id="CMR17-34" d="M 2150 4122 
C 2150 4256 2144 4256 2029 4256 
L 128 1254 
L 128 1088 
L 1779 1088 
L 1779 457 
C 1779 224 1766 160 1318 160 
L 1197 160 
L 1197 0 
C 1402 0 1747 0 1965 0 
C 2182 0 2528 0 2733 0 
L 2733 160 
L 2611 160 
C 2163 160 2150 224 2150 457 
L 2150 1088 
L 2803 1088 
L 2803 1254 
L 2150 1254 
L 2150 4122 
z
M 1798 3703 
L 1798 1254 
L 256 1254 
L 1798 3703 
z
" transform="scale(0.015625)"/>
       </defs>
       <use xlink:href="#CMR17-63" transform="scale(0.996264)"/>
       <use xlink:href="#CMR17-75" transform="translate(40.48566 0)scale(0.996264)"/>
       <use xlink:href="#CMR17-62" transform="translate(91.38103 0)scale(0.996264)"/>
       <use xlink:href="#CMR17-65" transform="translate(144.878839 0)scale(0.996264)"/>
       <use xlink:href="#CMR17-34" transform="translate(216.593612 0)scale(0.996264)"/>
       <use xlink:href="#CMR17-30" transform="translate(262.284089 0)scale(0.996264)"/>
      </g>
     </g>
    </g>
    <g id="xtick_3">
     <g id="line2d_3">
      <path d="M 250.688052 304.572768 
L 250.688052 38.460768 
" clip-path="url(#p66ae7b3ec8)" style="fill: none; stroke: #cccccc; stroke-width: 0.8; stroke-linecap: round"/>
     </g>
     <g id="text_3">
      <!-- $\mathrm{cube\ 60}$ -->
      <g transform="translate(227.736743 321.258645)scale(0.14 -0.14)">
       <defs>
        <path id="CMR17-36" d="M 678 2176 
C 678 3690 1395 4032 1811 4032 
C 1946 4032 2272 4009 2400 3776 
C 2298 3776 2106 3776 2106 3553 
C 2106 3381 2246 3323 2336 3323 
C 2394 3323 2566 3348 2566 3560 
C 2566 3954 2246 4179 1805 4179 
C 1043 4179 243 3390 243 1984 
C 243 253 966 -128 1478 -128 
C 2099 -128 2688 427 2688 1283 
C 2688 2081 2170 2662 1517 2662 
C 1126 2662 838 2407 678 1960 
L 678 2176 
z
M 1478 25 
C 691 25 691 1200 691 1436 
C 691 1896 909 2560 1504 2560 
C 1613 2560 1926 2560 2138 2120 
C 2253 1870 2253 1609 2253 1289 
C 2253 944 2253 690 2118 434 
C 1978 171 1773 25 1478 25 
z
" transform="scale(0.015625)"/>
       </defs>
       <use xlink:href="#CMR17-63" transform="scale(0.996264)"/>
       <use xlink:href="#CMR17-75" transform="translate(40.48566 0)scale(0.996264)"/>
       <use xlink:href="#CMR17-62" transform="translate(91.38103 0)scale(0.996264)"/>
       <use xlink:href="#CMR17-65" transform="translate(144.878839 0)scale(0.996264)"/>
       <use xlink:href="#CMR17-36" transform="translate(216.593612 0)scale(0.996264)"/>
       <use xlink:href="#CMR17-30" transform="translate(262.284089 0)scale(0.996264)"/>
      </g>
     </g>
    </g>
    <g id="xtick_4">
     <g id="line2d_4">
      <path d="M 339.2302 304.572768 
L 339.2302 38.460768 
" clip-path="url(#p66ae7b3ec8)" style="fill: none; stroke: #cccccc; stroke-width: 0.8; stroke-linecap: round"/>
     </g>
     <g id="text_4">
      <!-- $\mathrm{cube\ 80}$ -->
      <g transform="translate(316.278891 321.258645)scale(0.14 -0.14)">
       <defs>
        <path id="CMR17-38" d="M 1741 2264 
C 2144 2467 2554 2773 2554 3263 
C 2554 3841 1990 4179 1472 4179 
C 890 4179 378 3759 378 3180 
C 378 3021 416 2747 666 2505 
C 730 2442 998 2251 1171 2130 
C 883 1983 211 1634 211 934 
C 211 279 838 -128 1459 -128 
C 2144 -128 2720 362 2720 1010 
C 2720 1590 2330 1857 2074 2029 
L 1741 2264 
z
M 902 2822 
C 851 2854 595 3051 595 3351 
C 595 3739 998 4032 1459 4032 
C 1965 4032 2336 3676 2336 3262 
C 2336 2669 1670 2331 1638 2331 
C 1632 2331 1626 2331 1574 2370 
L 902 2822 
z
M 2080 1519 
C 2176 1449 2483 1240 2483 851 
C 2483 381 2010 25 1472 25 
C 890 25 448 438 448 940 
C 448 1443 838 1862 1280 2060 
L 2080 1519 
z
" transform="scale(0.015625)"/>
       </defs>
       <use xlink:href="#CMR17-63" transform="scale(0.996264)"/>
       <use xlink:href="#CMR17-75" transform="translate(40.48566 0)scale(0.996264)"/>
       <use xlink:href="#CMR17-62" transform="translate(91.38103 0)scale(0.996264)"/>
       <use xlink:href="#CMR17-65" transform="translate(144.878839 0)scale(0.996264)"/>
       <use xlink:href="#CMR17-38" transform="translate(216.593612 0)scale(0.996264)"/>
       <use xlink:href="#CMR17-30" transform="translate(262.284089 0)scale(0.996264)"/>
      </g>
     </g>
    </g>
    <g id="text_5">
     <!-- $\mathrm{Test\ Cases}$ -->
     <g style="fill: #262626" transform="translate(174.626569 337.656549)scale(0.14 -0.14)">
      <defs>
       <path id="CMR17-54" d="M 3981 4326 
L 288 4326 
L 179 2918 
L 294 2918 
C 378 3976 467 4160 1453 4160 
C 1568 4160 1754 4160 1805 4154 
C 1926 4135 1926 4058 1926 3912 
L 1926 459 
C 1926 230 1907 160 1376 160 
L 1197 160 
L 1197 0 
C 1504 0 1824 0 2138 0 
C 2451 0 2771 0 3078 0 
L 3078 160 
L 2899 160 
C 2368 160 2349 230 2349 459 
L 2349 3912 
C 2349 4052 2349 4129 2464 4154 
C 2515 4160 2701 4160 2816 4160 
C 3795 4160 3891 3976 3974 2918 
L 4090 2918 
L 3981 4326 
z
" transform="scale(0.015625)"/>
       <path id="CMR17-73" d="M 1978 2697 
C 1978 2813 1971 2819 1933 2819 
C 1907 2819 1901 2813 1824 2717 
C 1805 2691 1747 2626 1728 2601 
C 1523 2819 1235 2819 1126 2819 
C 416 2819 160 2447 160 2076 
C 160 1498 813 1365 998 1325 
C 1402 1243 1542 1217 1677 1101 
C 1760 1025 1901 884 1901 654 
C 1901 384 1747 38 1158 38 
C 602 38 403 460 288 1021 
C 269 1110 269 1117 218 1117 
C 166 1117 160 1110 160 983 
L 160 63 
C 160 -51 166 -58 205 -58 
C 237 -58 243 -51 275 0 
C 314 57 410 211 448 276 
C 576 103 800 -64 1158 -64 
C 1792 -64 2131 283 2131 784 
C 2131 1112 1958 1285 1875 1362 
C 1683 1561 1459 1606 1190 1657 
C 838 1735 390 1825 390 2217 
C 390 2383 480 2737 1126 2737 
C 1811 2737 1850 2094 1862 1888 
C 1869 1856 1901 1849 1920 1849 
C 1978 1849 1978 1869 1978 1978 
L 1978 2697 
z
" transform="scale(0.015625)"/>
       <path id="CMR17-74" d="M 966 2560 
L 1862 2560 
L 1862 2725 
L 966 2725 
L 966 3904 
L 851 3904 
C 838 3245 614 2668 70 2668 
L 70 2560 
L 627 2560 
L 627 771 
C 627 650 627 -64 1370 -64 
C 1747 -64 1965 306 1965 777 
L 1965 1140 
L 1850 1140 
L 1850 783 
C 1850 344 1677 51 1408 51 
C 1222 51 966 178 966 758 
L 966 2560 
z
" transform="scale(0.015625)"/>
       <path id="CMR17-43" d="M 3974 4289 
C 3974 4403 3968 4410 3930 4410 
C 3904 4410 3898 4403 3853 4327 
L 3571 3792 
C 3258 4187 2874 4416 2381 4416 
C 1286 4416 294 3456 294 2148 
C 294 826 1286 -128 2387 -128 
C 3366 -128 3974 730 3974 1461 
C 3974 1524 3974 1550 3917 1550 
C 3866 1550 3866 1531 3859 1474 
C 3808 585 3168 38 2477 38 
C 1824 38 781 495 781 2147 
C 781 3805 1843 4250 2464 4250 
C 3187 4250 3712 3628 3834 2745 
C 3846 2668 3846 2655 3904 2655 
C 3974 2655 3974 2668 3974 2783 
L 3974 4289 
z
" transform="scale(0.015625)"/>
       <path id="CMR17-61" d="M 2304 1653 
C 2304 2072 2304 2294 2035 2543 
C 1798 2752 1523 2816 1306 2816 
C 800 2816 435 2407 435 1971 
C 435 1728 627 1728 666 1728 
C 749 1728 896 1778 896 1954 
C 896 2112 774 2181 666 2181 
C 640 2181 608 2174 589 2168 
C 723 2592 1069 2714 1293 2714 
C 1613 2714 1965 2429 1965 1885 
L 1965 1600 
C 1587 1600 1133 1549 774 1357 
C 371 1133 256 813 256 570 
C 256 77 832 -64 1171 -64 
C 1523 -64 1850 139 1990 511 
C 2003 233 2182 -18 2464 -18 
C 2598 -18 2938 70 2938 567 
L 2938 920 
L 2822 920 
L 2822 562 
C 2822 178 2650 128 2566 128 
C 2304 128 2304 458 2304 738 
L 2304 1653 
z
M 1965 870 
C 1965 317 1568 38 1216 38 
C 896 38 646 275 646 570 
C 646 761 730 1100 1101 1305 
C 1408 1478 1760 1504 1965 1504 
L 1965 870 
z
" transform="scale(0.015625)"/>
      </defs>
      <use xlink:href="#CMR17-54" transform="scale(0.996264)"/>
      <use xlink:href="#CMR17-65" transform="translate(58.702625 0)scale(0.996264)"/>
      <use xlink:href="#CMR17-73" transform="translate(99.188286 0)scale(0.996264)"/>
      <use xlink:href="#CMR17-74" transform="translate(134.989623 0)scale(0.996264)"/>
      <use xlink:href="#CMR17-43" transform="translate(201.499504 0)scale(0.996264)"/>
      <use xlink:href="#CMR17-61" transform="translate(268.009384 0)scale(0.996264)"/>
      <use xlink:href="#CMR17-73" transform="translate(313.699861 0)scale(0.996264)"/>
      <use xlink:href="#CMR17-65" transform="translate(349.501199 0)scale(0.996264)"/>
      <use xlink:href="#CMR17-73" transform="translate(389.98686 0)scale(0.996264)"/>
     </g>
    </g>
   </g>
   <g id="matplotlib.axis_2">
    <g id="ytick_1">
     <g id="line2d_5">
      <path d="M 27.856977 304.572768 
L 384.976977 304.572768 
" clip-path="url(#p66ae7b3ec8)" style="fill: none; stroke: #cccccc; stroke-width: 0.8; stroke-linecap: round"/>
     </g>
     <g id="text_6">
      <!-- $\mathdefault{0}$ -->
      <g style="fill: #262626" transform="translate(14.028489 309.415706)scale(0.14 -0.14)">
       <use xlink:href="#CMR17-30" transform="scale(0.996264)"/>
      </g>
     </g>
    </g>
    <g id="ytick_2">
     <g id="line2d_6">
      <path d="M 27.856977 274.149188 
L 384.976977 274.149188 
" clip-path="url(#p66ae7b3ec8)" style="fill: none; stroke: #cccccc; stroke-width: 0.8; stroke-linecap: round"/>
     </g>
     <g id="text_7">
      <!-- $\mathdefault{10}$ -->
      <g style="fill: #262626" transform="translate(7.2 278.992126)scale(0.14 -0.14)">
       <defs>
        <path id="CMR17-31" d="M 1702 4058 
C 1702 4192 1696 4192 1606 4192 
C 1357 3916 979 3827 621 3827 
C 602 3827 570 3827 563 3808 
C 557 3795 557 3782 557 3648 
C 755 3648 1088 3686 1344 3839 
L 1344 461 
C 1344 236 1331 160 781 160 
L 589 160 
L 589 0 
C 896 0 1216 0 1523 0 
C 1830 0 2150 0 2458 0 
L 2458 160 
L 2266 160 
C 1715 160 1702 230 1702 458 
L 1702 4058 
z
" transform="scale(0.015625)"/>
       </defs>
       <use xlink:href="#CMR17-31" transform="scale(0.996264)"/>
       <use xlink:href="#CMR17-30" transform="translate(45.690477 0)scale(0.996264)"/>
      </g>
     </g>
    </g>
    <g id="ytick_3">
     <g id="line2d_7">
      <path d="M 27.856977 243.725608 
L 384.976977 243.725608 
" clip-path="url(#p66ae7b3ec8)" style="fill: none; stroke: #cccccc; stroke-width: 0.8; stroke-linecap: round"/>
     </g>
     <g id="text_8">
      <!-- $\mathdefault{20}$ -->
      <g style="fill: #262626" transform="translate(7.2 248.568546)scale(0.14 -0.14)">
       <use xlink:href="#CMR17-32" transform="scale(0.996264)"/>
       <use xlink:href="#CMR17-30" transform="translate(45.690477 0)scale(0.996264)"/>
      </g>
     </g>
    </g>
    <g id="ytick_4">
     <g id="line2d_8">
      <path d="M 27.856977 213.302028 
L 384.976977 213.302028 
" clip-path="url(#p66ae7b3ec8)" style="fill: none; stroke: #cccccc; stroke-width: 0.8; stroke-linecap: round"/>
     </g>
     <g id="text_9">
      <!-- $\mathdefault{30}$ -->
      <g style="fill: #262626" transform="translate(7.2 218.144966)scale(0.14 -0.14)">
       <defs>
        <path id="CMR17-33" d="M 1414 2157 
C 1984 2157 2234 1662 2234 1090 
C 2234 320 1824 25 1453 25 
C 1114 25 563 194 390 693 
C 422 680 454 680 486 680 
C 640 680 755 782 755 948 
C 755 1133 614 1216 486 1216 
C 378 1216 211 1165 211 926 
C 211 335 787 -128 1466 -128 
C 2176 -128 2720 430 2720 1085 
C 2720 1707 2208 2157 1600 2227 
C 2086 2328 2554 2756 2554 3329 
C 2554 3820 2048 4179 1472 4179 
C 890 4179 378 3829 378 3329 
C 378 3110 544 3072 627 3072 
C 762 3072 877 3155 877 3321 
C 877 3486 762 3569 627 3569 
C 602 3569 570 3569 544 3557 
C 730 3959 1235 4032 1459 4032 
C 1683 4032 2106 3925 2106 3320 
C 2106 3143 2080 2828 1862 2550 
C 1670 2304 1453 2304 1242 2284 
C 1210 2284 1062 2269 1037 2269 
C 992 2263 966 2257 966 2208 
C 966 2163 973 2157 1101 2157 
L 1414 2157 
z
" transform="scale(0.015625)"/>
       </defs>
       <use xlink:href="#CMR17-33" transform="scale(0.996264)"/>
       <use xlink:href="#CMR17-30" transform="translate(45.690477 0)scale(0.996264)"/>
      </g>
     </g>
    </g>
    <g id="ytick_5">
     <g id="line2d_9">
      <path d="M 27.856977 182.878447 
L 384.976977 182.878447 
" clip-path="url(#p66ae7b3ec8)" style="fill: none; stroke: #cccccc; stroke-width: 0.8; stroke-linecap: round"/>
     </g>
     <g id="text_10">
      <!-- $\mathdefault{40}$ -->
      <g style="fill: #262626" transform="translate(7.2 187.721386)scale(0.14 -0.14)">
       <use xlink:href="#CMR17-34" transform="scale(0.996264)"/>
       <use xlink:href="#CMR17-30" transform="translate(45.690477 0)scale(0.996264)"/>
      </g>
     </g>
    </g>
    <g id="ytick_6">
     <g id="line2d_10">
      <path d="M 27.856977 152.454867 
L 384.976977 152.454867 
" clip-path="url(#p66ae7b3ec8)" style="fill: none; stroke: #cccccc; stroke-width: 0.8; stroke-linecap: round"/>
     </g>
     <g id="text_11">
      <!-- $\mathdefault{50}$ -->
      <g style="fill: #262626" transform="translate(7.2 157.297806)scale(0.14 -0.14)">
       <defs>
        <path id="CMR17-35" d="M 730 3692 
C 794 3666 1056 3584 1325 3584 
C 1920 3584 2246 3911 2432 4100 
C 2432 4157 2432 4192 2394 4192 
C 2387 4192 2374 4192 2323 4163 
C 2099 4058 1837 3973 1517 3973 
C 1325 3973 1037 3999 723 4139 
C 653 4171 640 4171 634 4171 
C 602 4171 595 4164 595 4037 
L 595 2203 
C 595 2089 595 2057 659 2057 
C 691 2057 704 2070 736 2114 
C 941 2401 1222 2522 1542 2522 
C 1766 2522 2246 2382 2246 1289 
C 2246 1085 2246 715 2054 421 
C 1894 159 1645 25 1370 25 
C 947 25 518 320 403 814 
C 429 807 480 795 506 795 
C 589 795 749 840 749 1038 
C 749 1210 627 1280 506 1280 
C 358 1280 262 1190 262 1011 
C 262 454 704 -128 1382 -128 
C 2042 -128 2669 440 2669 1264 
C 2669 2030 2170 2624 1549 2624 
C 1222 2624 947 2503 730 2274 
L 730 3692 
z
" transform="scale(0.015625)"/>
       </defs>
       <use xlink:href="#CMR17-35" transform="scale(0.996264)"/>
       <use xlink:href="#CMR17-30" transform="translate(45.690477 0)scale(0.996264)"/>
      </g>
     </g>
    </g>
    <g id="ytick_7">
     <g id="line2d_11">
      <path d="M 27.856977 122.031287 
L 384.976977 122.031287 
" clip-path="url(#p66ae7b3ec8)" style="fill: none; stroke: #cccccc; stroke-width: 0.8; stroke-linecap: round"/>
     </g>
     <g id="text_12">
      <!-- $\mathdefault{60}$ -->
      <g style="fill: #262626" transform="translate(7.2 126.874225)scale(0.14 -0.14)">
       <use xlink:href="#CMR17-36" transform="scale(0.996264)"/>
       <use xlink:href="#CMR17-30" transform="translate(45.690477 0)scale(0.996264)"/>
      </g>
     </g>
    </g>
    <g id="ytick_8">
     <g id="line2d_12">
      <path d="M 27.856977 91.607707 
L 384.976977 91.607707 
" clip-path="url(#p66ae7b3ec8)" style="fill: none; stroke: #cccccc; stroke-width: 0.8; stroke-linecap: round"/>
     </g>
     <g id="text_13">
      <!-- $\mathdefault{70}$ -->
      <g style="fill: #262626" transform="translate(7.2 96.450645)scale(0.14 -0.14)">
       <defs>
        <path id="CMR17-37" d="M 2886 3941 
L 2886 4081 
L 1382 4081 
C 634 4081 621 4165 595 4288 
L 480 4288 
L 294 3094 
L 410 3094 
C 429 3215 474 3540 550 3661 
C 589 3712 1062 3712 1171 3712 
L 2579 3712 
L 1869 2661 
C 1395 1954 1069 999 1069 165 
C 1069 89 1069 -128 1299 -128 
C 1530 -128 1530 89 1530 171 
L 1530 465 
C 1530 1508 1709 2196 2003 2636 
L 2886 3941 
z
" transform="scale(0.015625)"/>
       </defs>
       <use xlink:href="#CMR17-37" transform="scale(0.996264)"/>
       <use xlink:href="#CMR17-30" transform="translate(45.690477 0)scale(0.996264)"/>
      </g>
     </g>
    </g>
    <g id="ytick_9">
     <g id="line2d_13">
      <path d="M 27.856977 61.184127 
L 384.976977 61.184127 
" clip-path="url(#p66ae7b3ec8)" style="fill: none; stroke: #cccccc; stroke-width: 0.8; stroke-linecap: round"/>
     </g>
     <g id="text_14">
      <!-- $\mathdefault{80}$ -->
      <g style="fill: #262626" transform="translate(7.2 66.027065)scale(0.14 -0.14)">
       <use xlink:href="#CMR17-38" transform="scale(0.996264)"/>
       <use xlink:href="#CMR17-30" transform="translate(45.690477 0)scale(0.996264)"/>
      </g>
     </g>
    </g>
   </g>
   <g id="patch_3">
    <path d="M 44.089705 304.572768 
L 55.895324 304.572768 
L 55.895324 301.230291 
L 44.089705 301.230291 
z
" clip-path="url(#p66ae7b3ec8)" style="fill: #9988dd; stroke: #ffffff; stroke-linejoin: miter"/>
   </g>
   <g id="patch_4">
    <path d="M 132.631853 304.572768 
L 144.437473 304.572768 
L 144.437473 301.207637 
L 132.631853 301.207637 
z
" clip-path="url(#p66ae7b3ec8)" style="fill: #9988dd; stroke: #ffffff; stroke-linejoin: miter"/>
   </g>
   <g id="patch_5">
    <path d="M 221.174002 304.572768 
L 232.979622 304.572768 
L 232.979622 300.879006 
L 221.174002 300.879006 
z
" clip-path="url(#p66ae7b3ec8)" style="fill: #9988dd; stroke: #ffffff; stroke-linejoin: miter"/>
   </g>
   <g id="patch_6">
    <path d="M 309.716151 304.572768 
L 321.521771 304.572768 
L 321.521771 301.365627 
L 309.716151 301.365627 
z
" clip-path="url(#p66ae7b3ec8)" style="fill: #9988dd; stroke: #ffffff; stroke-linejoin: miter"/>
   </g>
   <g id="patch_7">
    <path d="M 55.895324 304.572768 
L 67.700944 304.572768 
L 67.700944 291.610872 
L 55.895324 291.610872 
z
" clip-path="url(#p66ae7b3ec8)" style="fill: #eecc55; stroke: #ffffff; stroke-linejoin: miter"/>
   </g>
   <g id="patch_8">
    <path d="M 144.437473 304.572768 
L 156.243093 304.572768 
L 156.243093 277.332573 
L 144.437473 277.332573 
z
" clip-path="url(#p66ae7b3ec8)" style="fill: #eecc55; stroke: #ffffff; stroke-linejoin: miter"/>
   </g>
   <g id="patch_9">
    <path d="M 232.979622 304.572768 
L 244.785242 304.572768 
L 244.785242 279.591273 
L 232.979622 279.591273 
z
" clip-path="url(#p66ae7b3ec8)" style="fill: #eecc55; stroke: #ffffff; stroke-linejoin: miter"/>
   </g>
   <g id="patch_10">
    <path d="M 321.521771 304.572768 
L 333.32739 304.572768 
L 333.32739 256.919473 
L 321.521771 256.919473 
z
" clip-path="url(#p66ae7b3ec8)" style="fill: #eecc55; stroke: #ffffff; stroke-linejoin: miter"/>
   </g>
   <g id="patch_11">
    <path d="M 67.700944 304.572768 
L 79.506564 304.572768 
L 79.506564 291.743789 
L 67.700944 291.743789 
z
" clip-path="url(#p66ae7b3ec8)" style="fill: #88bb44; stroke: #ffffff; stroke-linejoin: miter"/>
   </g>
   <g id="patch_12">
    <path d="M 156.243093 304.572768 
L 168.048713 304.572768 
L 168.048713 274.85564 
L 156.243093 274.85564 
z
" clip-path="url(#p66ae7b3ec8)" style="fill: #88bb44; stroke: #ffffff; stroke-linejoin: miter"/>
   </g>
   <g id="patch_13">
    <path d="M 244.785242 304.572768 
L 256.590862 304.572768 
L 256.590862 261.128898 
L 244.785242 261.128898 
z
" clip-path="url(#p66ae7b3ec8)" style="fill: #88bb44; stroke: #ffffff; stroke-linejoin: miter"/>
   </g>
   <g id="patch_14">
    <path d="M 333.32739 304.572768 
L 345.13301 304.572768 
L 345.13301 266.454036 
L 333.32739 266.454036 
z
" clip-path="url(#p66ae7b3ec8)" style="fill: #88bb44; stroke: #ffffff; stroke-linejoin: miter"/>
   </g>
   <g id="patch_15">
    <path d="M 79.506564 304.572768 
L 91.312184 304.572768 
L 91.312184 283.372761 
L 79.506564 283.372761 
z
" clip-path="url(#p66ae7b3ec8)" style="fill: #ffbbbb; stroke: #ffffff; stroke-linejoin: miter"/>
   </g>
   <g id="patch_16">
    <path d="M 168.048713 304.572768 
L 179.854333 304.572768 
L 179.854333 257.467084 
L 168.048713 257.467084 
z
" clip-path="url(#p66ae7b3ec8)" style="fill: #ffbbbb; stroke: #ffffff; stroke-linejoin: miter"/>
   </g>
   <g id="patch_17">
    <path d="M 256.590862 304.572768 
L 268.396481 304.572768 
L 268.396481 232.950547 
L 256.590862 232.950547 
z
" clip-path="url(#p66ae7b3ec8)" style="fill: #ffbbbb; stroke: #ffffff; stroke-linejoin: miter"/>
   </g>
   <g id="patch_18">
    <path d="M 345.13301 304.572768 
L 356.93863 304.572768 
L 356.93863 198.290282 
L 345.13301 198.290282 
z
" clip-path="url(#p66ae7b3ec8)" style="fill: #ffbbbb; stroke: #ffffff; stroke-linejoin: miter"/>
   </g>
   <g id="patch_19">
    <path d="M 91.312184 304.572768 
L 103.117804 304.572768 
L 103.117804 273.305984 
L 91.312184 273.305984 
z
" clip-path="url(#p66ae7b3ec8)" style="fill: #964b00; stroke: #ffffff; stroke-linejoin: miter"/>
   </g>
   <g id="patch_20">
    <path d="M 179.854333 304.572768 
L 191.659952 304.572768 
L 191.659952 231.346145 
L 179.854333 231.346145 
z
" clip-path="url(#p66ae7b3ec8)" style="fill: #964b00; stroke: #ffffff; stroke-linejoin: miter"/>
   </g>
   <g id="patch_21">
    <path d="M 268.396481 304.572768 
L 280.202101 304.572768 
L 280.202101 180.571731 
L 268.396481 180.571731 
z
" clip-path="url(#p66ae7b3ec8)" style="fill: #964b00; stroke: #ffffff; stroke-linejoin: miter"/>
   </g>
   <g id="patch_22">
    <path d="M 356.93863 304.572768 
L 368.74425 304.572768 
L 368.74425 69.797409 
L 356.93863 69.797409 
z
" clip-path="url(#p66ae7b3ec8)" style="fill: #964b00; stroke: #ffffff; stroke-linejoin: miter"/>
   </g>
   <g id="LineCollection_1">
    <path d="M 49.992514 301.234803 
L 49.992514 301.225778 
" clip-path="url(#p66ae7b3ec8)" style="fill: none; stroke: #000000"/>
    <path d="M 138.534663 301.271911 
L 138.534663 301.143363 
" clip-path="url(#p66ae7b3ec8)" style="fill: none; stroke: #000000"/>
    <path d="M 227.076812 301.213292 
L 227.076812 300.544721 
" clip-path="url(#p66ae7b3ec8)" style="fill: none; stroke: #000000"/>
    <path d="M 315.618961 301.636309 
L 315.618961 301.094944 
" clip-path="url(#p66ae7b3ec8)" style="fill: none; stroke: #000000"/>
   </g>
   <g id="line2d_14">
    <defs>
     <path id="m71bca722d3" d="M 5 0 
L -5 -0 
" style="stroke: #000000"/>
    </defs>
    <g clip-path="url(#p66ae7b3ec8)">
     <use xlink:href="#m71bca722d3" x="49.992514" y="301.234803" style="stroke: #000000"/>
     <use xlink:href="#m71bca722d3" x="138.534663" y="301.271911" style="stroke: #000000"/>
     <use xlink:href="#m71bca722d3" x="227.076812" y="301.213292" style="stroke: #000000"/>
     <use xlink:href="#m71bca722d3" x="315.618961" y="301.636309" style="stroke: #000000"/>
    </g>
   </g>
   <g id="line2d_15">
    <g clip-path="url(#p66ae7b3ec8)">
     <use xlink:href="#m71bca722d3" x="49.992514" y="301.225778" style="stroke: #000000"/>
     <use xlink:href="#m71bca722d3" x="138.534663" y="301.143363" style="stroke: #000000"/>
     <use xlink:href="#m71bca722d3" x="227.076812" y="300.544721" style="stroke: #000000"/>
     <use xlink:href="#m71bca722d3" x="315.618961" y="301.094944" style="stroke: #000000"/>
    </g>
   </g>
   <g id="LineCollection_2">
    <path d="M 61.798134 291.617055 
L 61.798134 291.604689 
" clip-path="url(#p66ae7b3ec8)" style="fill: none; stroke: #000000"/>
    <path d="M 150.340283 277.343986 
L 150.340283 277.321159 
" clip-path="url(#p66ae7b3ec8)" style="fill: none; stroke: #000000"/>
    <path d="M 238.882432 283.720714 
L 238.882432 275.461831 
" clip-path="url(#p66ae7b3ec8)" style="fill: none; stroke: #000000"/>
    <path d="M 327.424581 257.280685 
L 327.424581 256.558261 
" clip-path="url(#p66ae7b3ec8)" style="fill: none; stroke: #000000"/>
   </g>
   <g id="line2d_16">
    <g clip-path="url(#p66ae7b3ec8)">
     <use xlink:href="#m71bca722d3" x="61.798134" y="291.617055" style="stroke: #000000"/>
     <use xlink:href="#m71bca722d3" x="150.340283" y="277.343986" style="stroke: #000000"/>
     <use xlink:href="#m71bca722d3" x="238.882432" y="283.720714" style="stroke: #000000"/>
     <use xlink:href="#m71bca722d3" x="327.424581" y="257.280685" style="stroke: #000000"/>
    </g>
   </g>
   <g id="line2d_17">
    <g clip-path="url(#p66ae7b3ec8)">
     <use xlink:href="#m71bca722d3" x="61.798134" y="291.604689" style="stroke: #000000"/>
     <use xlink:href="#m71bca722d3" x="150.340283" y="277.321159" style="stroke: #000000"/>
     <use xlink:href="#m71bca722d3" x="238.882432" y="275.461831" style="stroke: #000000"/>
     <use xlink:href="#m71bca722d3" x="327.424581" y="256.558261" style="stroke: #000000"/>
    </g>
   </g>
   <g id="LineCollection_3">
    <path d="M 73.603754 291.748664 
L 73.603754 291.738914 
" clip-path="url(#p66ae7b3ec8)" style="fill: none; stroke: #000000"/>
    <path d="M 162.145903 274.873619 
L 162.145903 274.837661 
" clip-path="url(#p66ae7b3ec8)" style="fill: none; stroke: #000000"/>
    <path d="M 250.688052 261.505122 
L 250.688052 260.752674 
" clip-path="url(#p66ae7b3ec8)" style="fill: none; stroke: #000000"/>
    <path d="M 339.2302 266.861906 
L 339.2302 266.046165 
" clip-path="url(#p66ae7b3ec8)" style="fill: none; stroke: #000000"/>
   </g>
   <g id="line2d_18">
    <g clip-path="url(#p66ae7b3ec8)">
     <use xlink:href="#m71bca722d3" x="73.603754" y="291.748664" style="stroke: #000000"/>
     <use xlink:href="#m71bca722d3" x="162.145903" y="274.873619" style="stroke: #000000"/>
     <use xlink:href="#m71bca722d3" x="250.688052" y="261.505122" style="stroke: #000000"/>
     <use xlink:href="#m71bca722d3" x="339.2302" y="266.861906" style="stroke: #000000"/>
    </g>
   </g>
   <g id="line2d_19">
    <g clip-path="url(#p66ae7b3ec8)">
     <use xlink:href="#m71bca722d3" x="73.603754" y="291.738914" style="stroke: #000000"/>
     <use xlink:href="#m71bca722d3" x="162.145903" y="274.837661" style="stroke: #000000"/>
     <use xlink:href="#m71bca722d3" x="250.688052" y="260.752674" style="stroke: #000000"/>
     <use xlink:href="#m71bca722d3" x="339.2302" y="266.046165" style="stroke: #000000"/>
    </g>
   </g>
   <g id="LineCollection_4">
    <path d="M 85.409374 283.386562 
L 85.409374 283.35896 
" clip-path="url(#p66ae7b3ec8)" style="fill: none; stroke: #000000"/>
    <path d="M 173.951523 257.517958 
L 173.951523 257.41621 
" clip-path="url(#p66ae7b3ec8)" style="fill: none; stroke: #000000"/>
    <path d="M 262.493671 233.23059 
L 262.493671 232.670504 
" clip-path="url(#p66ae7b3ec8)" style="fill: none; stroke: #000000"/>
    <path d="M 351.03582 199.438133 
L 351.03582 197.142431 
" clip-path="url(#p66ae7b3ec8)" style="fill: none; stroke: #000000"/>
   </g>
   <g id="line2d_20">
    <g clip-path="url(#p66ae7b3ec8)">
     <use xlink:href="#m71bca722d3" x="85.409374" y="283.386562" style="stroke: #000000"/>
     <use xlink:href="#m71bca722d3" x="173.951523" y="257.517958" style="stroke: #000000"/>
     <use xlink:href="#m71bca722d3" x="262.493671" y="233.23059" style="stroke: #000000"/>
     <use xlink:href="#m71bca722d3" x="351.03582" y="199.438133" style="stroke: #000000"/>
    </g>
   </g>
   <g id="line2d_21">
    <g clip-path="url(#p66ae7b3ec8)">
     <use xlink:href="#m71bca722d3" x="85.409374" y="283.35896" style="stroke: #000000"/>
     <use xlink:href="#m71bca722d3" x="173.951523" y="257.41621" style="stroke: #000000"/>
     <use xlink:href="#m71bca722d3" x="262.493671" y="232.670504" style="stroke: #000000"/>
     <use xlink:href="#m71bca722d3" x="351.03582" y="197.142431" style="stroke: #000000"/>
    </g>
   </g>
   <g id="LineCollection_5">
    <path d="M 97.214994 273.315552 
L 97.214994 273.296416 
" clip-path="url(#p66ae7b3ec8)" style="fill: none; stroke: #000000"/>
    <path d="M 185.757143 231.484543 
L 185.757143 231.207747 
" clip-path="url(#p66ae7b3ec8)" style="fill: none; stroke: #000000"/>
    <path d="M 274.299291 180.869333 
L 274.299291 180.274128 
" clip-path="url(#p66ae7b3ec8)" style="fill: none; stroke: #000000"/>
    <path d="M 362.84144 88.46205 
L 362.84144 51.132768 
" clip-path="url(#p66ae7b3ec8)" style="fill: none; stroke: #000000"/>
   </g>
   <g id="line2d_22">
    <g clip-path="url(#p66ae7b3ec8)">
     <use xlink:href="#m71bca722d3" x="97.214994" y="273.315552" style="stroke: #000000"/>
     <use xlink:href="#m71bca722d3" x="185.757143" y="231.484543" style="stroke: #000000"/>
     <use xlink:href="#m71bca722d3" x="274.299291" y="180.869333" style="stroke: #000000"/>
     <use xlink:href="#m71bca722d3" x="362.84144" y="88.46205" style="stroke: #000000"/>
    </g>
   </g>
   <g id="line2d_23">
    <g clip-path="url(#p66ae7b3ec8)">
     <use xlink:href="#m71bca722d3" x="97.214994" y="273.296416" style="stroke: #000000"/>
     <use xlink:href="#m71bca722d3" x="185.757143" y="231.207747" style="stroke: #000000"/>
     <use xlink:href="#m71bca722d3" x="274.299291" y="180.274128" style="stroke: #000000"/>
     <use xlink:href="#m71bca722d3" x="362.84144" y="51.132768" style="stroke: #000000"/>
    </g>
   </g>
   <g id="patch_23">
    <path d="M 27.856977 304.572768 
L 27.856977 38.460768 
" style="fill: none; stroke: #cccccc; stroke-width: 0.8; stroke-linejoin: miter; stroke-linecap: square"/>
   </g>
   <g id="patch_24">
    <path d="M 384.976977 304.572768 
L 384.976977 38.460768 
" style="fill: none; stroke: #cccccc; stroke-width: 0.8; stroke-linejoin: miter; stroke-linecap: square"/>
   </g>
   <g id="patch_25">
    <path d="M 27.856977 304.572768 
L 384.976977 304.572768 
" style="fill: none; stroke: #cccccc; stroke-width: 0.8; stroke-linejoin: miter; stroke-linecap: square"/>
   </g>
   <g id="patch_26">
    <path d="M 27.856977 38.460768 
L 384.976977 38.460768 
" style="fill: none; stroke: #cccccc; stroke-width: 0.8; stroke-linejoin: miter; stroke-linecap: square"/>
   </g>
   <g id="text_15">
    <!-- $\mathrm{Speedup\ Ratio}$ -->
    <g transform="translate(27.856977 35.74874)scale(0.14 -0.14)">
     <defs>
      <path id="CMR17-53" d="M 2803 4290 
C 2803 4404 2797 4411 2758 4411 
C 2720 4411 2707 4385 2682 4328 
L 2490 3907 
C 2246 4257 1875 4416 1472 4416 
C 819 4416 294 3901 294 3253 
C 294 3056 339 2776 557 2510 
C 794 2218 1018 2167 1530 2033 
C 1722 1982 2042 1899 2106 1874 
C 2470 1722 2662 1341 2662 985 
C 2662 527 2336 38 1779 38 
C 1094 38 454 419 410 1311 
C 403 1413 397 1419 352 1419 
C 301 1419 294 1413 294 1285 
L 294 -1 
C 294 -115 301 -122 339 -122 
C 384 -122 397 -90 486 108 
C 493 127 493 140 614 381 
C 934 -39 1472 -128 1779 -128 
C 2477 -128 2970 451 2970 1124 
C 2970 1454 2848 1708 2778 1823 
C 2509 2230 2221 2306 1914 2382 
C 1869 2402 1856 2402 1498 2490 
C 1152 2579 1005 2624 845 2796 
C 666 2992 602 3196 602 3399 
C 602 3812 934 4263 1478 4263 
C 2157 4263 2579 3786 2675 2993 
C 2694 2878 2701 2872 2746 2872 
C 2803 2872 2803 2891 2803 2999 
L 2803 4290 
z
" transform="scale(0.015625)"/>
      <path id="CMR17-70" d="M 1408 -1063 
C 998 -1063 973 -1037 973 -789 
L 973 402 
C 1158 134 1427 -38 1766 -38 
C 2406 -38 3053 523 3053 1388 
C 3053 2191 2496 2802 1837 2802 
C 1453 2802 1139 2592 960 2338 
L 960 2802 
L 198 2732 
L 198 2567 
C 576 2567 634 2528 634 2223 
L 634 -789 
C 634 -1031 608 -1063 198 -1063 
L 198 -1228 
C 352 -1216 634 -1216 800 -1216 
C 966 -1216 1254 -1216 1408 -1228 
L 1408 -1063 
z
M 973 2012 
C 973 2102 973 2235 1222 2471 
C 1254 2497 1472 2688 1792 2688 
C 2259 2688 2643 2108 2643 1382 
C 2643 656 2234 64 1728 64 
C 1498 64 1248 172 1056 472 
C 973 612 973 650 973 752 
L 973 2012 
z
" transform="scale(0.015625)"/>
      <path id="CMR17-64" d="M 1869 4326 
L 1869 4160 
C 2246 4160 2304 4122 2304 3820 
L 2304 2345 
C 2278 2377 2016 2790 1498 2790 
C 845 2790 211 2208 211 1364 
C 211 525 806 -64 1434 -64 
C 1978 -64 2259 337 2291 380 
L 2291 -63 
L 3066 -63 
L 3066 128 
C 2688 128 2630 166 2630 473 
L 2630 4396 
L 1869 4326 
z
M 2291 755 
C 2291 563 2176 390 2029 262 
C 1811 70 1594 38 1472 38 
C 1286 38 621 134 621 1356 
C 621 2612 1363 2688 1530 2688 
C 1824 2688 2061 2522 2208 2291 
C 2291 2157 2291 2138 2291 2023 
L 2291 755 
z
" transform="scale(0.015625)"/>
      <path id="CMR17-52" d="M 2509 2146 
C 3117 2268 3629 2676 3629 3186 
C 3629 3785 2950 4326 2054 4326 
L 333 4326 
L 333 4160 
C 774 4160 845 4160 845 3873 
L 845 415 
C 845 128 774 128 333 128 
L 333 -26 
C 518 -26 851 -26 1050 -26 
C 1248 -26 1581 -26 1766 -26 
L 1766 128 
C 1325 128 1254 128 1254 417 
L 1254 2112 
L 2003 2112 
C 2368 2112 2573 1964 2662 1881 
C 2918 1632 2918 1459 2918 1024 
C 2918 595 2918 377 3110 160 
C 3354 -102 3680 -128 3821 -128 
C 4294 -128 4365 396 4365 503 
C 4365 540 4365 585 4307 585 
C 4256 585 4250 547 4250 522 
C 4218 112 4032 -26 3834 -26 
C 3482 -26 3443 375 3405 764 
C 3386 898 3373 993 3360 1133 
C 3322 1452 3270 1917 2509 2146 
z
M 1984 2214 
L 1254 2214 
L 1254 3913 
C 1254 4129 1267 4160 1523 4160 
L 1990 4160 
C 2522 4160 3142 3977 3142 3190 
C 3142 2372 2464 2214 1984 2214 
z
" transform="scale(0.015625)"/>
      <path id="CMR17-69" d="M 992 3909 
C 992 4049 877 4170 730 4170 
C 589 4170 467 4056 467 3909 
C 467 3769 582 3648 730 3648 
C 870 3648 992 3763 992 3909 
z
M 243 2706 
L 243 2541 
C 602 2541 653 2502 653 2197 
L 653 427 
C 653 184 627 153 218 153 
L 218 -13 
C 371 0 646 0 806 0 
C 960 0 1222 0 1370 -13 
L 1370 153 
C 992 153 979 191 979 420 
L 979 2776 
L 243 2706 
z
" transform="scale(0.015625)"/>
      <path id="CMR17-6f" d="M 2758 1356 
C 2758 2176 2163 2816 1466 2816 
C 768 2816 173 2176 173 1356 
C 173 551 768 -64 1466 -64 
C 2163 -64 2758 551 2758 1356 
z
M 1466 51 
C 1165 51 909 230 762 480 
C 602 767 582 1126 582 1408 
C 582 1677 595 2010 762 2298 
C 890 2509 1139 2714 1466 2714 
C 1754 2714 1997 2554 2150 2330 
C 2349 2029 2349 1607 2349 1408 
C 2349 1158 2336 775 2163 467 
C 1984 173 1709 51 1466 51 
z
" transform="scale(0.015625)"/>
     </defs>
     <use xlink:href="#CMR17-53" transform="scale(0.996264)"/>
     <use xlink:href="#CMR17-70" transform="translate(50.89537 0)scale(0.996264)"/>
     <use xlink:href="#CMR17-65" transform="translate(104.393178 0)scale(0.996264)"/>
     <use xlink:href="#CMR17-65" transform="translate(144.878839 0)scale(0.996264)"/>
     <use xlink:href="#CMR17-64" transform="translate(185.364499 0)scale(0.996264)"/>
     <use xlink:href="#CMR17-75" transform="translate(236.259869 0)scale(0.996264)"/>
     <use xlink:href="#CMR17-70" transform="translate(287.155239 0)scale(0.996264)"/>
     <use xlink:href="#CMR17-52" transform="translate(369.279721 0)scale(0.996264)"/>
     <use xlink:href="#CMR17-61" transform="translate(437.070823 0)scale(0.996264)"/>
     <use xlink:href="#CMR17-74" transform="translate(482.7613 0)scale(0.996264)"/>
     <use xlink:href="#CMR17-69" transform="translate(518.042068 0)scale(0.996264)"/>
     <use xlink:href="#CMR17-6f" transform="translate(542.913127 0)scale(0.996264)"/>
    </g>
   </g>
   <g id="text_16">
    <!-- $\mathrm{Speedup\ Ratio\ over\ "polyvest"\ (time)}$ -->
    <g style="fill: #262626" transform="translate(27.856977 19.155168)scale(0.16 -0.16)">
     <defs>
      <path id="CMR17-76" d="M 2502 2163 
C 2560 2304 2662 2560 3034 2560 
L 3034 2726 
C 2912 2726 2752 2726 2630 2726 
C 2496 2726 2285 2726 2157 2732 
L 2157 2566 
C 2317 2553 2406 2477 2406 2311 
C 2406 2253 2406 2240 2368 2151 
L 1664 377 
L 902 2286 
C 864 2369 864 2381 864 2407 
C 864 2560 1075 2560 1171 2560 
L 1171 2732 
C 1018 2726 736 2726 576 2726 
C 403 2726 205 2726 64 2732 
L 64 2560 
C 307 2560 442 2560 518 2362 
L 1446 44 
C 1485 -51 1491 -64 1549 -64 
C 1606 -64 1613 -51 1651 44 
L 2502 2163 
z
" transform="scale(0.015625)"/>
      <path id="CMR17-72" d="M 960 1497 
C 960 2112 1222 2688 1702 2688 
C 1747 2688 1792 2682 1837 2662 
C 1837 2662 1696 2617 1696 2452 
C 1696 2298 1818 2234 1914 2234 
C 1990 2234 2131 2279 2131 2458 
C 2131 2663 1926 2790 1709 2790 
C 1222 2790 1011 2317 947 2093 
L 941 2093 
L 941 2790 
L 198 2720 
L 198 2554 
C 576 2554 634 2515 634 2208 
L 634 428 
C 634 184 608 153 198 153 
L 198 -13 
C 352 0 646 0 813 0 
C 998 0 1325 0 1498 -13 
L 1498 153 
C 1037 153 960 153 960 440 
L 960 1497 
z
" transform="scale(0.015625)"/>
      <path id="CMR17-22" d="M 646 4025 
C 659 3955 666 3929 666 3820 
C 666 3415 506 3042 256 2778 
C 230 2752 218 2733 218 2707 
C 218 2681 243 2656 269 2656 
C 314 2656 768 3105 768 3811 
C 768 3952 755 4426 422 4426 
C 282 4426 160 4331 160 4165 
C 160 3999 282 3904 422 3904 
C 480 3904 589 3923 646 4025 
z
M 1818 4025 
C 1830 3955 1837 3929 1837 3820 
C 1837 3415 1677 3042 1427 2778 
C 1402 2752 1389 2733 1389 2707 
C 1389 2681 1414 2656 1440 2656 
C 1485 2656 1939 3105 1939 3811 
C 1939 3952 1926 4426 1594 4426 
C 1453 4426 1331 4331 1331 4165 
C 1331 3999 1453 3904 1594 3904 
C 1651 3904 1760 3923 1818 4025 
z
" transform="scale(0.015625)"/>
      <path id="CMR17-6c" d="M 979 4396 
L 218 4326 
L 218 4160 
C 595 4160 653 4122 653 3817 
L 653 426 
C 653 184 627 153 218 153 
L 218 -13 
C 371 0 653 0 813 0 
C 979 0 1261 0 1414 -13 
L 1414 153 
C 1005 153 979 178 979 426 
L 979 4396 
z
" transform="scale(0.015625)"/>
      <path id="CMR17-79" d="M 2496 2197 
C 2656 2586 2944 2586 3034 2586 
L 3034 2752 
C 2912 2752 2752 2752 2630 2752 
C 2496 2752 2285 2752 2157 2758 
L 2157 2592 
C 2400 2573 2406 2394 2406 2343 
C 2406 2280 2394 2248 2362 2171 
L 1664 449 
L 902 2306 
C 870 2382 870 2426 870 2433 
C 870 2573 1018 2586 1171 2586 
L 1171 2758 
C 1018 2752 742 2752 582 2752 
C 410 2752 205 2752 64 2758 
L 64 2586 
C 410 2586 448 2554 531 2350 
L 1485 15 
C 1197 -738 1030 -1178 627 -1178 
C 557 -1178 397 -1159 282 -1044 
C 429 -1031 493 -942 493 -833 
C 493 -725 416 -629 288 -629 
C 147 -629 77 -725 77 -840 
C 77 -1095 339 -1280 627 -1280 
C 998 -1280 1229 -922 1357 -604 
L 2496 2197 
z
" transform="scale(0.015625)"/>
      <path id="CMR17-28" d="M 1958 -1561 
C 1958 -1555 1958 -1542 1939 -1523 
C 1645 -1224 858 -407 858 1581 
C 858 3569 1632 4379 1946 4697 
C 1946 4704 1958 4717 1958 4736 
C 1958 4755 1939 4768 1914 4768 
C 1843 4768 1299 4296 986 3594 
C 666 2887 576 2199 576 1588 
C 576 1128 621 351 1005 -471 
C 1312 -1135 1837 -1600 1914 -1600 
C 1946 -1600 1958 -1587 1958 -1561 
z
" transform="scale(0.015625)"/>
      <path id="CMR17-6d" d="M 4326 1933 
C 4326 2252 4269 2790 3507 2790 
C 3072 2790 2771 2496 2656 2151 
L 2650 2151 
C 2573 2676 2195 2790 1837 2790 
C 1331 2790 1069 2400 973 2144 
L 966 2144 
L 966 2790 
L 211 2720 
L 211 2554 
C 589 2554 646 2515 646 2208 
L 646 428 
C 646 184 621 153 211 153 
L 211 -13 
C 365 0 646 0 813 0 
C 979 0 1267 0 1421 -13 
L 1421 153 
C 1011 153 986 178 986 428 
L 986 1658 
C 986 2247 1344 2688 1792 2688 
C 2266 2688 2317 2266 2317 1958 
L 2317 428 
C 2317 184 2291 153 1882 153 
L 1882 -13 
C 2035 0 2317 0 2483 0 
C 2650 0 2938 0 3091 -13 
L 3091 153 
C 2682 153 2656 178 2656 428 
L 2656 1658 
C 2656 2247 3014 2688 3462 2688 
C 3936 2688 3987 2266 3987 1958 
L 3987 428 
C 3987 184 3962 153 3552 153 
L 3552 -13 
C 3706 0 3987 0 4154 0 
C 4320 0 4608 0 4762 -13 
L 4762 153 
C 4352 153 4326 178 4326 428 
L 4326 1933 
z
" transform="scale(0.015625)"/>
      <path id="CMR17-29" d="M 1683 1581 
C 1683 2040 1638 2817 1254 3639 
C 947 4303 422 4768 346 4768 
C 326 4768 301 4761 301 4729 
C 301 4717 307 4710 314 4697 
C 621 4378 1402 3568 1402 1584 
C 1402 -407 627 -1217 314 -1537 
C 307 -1549 301 -1556 301 -1568 
C 301 -1600 326 -1600 346 -1600 
C 416 -1600 960 -1128 1274 -426 
C 1594 281 1683 969 1683 1581 
z
" transform="scale(0.015625)"/>
     </defs>
     <use xlink:href="#CMR17-53" transform="scale(0.996264)"/>
     <use xlink:href="#CMR17-70" transform="translate(50.89537 0)scale(0.996264)"/>
     <use xlink:href="#CMR17-65" transform="translate(104.393178 0)scale(0.996264)"/>
     <use xlink:href="#CMR17-65" transform="translate(144.878839 0)scale(0.996264)"/>
     <use xlink:href="#CMR17-64" transform="translate(185.364499 0)scale(0.996264)"/>
     <use xlink:href="#CMR17-75" transform="translate(236.259869 0)scale(0.996264)"/>
     <use xlink:href="#CMR17-70" transform="translate(287.155239 0)scale(0.996264)"/>
     <use xlink:href="#CMR17-52" transform="translate(369.279721 0)scale(0.996264)"/>
     <use xlink:href="#CMR17-61" transform="translate(437.070823 0)scale(0.996264)"/>
     <use xlink:href="#CMR17-74" transform="translate(482.7613 0)scale(0.996264)"/>
     <use xlink:href="#CMR17-69" transform="translate(518.042068 0)scale(0.996264)"/>
     <use xlink:href="#CMR17-6f" transform="translate(542.913127 0)scale(0.996264)"/>
     <use xlink:href="#CMR17-6f" transform="translate(619.832717 0)scale(0.996264)"/>
     <use xlink:href="#CMR17-76" transform="translate(662.92074 0)scale(0.996264)"/>
     <use xlink:href="#CMR17-65" transform="translate(708.611202 0)scale(0.996264)"/>
     <use xlink:href="#CMR17-72" transform="translate(749.096862 0)scale(0.996264)"/>
     <use xlink:href="#CMR17-22" transform="translate(815.606743 0)scale(0.996264)"/>
     <use xlink:href="#CMR17-70" transform="translate(861.29722 0)scale(0.996264)"/>
     <use xlink:href="#CMR17-6f" transform="translate(914.795028 0)scale(0.996264)"/>
     <use xlink:href="#CMR17-6c" transform="translate(960.485505 0)scale(0.996264)"/>
     <use xlink:href="#CMR17-79" transform="translate(985.356564 0)scale(0.996264)"/>
     <use xlink:href="#CMR17-76" transform="translate(1033.64948 0)scale(0.996264)"/>
     <use xlink:href="#CMR17-65" transform="translate(1079.339942 0)scale(0.996264)"/>
     <use xlink:href="#CMR17-73" transform="translate(1119.825602 0)scale(0.996264)"/>
     <use xlink:href="#CMR17-74" transform="translate(1155.62694 0)scale(0.996264)"/>
     <use xlink:href="#CMR17-22" transform="translate(1190.907708 0)scale(0.996264)"/>
     <use xlink:href="#CMR17-28" transform="translate(1267.827297 0)scale(0.996264)"/>
     <use xlink:href="#CMR17-74" transform="translate(1303.108065 0)scale(0.996264)"/>
     <use xlink:href="#CMR17-69" transform="translate(1338.388833 0)scale(0.996264)"/>
     <use xlink:href="#CMR17-6d" transform="translate(1363.259891 0)scale(0.996264)"/>
     <use xlink:href="#CMR17-65" transform="translate(1440.179481 0)scale(0.996264)"/>
     <use xlink:href="#CMR17-29" transform="translate(1480.665142 0)scale(0.996264)"/>
    </g>
   </g>
   <g id="legend_1">
    <g id="patch_27">
     <path d="M 38.256977 133.683747 
L 170.044688 133.683747 
Q 172.444688 133.683747 172.444688 131.283747 
L 172.444688 48.860768 
Q 172.444688 46.460768 170.044688 46.460768 
L 38.256977 46.460768 
Q 35.856977 46.460768 35.856977 48.860768 
L 35.856977 131.283747 
Q 35.856977 133.683747 38.256977 133.683747 
z
" style="fill: #4c4c4c; opacity: 0.5; stroke: #4c4c4c; stroke-linejoin: miter"/>
    </g>
    <g id="patch_28">
     <path d="M 36.256977 131.683747 
L 168.044688 131.683747 
Q 170.444688 131.683747 170.444688 129.283747 
L 170.444688 46.860768 
Q 170.444688 44.460768 168.044688 44.460768 
L 36.256977 44.460768 
Q 33.856977 44.460768 33.856977 46.860768 
L 33.856977 129.283747 
Q 33.856977 131.683747 36.256977 131.683747 
z
" style="fill: #ffffff; stroke: #cccccc; stroke-linejoin: miter"/>
    </g>
    <g id="patch_29">
     <path d="M 38.656977 57.660768 
L 62.656977 57.660768 
L 62.656977 49.260768 
L 38.656977 49.260768 
z
" style="fill: #9988dd; stroke: #ffffff; stroke-linejoin: miter"/>
    </g>
    <g id="text_17">
     <!-- $\mathrm{bound\ remove}$ -->
     <g style="fill: #262626" transform="translate(72.256977 57.660768)scale(0.12 -0.12)">
      <defs>
       <path id="CMR17-6e" d="M 2656 1933 
C 2656 2259 2592 2790 1837 2790 
C 1331 2790 1069 2400 973 2144 
L 966 2144 
L 966 2790 
L 211 2720 
L 211 2554 
C 589 2554 646 2515 646 2208 
L 646 428 
C 646 184 621 153 211 153 
L 211 -13 
C 365 0 646 0 813 0 
C 979 0 1267 0 1421 -13 
L 1421 153 
C 1011 153 986 178 986 428 
L 986 1658 
C 986 2247 1344 2688 1792 2688 
C 2266 2688 2317 2266 2317 1958 
L 2317 428 
C 2317 184 2291 153 1882 153 
L 1882 -13 
C 2035 0 2317 0 2483 0 
C 2650 0 2938 0 3091 -13 
L 3091 153 
C 2682 153 2656 178 2656 428 
L 2656 1933 
z
" transform="scale(0.015625)"/>
      </defs>
      <use xlink:href="#CMR17-62" transform="scale(0.996264)"/>
      <use xlink:href="#CMR17-6f" transform="translate(53.497809 0)scale(0.996264)"/>
      <use xlink:href="#CMR17-75" transform="translate(99.188286 0)scale(0.996264)"/>
      <use xlink:href="#CMR17-6e" transform="translate(150.083655 0)scale(0.996264)"/>
      <use xlink:href="#CMR17-64" transform="translate(200.979025 0)scale(0.996264)"/>
      <use xlink:href="#CMR17-72" transform="translate(283.103508 0)scale(0.996264)"/>
      <use xlink:href="#CMR17-65" transform="translate(318.384276 0)scale(0.996264)"/>
      <use xlink:href="#CMR17-6d" transform="translate(358.869936 0)scale(0.996264)"/>
      <use xlink:href="#CMR17-6f" transform="translate(435.789526 0)scale(0.996264)"/>
      <use xlink:href="#CMR17-76" transform="translate(478.877549 0)scale(0.996264)"/>
      <use xlink:href="#CMR17-65" transform="translate(524.568011 0)scale(0.996264)"/>
     </g>
    </g>
    <g id="patch_30">
     <path d="M 38.656977 74.385364 
L 62.656977 74.385364 
L 62.656977 65.985364 
L 38.656977 65.985364 
z
" style="fill: #eecc55; stroke: #ffffff; stroke-linejoin: miter"/>
    </g>
    <g id="text_18">
     <!-- $\mathrm{fast\ linalg}$ -->
     <g style="fill: #262626" transform="translate(72.256977 74.385364)scale(0.12 -0.12)">
      <defs>
       <path id="CMR17-66" d="M 979 2560 
L 1709 2560 
L 1709 2725 
L 966 2725 
L 966 3494 
C 966 4022 1235 4352 1510 4352 
C 1594 4352 1690 4327 1754 4282 
C 1702 4269 1568 4225 1568 4067 
C 1568 3901 1696 3850 1786 3850 
C 1875 3850 2003 3901 2003 4067 
C 2003 4308 1773 4454 1517 4454 
C 1152 4454 653 4156 653 3481 
L 653 2725 
L 141 2725 
L 141 2560 
L 653 2560 
L 653 427 
C 653 184 627 153 218 153 
L 218 -13 
C 371 0 666 0 832 0 
C 1018 0 1344 0 1517 -13 
L 1517 153 
C 1056 153 979 153 979 439 
L 979 2560 
z
" transform="scale(0.015625)"/>
       <path id="CMR17-67" d="M 710 1164 
C 832 1068 1043 960 1299 960 
C 1805 960 2240 1357 2240 1888 
C 2240 2054 2189 2310 1997 2509 
C 2176 2692 2438 2752 2586 2752 
C 2611 2752 2650 2752 2682 2734 
C 2656 2728 2598 2703 2598 2605 
C 2598 2527 2656 2471 2739 2471 
C 2835 2471 2886 2533 2886 2614 
C 2886 2731 2790 2854 2586 2854 
C 2330 2854 2106 2738 1926 2580 
C 1734 2753 1504 2816 1299 2816 
C 794 2816 358 2419 358 1888 
C 358 1522 570 1292 634 1228 
C 442 1004 442 743 442 711 
C 442 545 506 302 723 168 
C 390 85 128 -169 128 -486 
C 128 -943 736 -1280 1466 -1280 
C 2170 -1280 2803 -956 2803 -479 
C 2803 384 1856 384 1363 384 
C 1216 384 954 384 922 391 
C 723 423 589 602 589 826 
C 589 883 589 1024 710 1164 
z
M 1299 1068 
C 736 1068 736 1760 736 1889 
C 736 2016 736 2708 1299 2708 
C 1862 2708 1862 2016 1862 1889 
C 1862 1760 1862 1068 1299 1068 
z
M 1466 -1171 
C 826 -1171 384 -835 384 -486 
C 384 -289 493 -105 634 -4 
C 794 104 858 104 1293 104 
C 1818 104 2547 104 2547 -486 
C 2547 -835 2106 -1171 1466 -1171 
z
" transform="scale(0.015625)"/>
      </defs>
      <use xlink:href="#CMR17-66" transform="scale(0.996264)"/>
      <use xlink:href="#CMR17-61" transform="translate(27.473512 0)scale(0.996264)"/>
      <use xlink:href="#CMR17-73" transform="translate(73.16399 0)scale(0.996264)"/>
      <use xlink:href="#CMR17-74" transform="translate(108.965327 0)scale(0.996264)"/>
      <use xlink:href="#CMR17-6c" transform="translate(175.475208 0)scale(0.996264)"/>
      <use xlink:href="#CMR17-69" transform="translate(200.346266 0)scale(0.996264)"/>
      <use xlink:href="#CMR17-6e" transform="translate(225.217325 0)scale(0.996264)"/>
      <use xlink:href="#CMR17-61" transform="translate(276.112694 0)scale(0.996264)"/>
      <use xlink:href="#CMR17-6c" transform="translate(321.803172 0)scale(0.996264)"/>
      <use xlink:href="#CMR17-67" transform="translate(346.67423 0)scale(0.996264)"/>
     </g>
    </g>
    <g id="patch_31">
     <path d="M 38.656977 91.10996 
L 62.656977 91.10996 
L 62.656977 82.70996 
L 38.656977 82.70996 
z
" style="fill: #88bb44; stroke: #ffffff; stroke-linejoin: miter"/>
    </g>
    <g id="text_19">
     <!-- $\mathrm{vecplusextraoptim}$ -->
     <g style="fill: #262626" transform="translate(72.256977 91.10996)scale(0.12 -0.12)">
      <defs>
       <path id="CMR17-78" d="M 1664 1477 
C 1856 1726 2074 2006 2253 2216 
C 2464 2458 2707 2560 2989 2560 
L 2989 2726 
C 2880 2726 2656 2726 2541 2726 
C 2368 2726 2170 2726 2022 2732 
L 2022 2566 
C 2112 2553 2163 2489 2163 2400 
C 2163 2285 2099 2215 2067 2171 
L 1594 1573 
L 1030 2306 
C 973 2376 973 2388 973 2420 
C 973 2497 1037 2560 1146 2560 
L 1146 2732 
C 992 2726 717 2726 557 2726 
C 384 2726 179 2726 38 2732 
L 38 2560 
C 384 2560 461 2534 614 2343 
L 1350 1395 
C 1363 1382 1395 1344 1395 1325 
C 1395 1299 838 619 768 530 
C 480 185 179 160 6 160 
L 6 0 
C 115 0 339 0 454 0 
C 582 0 864 0 979 -6 
L 979 160 
C 941 166 838 179 838 325 
C 838 440 890 510 947 586 
L 1478 1236 
L 2035 512 
C 2086 442 2163 346 2163 301 
C 2163 211 2086 160 1984 160 
L 1984 -6 
C 2138 0 2413 0 2573 0 
C 2746 0 2950 0 3091 -6 
L 3091 160 
C 2771 160 2675 172 2522 370 
L 1664 1477 
z
" transform="scale(0.015625)"/>
      </defs>
      <use xlink:href="#CMR17-76" transform="scale(0.996264)"/>
      <use xlink:href="#CMR17-65" transform="translate(45.690462 0)scale(0.996264)"/>
      <use xlink:href="#CMR17-63" transform="translate(86.176122 0)scale(0.996264)"/>
      <use xlink:href="#CMR17-70" transform="translate(126.661783 0)scale(0.996264)"/>
      <use xlink:href="#CMR17-6c" transform="translate(177.557153 0)scale(0.996264)"/>
      <use xlink:href="#CMR17-75" transform="translate(202.428211 0)scale(0.996264)"/>
      <use xlink:href="#CMR17-73" transform="translate(253.323581 0)scale(0.996264)"/>
      <use xlink:href="#CMR17-65" transform="translate(289.124919 0)scale(0.996264)"/>
      <use xlink:href="#CMR17-78" transform="translate(329.610579 0)scale(0.996264)"/>
      <use xlink:href="#CMR17-74" transform="translate(377.903495 0)scale(0.996264)"/>
      <use xlink:href="#CMR17-72" transform="translate(413.184263 0)scale(0.996264)"/>
      <use xlink:href="#CMR17-61" transform="translate(448.46503 0)scale(0.996264)"/>
      <use xlink:href="#CMR17-6f" transform="translate(494.155508 0)scale(0.996264)"/>
      <use xlink:href="#CMR17-70" transform="translate(539.845985 0)scale(0.996264)"/>
      <use xlink:href="#CMR17-74" transform="translate(590.741354 0)scale(0.996264)"/>
      <use xlink:href="#CMR17-69" transform="translate(626.022122 0)scale(0.996264)"/>
      <use xlink:href="#CMR17-6d" transform="translate(650.893181 0)scale(0.996264)"/>
     </g>
    </g>
    <g id="patch_32">
     <path d="M 38.656977 107.834555 
L 62.656977 107.834555 
L 62.656977 99.434555 
L 38.656977 99.434555 
z
" style="fill: #ffbbbb; stroke: #ffffff; stroke-linejoin: miter"/>
    </g>
    <g id="text_20">
     <!-- $\mathrm{aligned\ vec}$ -->
     <g style="fill: #262626" transform="translate(72.256977 107.834555)scale(0.12 -0.12)">
      <use xlink:href="#CMR17-61" transform="scale(0.996264)"/>
      <use xlink:href="#CMR17-6c" transform="translate(45.690477 0)scale(0.996264)"/>
      <use xlink:href="#CMR17-69" transform="translate(70.561536 0)scale(0.996264)"/>
      <use xlink:href="#CMR17-67" transform="translate(95.432594 0)scale(0.996264)"/>
      <use xlink:href="#CMR17-6e" transform="translate(141.123071 0)scale(0.996264)"/>
      <use xlink:href="#CMR17-65" transform="translate(192.018441 0)scale(0.996264)"/>
      <use xlink:href="#CMR17-64" transform="translate(232.504101 0)scale(0.996264)"/>
      <use xlink:href="#CMR17-76" transform="translate(314.628584 0)scale(0.996264)"/>
      <use xlink:href="#CMR17-65" transform="translate(360.319046 0)scale(0.996264)"/>
      <use xlink:href="#CMR17-63" transform="translate(400.804706 0)scale(0.996264)"/>
     </g>
    </g>
    <g id="patch_33">
     <path d="M 38.656977 124.559151 
L 62.656977 124.559151 
L 62.656977 116.159151 
L 38.656977 116.159151 
z
" style="fill: #964b00; stroke: #ffffff; stroke-linejoin: miter"/>
    </g>
    <g id="text_21">
     <!-- $\mathrm{reduce\ precision}$ -->
     <g style="fill: #262626" transform="translate(72.256977 124.559151)scale(0.12 -0.12)">
      <use xlink:href="#CMR17-72" transform="scale(0.996264)"/>
      <use xlink:href="#CMR17-65" transform="translate(35.280768 0)scale(0.996264)"/>
      <use xlink:href="#CMR17-64" transform="translate(75.766428 0)scale(0.996264)"/>
      <use xlink:href="#CMR17-75" transform="translate(126.661798 0)scale(0.996264)"/>
      <use xlink:href="#CMR17-63" transform="translate(177.557168 0)scale(0.996264)"/>
      <use xlink:href="#CMR17-65" transform="translate(218.042828 0)scale(0.996264)"/>
      <use xlink:href="#CMR17-70" transform="translate(289.757601 0)scale(0.996264)"/>
      <use xlink:href="#CMR17-72" transform="translate(340.652971 0)scale(0.996264)"/>
      <use xlink:href="#CMR17-65" transform="translate(375.933739 0)scale(0.996264)"/>
      <use xlink:href="#CMR17-63" transform="translate(416.4194 0)scale(0.996264)"/>
      <use xlink:href="#CMR17-69" transform="translate(456.90506 0)scale(0.996264)"/>
      <use xlink:href="#CMR17-73" transform="translate(481.776118 0)scale(0.996264)"/>
      <use xlink:href="#CMR17-69" transform="translate(517.577456 0)scale(0.996264)"/>
      <use xlink:href="#CMR17-6f" transform="translate(542.448515 0)scale(0.996264)"/>
      <use xlink:href="#CMR17-6e" transform="translate(588.138992 0)scale(0.996264)"/>
     </g>
    </g>
   </g>
  </g>
 </g>
 <defs>
  <clipPath id="p66ae7b3ec8">
   <rect x="27.856977" y="38.460768" width="357.12" height="266.112"/>
  </clipPath>
 </defs>
</svg>
