<?xml version="1.0" encoding="utf-8" standalone="no"?>
<!DOCTYPE svg PUBLIC "-//W3C//DTD SVG 1.1//EN"
  "http://www.w3.org/Graphics/SVG/1.1/DTD/svg11.dtd">
<svg xmlns:xlink="http://www.w3.org/1999/xlink" width="395.970582pt" height="342.638166pt" viewBox="0 0 395.970582 342.638166" xmlns="http://www.w3.org/2000/svg" version="1.1">
 <metadata>
  <rdf:RDF xmlns:dc="http://purl.org/dc/elements/1.1/" xmlns:cc="http://creativecommons.org/ns#" xmlns:rdf="http://www.w3.org/1999/02/22-rdf-syntax-ns#">
   <cc:Work>
    <dc:type rdf:resource="http://purl.org/dc/dcmitype/StillImage"/>
    <dc:date>2023-06-22T12:09:40.500905</dc:date>
    <dc:format>image/svg+xml</dc:format>
    <dc:creator>
     <cc:Agent>
      <dc:title>Matplotlib v3.5.0, https://matplotlib.org/</dc:title>
     </cc:Agent>
    </dc:creator>
   </cc:Work>
  </rdf:RDF>
 </metadata>
 <defs>
  <style type="text/css">*{stroke-linejoin: round; stroke-linecap: butt}</style>
 </defs>
 <g id="figure_1">
  <g id="patch_1">
   <path d="M 0 342.638166 
L 395.970582 342.638166 
L 395.970582 0 
L 0 0 
z
" style="fill: #ffffff"/>
  </g>
  <g id="axes_1">
   <g id="patch_2">
    <path d="M 31.650582 299.642356 
L 388.770582 299.642356 
L 388.770582 33.530356 
L 31.650582 33.530356 
z
" style="fill: #ffffff"/>
   </g>
   <g id="matplotlib.axis_1">
    <g id="xtick_1">
     <g id="line2d_1">
      <path d="M 47.883309 299.642356 
L 47.883309 33.530356 
" clip-path="url(#p86a8885796)" style="fill: none; stroke: #cccccc; stroke-width: 0.8; stroke-linecap: round"/>
     </g>
     <g id="text_1">
      <!-- 1 -->
      <g style="fill: #262626" transform="translate(44.469065 316.328233)scale(0.14 -0.14)">
       <defs>
        <path id="CMSS17-31" d="M 1818 4288 
L 1696 4288 
C 1350 3940 947 3890 538 3890 
L 538 3520 
C 723 3520 1024 3520 1325 3667 
L 1325 369 
L 570 369 
L 570 0 
L 2573 0 
L 2573 369 
L 1818 369 
L 1818 4288 
z
" transform="scale(0.015625)"/>
       </defs>
       <use xlink:href="#CMSS17-31" transform="scale(0.996264)"/>
      </g>
     </g>
    </g>
    <g id="xtick_2">
     <g id="line2d_2">
      <path d="M 80.348764 299.642356 
L 80.348764 33.530356 
" clip-path="url(#p86a8885796)" style="fill: none; stroke: #cccccc; stroke-width: 0.8; stroke-linecap: round"/>
     </g>
     <g id="text_2">
      <!-- 5 -->
      <g style="fill: #262626" transform="translate(76.93452 316.328233)scale(0.14 -0.14)">
       <defs>
        <path id="CMSS17-35" d="M 934 3752 
L 2502 3752 
L 2502 4160 
L 467 4160 
L 467 1781 
L 896 1781 
C 1011 2046 1248 2240 1555 2240 
C 1843 2240 2163 1989 2163 1266 
C 2163 493 1709 267 1376 267 
C 966 267 589 512 422 851 
L 218 499 
C 512 49 992 -128 1376 -128 
C 2118 -128 2701 497 2701 1253 
C 2701 2030 2182 2629 1562 2629 
C 1338 2629 1120 2553 934 2399 
L 934 3752 
z
" transform="scale(0.015625)"/>
       </defs>
       <use xlink:href="#CMSS17-35" transform="scale(0.996264)"/>
      </g>
     </g>
    </g>
    <g id="xtick_3">
     <g id="line2d_3">
      <path d="M 112.814218 299.642356 
L 112.814218 33.530356 
" clip-path="url(#p86a8885796)" style="fill: none; stroke: #cccccc; stroke-width: 0.8; stroke-linecap: round"/>
     </g>
     <g id="text_3">
      <!-- 10 -->
      <g style="fill: #262626" transform="translate(105.98573 316.328233)scale(0.14 -0.14)">
       <defs>
        <path id="CMSS17-30" d="M 2758 2044 
C 2758 2405 2752 3077 2490 3596 
C 2227 4096 1805 4229 1504 4229 
C 1069 4229 698 3975 506 3570 
C 301 3146 243 2709 243 2044 
C 243 1589 262 1031 493 543 
C 755 5 1197 -128 1498 -128 
C 1894 -128 2278 81 2496 518 
C 2720 974 2758 1474 2758 2044 
z
M 1498 261 
C 1011 261 864 811 819 995 
C 742 1310 730 1614 730 2114 
C 730 2506 730 2948 851 3297 
C 998 3701 1254 3840 1498 3840 
C 1971 3840 2125 3372 2176 3208 
C 2272 2873 2272 2481 2272 2114 
C 2272 1526 2272 261 1498 261 
z
" transform="scale(0.015625)"/>
       </defs>
       <use xlink:href="#CMSS17-31" transform="scale(0.996264)"/>
       <use xlink:href="#CMSS17-30" transform="translate(46.843624 0)scale(0.996264)"/>
      </g>
     </g>
    </g>
    <g id="xtick_4">
     <g id="line2d_4">
      <path d="M 145.279673 299.642356 
L 145.279673 33.530356 
" clip-path="url(#p86a8885796)" style="fill: none; stroke: #cccccc; stroke-width: 0.8; stroke-linecap: round"/>
     </g>
     <g id="text_4">
      <!-- 15 -->
      <g style="fill: #262626" transform="translate(138.451184 316.328233)scale(0.14 -0.14)">
       <use xlink:href="#CMSS17-31" transform="scale(0.996264)"/>
       <use xlink:href="#CMSS17-35" transform="translate(46.843624 0)scale(0.996264)"/>
      </g>
     </g>
    </g>
    <g id="xtick_5">
     <g id="line2d_5">
      <path d="M 177.745128 299.642356 
L 177.745128 33.530356 
" clip-path="url(#p86a8885796)" style="fill: none; stroke: #cccccc; stroke-width: 0.8; stroke-linecap: round"/>
     </g>
     <g id="text_5">
      <!-- 20 -->
      <g style="fill: #262626" transform="translate(170.916639 316.328233)scale(0.14 -0.14)">
       <defs>
        <path id="CMSS17-32" d="M 1651 1357 
C 1830 1541 2099 1764 2285 1987 
C 2464 2204 2701 2511 2701 2957 
C 2701 3657 2227 4288 1421 4288 
C 787 4288 422 3893 250 3274 
L 499 2929 
C 640 3510 838 3880 1338 3880 
C 1888 3880 2195 3433 2195 2942 
C 2195 2355 1747 1901 1408 1563 
C 1030 1187 659 804 301 408 
L 301 0 
L 2701 0 
L 2701 433 
L 1613 433 
C 1536 433 1459 433 1382 433 
L 742 433 
L 742 439 
L 1651 1357 
z
" transform="scale(0.015625)"/>
       </defs>
       <use xlink:href="#CMSS17-32" transform="scale(0.996264)"/>
       <use xlink:href="#CMSS17-30" transform="translate(46.843624 0)scale(0.996264)"/>
      </g>
     </g>
    </g>
    <g id="xtick_6">
     <g id="line2d_6">
      <path d="M 210.210582 299.642356 
L 210.210582 33.530356 
" clip-path="url(#p86a8885796)" style="fill: none; stroke: #cccccc; stroke-width: 0.8; stroke-linecap: round"/>
     </g>
     <g id="text_6">
      <!-- 30 -->
      <g style="fill: #262626" transform="translate(203.382093 316.328233)scale(0.14 -0.14)">
       <defs>
        <path id="CMSS17-33" d="M 1005 2025 
L 1440 2025 
C 2042 2025 2214 1507 2214 1146 
C 2214 653 1933 267 1472 267 
C 1114 267 608 444 320 912 
C 275 691 275 678 250 526 
C 550 88 1037 -128 1485 -128 
C 2214 -128 2752 473 2752 1138 
C 2752 1638 2400 2057 1920 2215 
C 2304 2424 2586 2816 2586 3273 
C 2586 3805 2093 4229 1491 4229 
C 941 4229 512 3892 333 3530 
C 378 3468 493 3284 550 3189 
C 691 3562 1056 3840 1485 3840 
C 1843 3840 2080 3607 2080 3271 
C 2080 2923 1856 2543 1478 2455 
C 1453 2455 1056 2417 1005 2411 
L 1005 2025 
z
" transform="scale(0.015625)"/>
       </defs>
       <use xlink:href="#CMSS17-33" transform="scale(0.996264)"/>
       <use xlink:href="#CMSS17-30" transform="translate(46.843624 0)scale(0.996264)"/>
      </g>
     </g>
    </g>
    <g id="xtick_7">
     <g id="line2d_7">
      <path d="M 242.676037 299.642356 
L 242.676037 33.530356 
" clip-path="url(#p86a8885796)" style="fill: none; stroke: #cccccc; stroke-width: 0.8; stroke-linecap: round"/>
     </g>
     <g id="text_7">
      <!-- 40 -->
      <g style="fill: #262626" transform="translate(235.847548 316.328233)scale(0.14 -0.14)">
       <defs>
        <path id="CMSS17-34" d="M 2253 1088 
L 2835 1088 
L 2835 1477 
L 2253 1477 
L 2253 4192 
L 1690 4192 
L 166 1477 
L 166 1088 
L 1747 1088 
L 1747 0 
L 2253 0 
L 2253 1088 
z
M 659 1477 
C 1030 2127 1766 3439 1766 3885 
L 1766 1477 
L 659 1477 
z
" transform="scale(0.015625)"/>
       </defs>
       <use xlink:href="#CMSS17-34" transform="scale(0.996264)"/>
       <use xlink:href="#CMSS17-30" transform="translate(46.843624 0)scale(0.996264)"/>
      </g>
     </g>
    </g>
    <g id="xtick_8">
     <g id="line2d_8">
      <path d="M 275.141491 299.642356 
L 275.141491 33.530356 
" clip-path="url(#p86a8885796)" style="fill: none; stroke: #cccccc; stroke-width: 0.8; stroke-linecap: round"/>
     </g>
     <g id="text_8">
      <!-- 50 -->
      <g style="fill: #262626" transform="translate(268.313003 316.328233)scale(0.14 -0.14)">
       <use xlink:href="#CMSS17-35" transform="scale(0.996264)"/>
       <use xlink:href="#CMSS17-30" transform="translate(46.843624 0)scale(0.996264)"/>
      </g>
     </g>
    </g>
    <g id="xtick_9">
     <g id="line2d_9">
      <path d="M 307.606946 299.642356 
L 307.606946 33.530356 
" clip-path="url(#p86a8885796)" style="fill: none; stroke: #cccccc; stroke-width: 0.8; stroke-linecap: round"/>
     </g>
     <g id="text_9">
      <!-- 60 -->
      <g style="fill: #262626" transform="translate(300.778457 316.328233)scale(0.14 -0.14)">
       <defs>
        <path id="CMSS17-36" d="M 2496 4101 
C 2227 4210 2035 4229 1856 4229 
C 1024 4229 250 3368 250 2006 
C 250 265 986 -128 1510 -128 
C 1798 -128 2086 -39 2362 280 
C 2643 617 2752 898 2752 1389 
C 2752 2179 2362 2880 1779 2880 
C 1357 2880 992 2657 768 2376 
C 832 3258 1254 3840 1862 3840 
C 2029 3840 2246 3816 2496 3710 
L 2496 4101 
z
M 774 1369 
C 774 1420 774 1452 781 1548 
C 781 2045 1069 2491 1536 2491 
C 1837 2491 1990 2332 2106 2135 
C 2240 1886 2246 1650 2246 1388 
C 2246 1140 2246 891 2099 637 
C 1978 439 1818 267 1510 267 
C 902 267 800 1114 774 1369 
z
" transform="scale(0.015625)"/>
       </defs>
       <use xlink:href="#CMSS17-36" transform="scale(0.996264)"/>
       <use xlink:href="#CMSS17-30" transform="translate(46.843624 0)scale(0.996264)"/>
      </g>
     </g>
    </g>
    <g id="xtick_10">
     <g id="line2d_10">
      <path d="M 340.0724 299.642356 
L 340.0724 33.530356 
" clip-path="url(#p86a8885796)" style="fill: none; stroke: #cccccc; stroke-width: 0.8; stroke-linecap: round"/>
     </g>
     <g id="text_10">
      <!-- 70 -->
      <g style="fill: #262626" transform="translate(333.243912 316.328233)scale(0.14 -0.14)">
       <defs>
        <path id="CMSS17-37" d="M 1389 3776 
C 1466 3776 1542 3776 1619 3776 
L 2355 3776 
C 1440 2711 915 1365 915 -32 
L 1427 -32 
C 1427 1323 1875 2696 2752 3795 
L 2752 4209 
L 250 4209 
L 250 3776 
L 1389 3776 
z
" transform="scale(0.015625)"/>
       </defs>
       <use xlink:href="#CMSS17-37" transform="scale(0.996264)"/>
       <use xlink:href="#CMSS17-30" transform="translate(46.843624 0)scale(0.996264)"/>
      </g>
     </g>
    </g>
    <g id="xtick_11">
     <g id="line2d_11">
      <path d="M 372.537855 299.642356 
L 372.537855 33.530356 
" clip-path="url(#p86a8885796)" style="fill: none; stroke: #cccccc; stroke-width: 0.8; stroke-linecap: round"/>
     </g>
     <g id="text_11">
      <!-- 80 -->
      <g style="fill: #262626" transform="translate(365.709366 316.328233)scale(0.14 -0.14)">
       <defs>
        <path id="CMSS17-38" d="M 1933 2222 
C 2419 2380 2669 2760 2669 3134 
C 2669 3722 2157 4229 1504 4229 
C 826 4229 333 3708 333 3144 
C 333 2780 576 2403 1069 2241 
C 442 1997 250 1512 250 1149 
C 250 446 819 -128 1498 -128 
C 2202 -128 2752 455 2752 1138 
C 2752 1557 2502 2000 1933 2222 
z
M 1504 2432 
C 1075 2432 787 2712 787 3136 
C 787 3566 1075 3840 1504 3840 
C 1901 3840 2214 3591 2214 3136 
C 2214 2687 1907 2432 1504 2432 
z
M 1504 267 
C 1139 267 749 517 749 1156 
C 749 1813 1184 2043 1498 2043 
C 1843 2043 2253 1800 2253 1156 
C 2253 491 1830 267 1504 267 
z
" transform="scale(0.015625)"/>
       </defs>
       <use xlink:href="#CMSS17-38" transform="scale(0.996264)"/>
       <use xlink:href="#CMSS17-30" transform="translate(46.843624 0)scale(0.996264)"/>
      </g>
     </g>
    </g>
    <g id="text_12">
     <!-- Cube Dimensions -->
     <g style="fill: #262626" transform="translate(161.127052 332.726138)scale(0.14 -0.14)">
      <defs>
       <path id="CMSS17-43" d="M 3501 714 
C 3072 427 2874 344 2355 344 
C 1459 344 934 1303 934 2179 
C 934 3112 1472 4032 2381 4032 
C 2790 4032 3059 3918 3386 3715 
L 3475 4217 
C 3168 4370 2778 4440 2387 4440 
C 1158 4440 397 3316 397 2179 
C 397 927 1299 -64 2323 -64 
C 2874 -64 3066 -19 3539 280 
L 3501 714 
z
" transform="scale(0.015625)"/>
       <path id="CMSS17-75" d="M 2618 2739 
L 2131 2739 
L 2131 972 
C 2131 498 1786 306 1421 306 
C 998 306 960 447 960 709 
L 960 2739 
L 474 2739 
L 474 678 
C 474 179 646 -64 1088 -64 
C 1306 -64 1798 -13 2144 306 
L 2144 0 
L 2618 0 
L 2618 2739 
z
" transform="scale(0.015625)"/>
       <path id="CMSS17-62" d="M 954 4416 
L 480 4416 
L 480 -13 
L 966 -13 
L 966 274 
C 1210 38 1504 -64 1766 -64 
C 2381 -64 2880 549 2880 1352 
C 2880 2086 2496 2756 1926 2756 
C 1523 2756 1165 2591 954 2419 
L 954 4416 
z
M 966 2046 
C 1107 2222 1306 2368 1587 2368 
C 1965 2368 2394 2097 2394 1352 
C 2394 558 1882 325 1530 325 
C 1402 325 1267 356 1139 464 
C 966 615 966 709 966 797 
L 966 2046 
z
" transform="scale(0.015625)"/>
       <path id="CMSS17-65" d="M 2502 1377 
C 2502 1590 2490 2003 2285 2345 
C 2061 2713 1696 2816 1421 2816 
C 755 2816 192 2188 192 1375 
C 192 582 774 -64 1510 -64 
C 1798 -64 2150 19 2470 248 
C 2470 274 2458 414 2451 420 
C 2451 433 2432 630 2432 656 
C 2125 407 1773 325 1517 325 
C 1107 325 666 667 646 1377 
L 2502 1377 
z
M 698 1728 
C 781 2084 1062 2421 1421 2421 
C 1517 2421 1965 2421 2080 1728 
L 698 1728 
z
" transform="scale(0.015625)"/>
       <path id="CMSS17-44" d="M 570 4416 
L 570 0 
L 2144 0 
C 3194 0 4000 980 4000 2170 
C 4000 3398 3194 4416 2144 4416 
L 570 4416 
z
M 1094 357 
L 1094 4059 
L 2003 4059 
C 2861 4059 3475 3277 3475 2170 
C 3475 1107 2867 357 2003 357 
L 1094 357 
z
" transform="scale(0.015625)"/>
       <path id="CMSS17-69" d="M 979 4183 
L 442 4183 
L 442 3648 
L 979 3648 
L 979 4183 
z
M 947 2739 
L 474 2739 
L 474 0 
L 947 0 
L 947 2739 
z
" transform="scale(0.015625)"/>
       <path id="CMSS17-6d" d="M 4288 1877 
C 4288 2308 4179 2816 3462 2816 
C 2982 2816 2694 2516 2566 2331 
C 2451 2670 2182 2816 1798 2816 
C 1363 2816 1088 2568 941 2389 
L 941 2758 
L 474 2758 
L 474 0 
L 960 0 
L 960 1559 
C 960 1939 1101 2428 1555 2428 
C 2138 2428 2138 2016 2138 1829 
L 2138 0 
L 2624 0 
L 2624 1559 
C 2624 1939 2765 2428 3219 2428 
C 3802 2428 3802 2016 3802 1829 
L 3802 0 
L 4288 0 
L 4288 1877 
z
" transform="scale(0.015625)"/>
       <path id="CMSS17-6e" d="M 2618 1877 
C 2618 2283 2522 2816 1798 2816 
C 1389 2816 1120 2606 941 2389 
L 941 2758 
L 474 2758 
L 474 0 
L 960 0 
L 960 1559 
C 960 1964 1114 2428 1549 2428 
C 2112 2428 2131 2048 2131 1829 
L 2131 0 
L 2618 0 
L 2618 1877 
z
" transform="scale(0.015625)"/>
       <path id="CMSS17-73" d="M 2061 2627 
C 1683 2807 1389 2807 1197 2807 
C 742 2807 198 2648 198 2003 
C 198 1359 902 1218 1094 1179 
C 1389 1122 1715 1058 1715 740 
C 1715 337 1254 337 1171 337 
C 915 337 563 407 243 638 
L 166 210 
C 531 0 883 -64 1178 -64 
C 1965 -64 2163 416 2163 781 
C 2163 1094 1984 1305 1862 1401 
C 1651 1568 1574 1587 1050 1696 
C 960 1709 646 1779 646 2066 
C 646 2432 1050 2432 1139 2432 
C 1555 2432 1811 2303 1984 2208 
L 2061 2627 
z
" transform="scale(0.015625)"/>
       <path id="CMSS17-6f" d="M 2829 1356 
C 2829 2176 2221 2816 1504 2816 
C 768 2816 173 2157 173 1356 
C 173 544 787 -64 1498 -64 
C 2227 -64 2829 563 2829 1356 
z
M 1504 337 
C 1050 337 659 709 659 1408 
C 659 2151 1114 2427 1498 2427 
C 1914 2427 2342 2126 2342 1408 
C 2342 683 1926 337 1504 337 
z
" transform="scale(0.015625)"/>
      </defs>
      <use xlink:href="#CMSS17-43" transform="scale(0.996264)"/>
      <use xlink:href="#CMSS17-75" transform="translate(59.855772 0)scale(0.996264)"/>
      <use xlink:href="#CMSS17-62" transform="translate(108.060715 0)scale(0.996264)"/>
      <use xlink:href="#CMSS17-65" transform="translate(158.868097 0)scale(0.996264)"/>
      <use xlink:href="#CMSS17-44" transform="translate(231.736031 0)scale(0.996264)"/>
      <use xlink:href="#CMSS17-69" transform="translate(299.278873 0)scale(0.996264)"/>
      <use xlink:href="#CMSS17-6d" transform="translate(321.459596 0)scale(0.996264)"/>
      <use xlink:href="#CMSS17-65" transform="translate(395.688851 0)scale(0.996264)"/>
      <use xlink:href="#CMSS17-6e" transform="translate(437.327673 0)scale(0.996264)"/>
      <use xlink:href="#CMSS17-73" transform="translate(485.532616 0)scale(0.996264)"/>
      <use xlink:href="#CMSS17-69" transform="translate(521.446158 0)scale(0.996264)"/>
      <use xlink:href="#CMSS17-6f" transform="translate(543.626881 0)scale(0.996264)"/>
      <use xlink:href="#CMSS17-6e" transform="translate(590.470504 0)scale(0.996264)"/>
      <use xlink:href="#CMSS17-73" transform="translate(638.675447 0)scale(0.996264)"/>
     </g>
    </g>
   </g>
   <g id="matplotlib.axis_2">
    <g id="ytick_1">
     <g id="line2d_12">
      <path d="M 31.650582 249.079418 
L 388.770582 249.079418 
" clip-path="url(#p86a8885796)" style="fill: none; stroke: #cccccc; stroke-width: 0.8; stroke-linecap: round"/>
     </g>
     <g id="text_13">
      <!-- 0.0 -->
      <g style="fill: #262626" transform="translate(7.2 253.922356)scale(0.14 -0.14)">
       <defs>
        <path id="CMSS17-2e" d="M 1088 510 
L 576 510 
L 576 0 
L 1088 0 
L 1088 510 
z
" transform="scale(0.015625)"/>
       </defs>
       <use xlink:href="#CMSS17-30" transform="scale(0.996264)"/>
       <use xlink:href="#CMSS17-2e" transform="translate(46.843624 0)scale(0.996264)"/>
       <use xlink:href="#CMSS17-30" transform="translate(72.867828 0)scale(0.996264)"/>
      </g>
     </g>
    </g>
    <g id="ytick_2">
     <g id="line2d_13">
      <path d="M 31.650582 179.799415 
L 388.770582 179.799415 
" clip-path="url(#p86a8885796)" style="fill: none; stroke: #cccccc; stroke-width: 0.8; stroke-linecap: round"/>
     </g>
     <g id="text_14">
      <!-- 0.5 -->
      <g style="fill: #262626" transform="translate(7.2 184.642354)scale(0.14 -0.14)">
       <use xlink:href="#CMSS17-30" transform="scale(0.996264)"/>
       <use xlink:href="#CMSS17-2e" transform="translate(46.843624 0)scale(0.996264)"/>
       <use xlink:href="#CMSS17-35" transform="translate(72.867828 0)scale(0.996264)"/>
      </g>
     </g>
    </g>
    <g id="ytick_3">
     <g id="line2d_14">
      <path d="M 31.650582 110.519413 
L 388.770582 110.519413 
" clip-path="url(#p86a8885796)" style="fill: none; stroke: #cccccc; stroke-width: 0.8; stroke-linecap: round"/>
     </g>
     <g id="text_15">
      <!-- 1.0 -->
      <g style="fill: #262626" transform="translate(7.2 115.362351)scale(0.14 -0.14)">
       <use xlink:href="#CMSS17-31" transform="scale(0.996264)"/>
       <use xlink:href="#CMSS17-2e" transform="translate(46.843624 0)scale(0.996264)"/>
       <use xlink:href="#CMSS17-30" transform="translate(72.867828 0)scale(0.996264)"/>
      </g>
     </g>
    </g>
    <g id="ytick_4">
     <g id="line2d_15">
      <path d="M 31.650582 41.23941 
L 388.770582 41.23941 
" clip-path="url(#p86a8885796)" style="fill: none; stroke: #cccccc; stroke-width: 0.8; stroke-linecap: round"/>
     </g>
     <g id="text_16">
      <!-- 1.5 -->
      <g style="fill: #262626" transform="translate(7.2 46.082348)scale(0.14 -0.14)">
       <use xlink:href="#CMSS17-31" transform="scale(0.996264)"/>
       <use xlink:href="#CMSS17-2e" transform="translate(46.843624 0)scale(0.996264)"/>
       <use xlink:href="#CMSS17-35" transform="translate(72.867828 0)scale(0.996264)"/>
      </g>
     </g>
    </g>
   </g>
   <g id="PolyCollection_1">
    <defs>
     <path id="me7095dc429" d="M 47.883309 -136.472233 
L 47.883309 -56.187663 
L 80.348764 -78.999833 
L 112.814218 -164.72334 
L 145.279673 -195.229976 
L 177.745128 -218.872144 
L 210.210582 -256.540611 
L 242.676037 -268.48891 
L 275.141491 -265.649939 
L 307.606946 -276.63806 
L 340.0724 -246.057818 
L 372.537855 -237.106893 
L 372.537855 -246.529014 
L 372.537855 -246.529014 
L 340.0724 -248.66289 
L 307.606946 -284.591451 
L 275.141491 -270.63877 
L 242.676037 -273.3422 
L 210.210582 -257.578497 
L 177.745128 -231.509362 
L 145.279673 -196.956328 
L 112.814218 -166.496561 
L 80.348764 -160.770465 
L 47.883309 -136.472233 
z
" style="stroke: #3388bb; stroke-opacity: 0.2"/>
    </defs>
    <g clip-path="url(#p86a8885796)">
     <use xlink:href="#me7095dc429" x="0" y="342.638166" style="fill: #3388bb; fill-opacity: 0.2; stroke: #3388bb; stroke-opacity: 0.2"/>
    </g>
   </g>
   <g id="PolyCollection_2">
    <defs>
     <path id="mb9688cdb1f" d="M 47.883309 -134.796887 
L 47.883309 -55.09181 
L 80.348764 -104.587829 
L 112.814218 -144.062956 
L 145.279673 -160.18808 
L 177.745128 -181.713513 
L 210.210582 -124.554217 
L 242.676037 -129.182311 
L 275.141491 -132.147287 
L 307.606946 -136.262585 
L 340.0724 -121.921858 
L 372.537855 -115.894619 
L 372.537855 -118.333279 
L 372.537855 -118.333279 
L 340.0724 -123.390841 
L 307.606946 -136.762115 
L 275.141491 -132.563813 
L 242.676037 -129.986388 
L 210.210582 -126.300881 
L 177.745128 -182.76079 
L 145.279673 -165.489422 
L 112.814218 -148.360144 
L 80.348764 -140.724869 
L 47.883309 -134.796887 
z
" style="stroke: #ee6666; stroke-opacity: 0.2"/>
    </defs>
    <g clip-path="url(#p86a8885796)">
     <use xlink:href="#mb9688cdb1f" x="0" y="342.638166" style="fill: #ee6666; fill-opacity: 0.2; stroke: #ee6666; stroke-opacity: 0.2"/>
    </g>
   </g>
   <g id="PolyCollection_3">
    <defs>
     <path id="mb17d33811c" d="M 47.883309 -131.672673 
L 47.883309 -56.961118 
L 80.348764 -126.010165 
L 112.814218 -163.306242 
L 145.279673 -185.577315 
L 177.745128 -226.297645 
L 210.210582 -235.459019 
L 242.676037 -276.819722 
L 275.141491 -258.458772 
L 307.606946 -292.688652 
L 340.0724 -261.88169 
L 372.537855 -242.644446 
L 372.537855 -243.503954 
L 372.537855 -243.503954 
L 340.0724 -263.849432 
L 307.606946 -297.01181 
L 275.141491 -260.842159 
L 242.676037 -281.780465 
L 210.210582 -238.563226 
L 177.745128 -232.727318 
L 145.279673 -190.565746 
L 112.814218 -169.515008 
L 80.348764 -137.593781 
L 47.883309 -131.672673 
z
" style="stroke: #9988dd; stroke-opacity: 0.2"/>
    </defs>
    <g clip-path="url(#p86a8885796)">
     <use xlink:href="#mb17d33811c" x="0" y="342.638166" style="fill: #9988dd; fill-opacity: 0.2; stroke: #9988dd; stroke-opacity: 0.2"/>
    </g>
   </g>
   <g id="line2d_16">
    <path d="M 47.883309 246.308218 
L 80.348764 222.753017 
L 112.814218 177.028215 
L 145.279673 146.545014 
L 177.745128 117.447413 
L 210.210582 85.578612 
L 242.676037 71.722611 
L 275.141491 74.493811 
L 307.606946 62.023411 
L 340.0724 95.277812 
L 372.537855 100.820212 
" clip-path="url(#p86a8885796)" style="fill: none; stroke: #3388bb; stroke-linecap: round"/>
    <defs>
     <path id="mdfc1dc2c2c" d="M -3 3 
L 3 3 
L 3 -3 
L -3 -3 
z
" style="stroke: #3388bb; stroke-linejoin: miter"/>
    </defs>
    <g clip-path="url(#p86a8885796)">
     <use xlink:href="#mdfc1dc2c2c" x="47.883309" y="246.308218" style="fill: #3388bb; stroke: #3388bb; stroke-linejoin: miter"/>
     <use xlink:href="#mdfc1dc2c2c" x="80.348764" y="222.753017" style="fill: #3388bb; stroke: #3388bb; stroke-linejoin: miter"/>
     <use xlink:href="#mdfc1dc2c2c" x="112.814218" y="177.028215" style="fill: #3388bb; stroke: #3388bb; stroke-linejoin: miter"/>
     <use xlink:href="#mdfc1dc2c2c" x="145.279673" y="146.545014" style="fill: #3388bb; stroke: #3388bb; stroke-linejoin: miter"/>
     <use xlink:href="#mdfc1dc2c2c" x="177.745128" y="117.447413" style="fill: #3388bb; stroke: #3388bb; stroke-linejoin: miter"/>
     <use xlink:href="#mdfc1dc2c2c" x="210.210582" y="85.578612" style="fill: #3388bb; stroke: #3388bb; stroke-linejoin: miter"/>
     <use xlink:href="#mdfc1dc2c2c" x="242.676037" y="71.722611" style="fill: #3388bb; stroke: #3388bb; stroke-linejoin: miter"/>
     <use xlink:href="#mdfc1dc2c2c" x="275.141491" y="74.493811" style="fill: #3388bb; stroke: #3388bb; stroke-linejoin: miter"/>
     <use xlink:href="#mdfc1dc2c2c" x="307.606946" y="62.023411" style="fill: #3388bb; stroke: #3388bb; stroke-linejoin: miter"/>
     <use xlink:href="#mdfc1dc2c2c" x="340.0724" y="95.277812" style="fill: #3388bb; stroke: #3388bb; stroke-linejoin: miter"/>
     <use xlink:href="#mdfc1dc2c2c" x="372.537855" y="100.820212" style="fill: #3388bb; stroke: #3388bb; stroke-linejoin: miter"/>
    </g>
   </g>
   <g id="line2d_17">
    <path d="M 47.883309 247.693818 
L 80.348764 219.981817 
L 112.814218 196.426616 
L 145.279673 179.799415 
L 177.745128 160.401015 
L 210.210582 217.210617 
L 242.676037 213.053817 
L 275.141491 210.282616 
L 307.606946 206.125816 
L 340.0724 219.981817 
L 372.537855 225.524217 
" clip-path="url(#p86a8885796)" style="fill: none; stroke: #ee6666; stroke-linecap: round"/>
    <defs>
     <path id="m59e69eec4f" d="M 0 3 
C 0.795609 3 1.55874 2.683901 2.12132 2.12132 
C 2.683901 1.55874 3 0.795609 3 0 
C 3 -0.795609 2.683901 -1.55874 2.12132 -2.12132 
C 1.55874 -2.683901 0.795609 -3 0 -3 
C -0.795609 -3 -1.55874 -2.683901 -2.12132 -2.12132 
C -2.683901 -1.55874 -3 -0.795609 -3 0 
C -3 0.795609 -2.683901 1.55874 -2.12132 2.12132 
C -1.55874 2.683901 -0.795609 3 0 3 
z
" style="stroke: #ee6666"/>
    </defs>
    <g clip-path="url(#p86a8885796)">
     <use xlink:href="#m59e69eec4f" x="47.883309" y="247.693818" style="fill: #ee6666; stroke: #ee6666"/>
     <use xlink:href="#m59e69eec4f" x="80.348764" y="219.981817" style="fill: #ee6666; stroke: #ee6666"/>
     <use xlink:href="#m59e69eec4f" x="112.814218" y="196.426616" style="fill: #ee6666; stroke: #ee6666"/>
     <use xlink:href="#m59e69eec4f" x="145.279673" y="179.799415" style="fill: #ee6666; stroke: #ee6666"/>
     <use xlink:href="#m59e69eec4f" x="177.745128" y="160.401015" style="fill: #ee6666; stroke: #ee6666"/>
     <use xlink:href="#m59e69eec4f" x="210.210582" y="217.210617" style="fill: #ee6666; stroke: #ee6666"/>
     <use xlink:href="#m59e69eec4f" x="242.676037" y="213.053817" style="fill: #ee6666; stroke: #ee6666"/>
     <use xlink:href="#m59e69eec4f" x="275.141491" y="210.282616" style="fill: #ee6666; stroke: #ee6666"/>
     <use xlink:href="#m59e69eec4f" x="307.606946" y="206.125816" style="fill: #ee6666; stroke: #ee6666"/>
     <use xlink:href="#m59e69eec4f" x="340.0724" y="219.981817" style="fill: #ee6666; stroke: #ee6666"/>
     <use xlink:href="#m59e69eec4f" x="372.537855" y="225.524217" style="fill: #ee6666; stroke: #ee6666"/>
    </g>
   </g>
   <g id="line2d_18">
    <path d="M 47.883309 248.321271 
L 80.348764 210.836193 
L 112.814218 176.227541 
L 145.279673 154.566635 
L 177.745128 113.125685 
L 210.210582 105.627044 
L 242.676037 63.338073 
L 275.141491 82.9877 
L 307.606946 47.787936 
L 340.0724 79.772605 
L 372.537855 99.563966 
" clip-path="url(#p86a8885796)" style="fill: none; stroke: #9988dd; stroke-linecap: round"/>
    <defs>
     <path id="m520ab4ec9b" d="M -0 3 
L 3 -3 
L -3 -3 
z
" style="stroke: #9988dd; stroke-linejoin: miter"/>
    </defs>
    <g clip-path="url(#p86a8885796)">
     <use xlink:href="#m520ab4ec9b" x="47.883309" y="248.321271" style="fill: #9988dd; stroke: #9988dd; stroke-linejoin: miter"/>
     <use xlink:href="#m520ab4ec9b" x="80.348764" y="210.836193" style="fill: #9988dd; stroke: #9988dd; stroke-linejoin: miter"/>
     <use xlink:href="#m520ab4ec9b" x="112.814218" y="176.227541" style="fill: #9988dd; stroke: #9988dd; stroke-linejoin: miter"/>
     <use xlink:href="#m520ab4ec9b" x="145.279673" y="154.566635" style="fill: #9988dd; stroke: #9988dd; stroke-linejoin: miter"/>
     <use xlink:href="#m520ab4ec9b" x="177.745128" y="113.125685" style="fill: #9988dd; stroke: #9988dd; stroke-linejoin: miter"/>
     <use xlink:href="#m520ab4ec9b" x="210.210582" y="105.627044" style="fill: #9988dd; stroke: #9988dd; stroke-linejoin: miter"/>
     <use xlink:href="#m520ab4ec9b" x="242.676037" y="63.338073" style="fill: #9988dd; stroke: #9988dd; stroke-linejoin: miter"/>
     <use xlink:href="#m520ab4ec9b" x="275.141491" y="82.9877" style="fill: #9988dd; stroke: #9988dd; stroke-linejoin: miter"/>
     <use xlink:href="#m520ab4ec9b" x="307.606946" y="47.787936" style="fill: #9988dd; stroke: #9988dd; stroke-linejoin: miter"/>
     <use xlink:href="#m520ab4ec9b" x="340.0724" y="79.772605" style="fill: #9988dd; stroke: #9988dd; stroke-linejoin: miter"/>
     <use xlink:href="#m520ab4ec9b" x="372.537855" y="99.563966" style="fill: #9988dd; stroke: #9988dd; stroke-linejoin: miter"/>
    </g>
   </g>
   <g id="patch_3">
    <path d="M 31.650582 299.642356 
L 31.650582 33.530356 
" style="fill: none; stroke: #cccccc; stroke-width: 0.8; stroke-linejoin: miter; stroke-linecap: square"/>
   </g>
   <g id="patch_4">
    <path d="M 388.770582 299.642356 
L 388.770582 33.530356 
" style="fill: none; stroke: #cccccc; stroke-width: 0.8; stroke-linejoin: miter; stroke-linecap: square"/>
   </g>
   <g id="patch_5">
    <path d="M 31.650582 299.642356 
L 388.770582 299.642356 
" style="fill: none; stroke: #cccccc; stroke-width: 0.8; stroke-linejoin: miter; stroke-linecap: square"/>
   </g>
   <g id="patch_6">
    <path d="M 31.650582 33.530356 
L 388.770582 33.530356 
" style="fill: none; stroke: #cccccc; stroke-width: 0.8; stroke-linejoin: miter; stroke-linecap: square"/>
   </g>
   <g id="text_17">
    <!-- Performance Flops/Cycles -->
    <g transform="translate(31.650582 30.043432)scale(0.14 -0.14)">
     <defs>
      <path id="CMSS17-50" d="M 2106 1856 
C 2874 1856 3501 2453 3501 3158 
C 3501 3850 2899 4453 2067 4453 
L 570 4453 
L 570 0 
L 1107 0 
L 1107 1856 
L 2106 1856 
z
M 1926 4096 
C 2669 4096 2995 3627 2995 3157 
C 2995 2720 2694 2226 1926 2226 
L 1094 2226 
L 1094 4096 
L 1926 4096 
z
" transform="scale(0.015625)"/>
      <path id="CMSS17-72" d="M 954 1363 
C 954 1965 1395 2368 1958 2368 
L 1958 2789 
C 1549 2789 1165 2585 934 2253 
L 934 2758 
L 480 2758 
L 480 0 
L 954 0 
L 954 1363 
z
" transform="scale(0.015625)"/>
      <path id="CMSS17-66" d="M 1075 2368 
L 1722 2368 
L 1722 2737 
L 1062 2737 
L 1062 3559 
C 1062 4014 1408 4092 1606 4092 
C 1670 4092 1850 4092 2080 4009 
L 2080 4429 
C 1933 4461 1754 4480 1613 4480 
C 1018 4480 602 3993 602 3359 
L 602 2737 
L 160 2737 
L 160 2368 
L 602 2368 
L 602 0 
L 1075 0 
L 1075 2368 
z
" transform="scale(0.015625)"/>
      <path id="CMSS17-61" d="M 2406 1791 
C 2406 2392 1978 2808 1402 2808 
C 1120 2808 813 2757 461 2553 
L 499 2135 
C 659 2248 934 2432 1395 2432 
C 1722 2432 1920 2180 1920 1782 
L 1920 1536 
C 896 1536 256 1238 256 726 
C 256 461 416 -64 947 -64 
C 1043 -64 1562 -64 1933 217 
L 1933 -19 
L 2406 -19 
L 2406 1791 
z
M 1920 816 
C 1920 701 1920 548 1728 434 
C 1562 325 1350 325 1261 325 
C 941 325 723 511 723 744 
C 723 1211 1722 1211 1920 1211 
L 1920 816 
z
" transform="scale(0.015625)"/>
      <path id="CMSS17-63" d="M 2464 2541 
C 2464 2585 2170 2714 2093 2739 
C 1882 2816 1613 2816 1542 2816 
C 710 2816 211 2093 211 1363 
C 211 595 768 -64 1517 -64 
C 1946 -64 2253 76 2502 242 
L 2464 664 
C 2189 453 1869 337 1523 337 
C 1024 337 698 774 698 1369 
C 698 1831 909 2414 1549 2414 
C 1901 2414 2099 2343 2394 2145 
L 2464 2541 
z
" transform="scale(0.015625)"/>
      <path id="CMSS17-46" d="M 2918 1984 
L 2918 2373 
L 1101 2373 
L 1101 3968 
L 1882 3968 
C 1958 3968 2035 3968 2112 3968 
L 3168 3968 
L 3168 4375 
L 563 4375 
L 563 -32 
L 1101 -32 
L 1101 1984 
L 2918 1984 
z
" transform="scale(0.015625)"/>
      <path id="CMSS17-6c" d="M 947 4416 
L 474 4416 
L 474 0 
L 947 0 
L 947 4416 
z
" transform="scale(0.015625)"/>
      <path id="CMSS17-70" d="M 966 333 
C 1178 129 1466 -5 1773 -5 
C 2368 -5 2880 603 2880 1412 
C 2880 2159 2496 2816 1946 2816 
C 1626 2816 1242 2702 954 2472 
L 954 2765 
L 480 2765 
L 480 -1216 
L 966 -1216 
L 966 333 
z
M 966 2100 
C 1018 2176 1235 2415 1587 2415 
C 2035 2415 2394 1960 2394 1412 
C 2394 787 1958 384 1530 384 
C 1402 384 1267 415 1139 523 
C 966 674 966 768 966 857 
L 966 2100 
z
" transform="scale(0.015625)"/>
      <path id="CMSS17-2f" d="M 2637 4545 
C 2669 4627 2669 4640 2669 4653 
C 2669 4729 2611 4768 2560 4768 
C 2483 4768 2458 4717 2432 4640 
L 365 -1377 
C 333 -1460 333 -1473 333 -1486 
C 333 -1562 390 -1600 442 -1600 
C 518 -1600 544 -1549 570 -1473 
L 2637 4545 
z
" transform="scale(0.015625)"/>
      <path id="CMSS17-79" d="M 2675 2752 
L 2176 2752 
C 1632 1294 1446 702 1434 383 
L 1427 383 
C 1408 696 1126 1460 902 2007 
L 602 2752 
L 83 2752 
L 1216 13 
C 1146 -178 1043 -465 1011 -529 
C 870 -885 774 -885 672 -885 
C 646 -885 442 -885 211 -809 
L 250 -1229 
C 410 -1261 570 -1280 685 -1280 
C 845 -1280 1165 -1280 1459 -497 
L 2675 2752 
z
" transform="scale(0.015625)"/>
     </defs>
     <use xlink:href="#CMSS17-50" transform="scale(0.996264)"/>
     <use xlink:href="#CMSS17-65" transform="translate(57.133132 0)scale(0.996264)"/>
     <use xlink:href="#CMSS17-72" transform="translate(98.771954 0)scale(0.996264)"/>
     <use xlink:href="#CMSS17-66" transform="translate(130.681727 0)scale(0.996264)"/>
     <use xlink:href="#CMSS17-6f" transform="translate(159.308386 0)scale(0.996264)"/>
     <use xlink:href="#CMSS17-72" transform="translate(203.549555 0)scale(0.996264)"/>
     <use xlink:href="#CMSS17-6d" transform="translate(235.459328 0)scale(0.996264)"/>
     <use xlink:href="#CMSS17-61" transform="translate(309.688582 0)scale(0.996264)"/>
     <use xlink:href="#CMSS17-6e" transform="translate(354.610503 0)scale(0.996264)"/>
     <use xlink:href="#CMSS17-63" transform="translate(402.815446 0)scale(0.996264)"/>
     <use xlink:href="#CMSS17-65" transform="translate(444.454268 0)scale(0.996264)"/>
     <use xlink:href="#CMSS17-46" transform="translate(517.322203 0)scale(0.996264)"/>
     <use xlink:href="#CMSS17-6c" transform="translate(570.611762 0)scale(0.996264)"/>
     <use xlink:href="#CMSS17-6f" transform="translate(592.792485 0)scale(0.996264)"/>
     <use xlink:href="#CMSS17-70" transform="translate(639.636109 0)scale(0.996264)"/>
     <use xlink:href="#CMSS17-73" transform="translate(687.841052 0)scale(0.996264)"/>
     <use xlink:href="#CMSS17-2f" transform="translate(723.754594 0)scale(0.996264)"/>
     <use xlink:href="#CMSS17-43" transform="translate(770.598217 0)scale(0.996264)"/>
     <use xlink:href="#CMSS17-79" transform="translate(830.453989 0)scale(0.996264)"/>
     <use xlink:href="#CMSS17-63" transform="translate(873.454131 0)scale(0.996264)"/>
     <use xlink:href="#CMSS17-6c" transform="translate(915.092953 0)scale(0.996264)"/>
     <use xlink:href="#CMSS17-65" transform="translate(937.273676 0)scale(0.996264)"/>
     <use xlink:href="#CMSS17-73" transform="translate(978.912498 0)scale(0.996264)"/>
    </g>
   </g>
   <g id="text_18">
    <!-- \textbf{Performance on Cubes With Different Sizes} -->
    <g style="fill: #262626" transform="translate(31.650582 16.885876)scale(0.14 -0.14)">
     <defs>
      <path id="CMSSBX10-50" d="M 1523 1728 
L 2496 1728 
C 3501 1728 4102 2155 4102 3085 
C 4102 4060 3475 4480 2490 4480 
L 890 4480 
C 659 4480 582 4409 582 4170 
L 582 298 
C 582 66 653 -12 890 -12 
L 1216 -12 
C 1459 -12 1523 72 1523 299 
L 1523 1728 
z
M 2291 3924 
C 3130 3924 3213 3537 3213 3085 
C 3213 2652 3142 2239 2285 2239 
L 1504 2239 
L 1504 3924 
L 2291 3924 
z
" transform="scale(0.015625)"/>
      <path id="CMSSBX10-65" d="M 2758 1385 
C 2906 1385 3066 1385 3066 1678 
C 3066 2514 2682 3072 1728 3072 
C 704 3072 198 2491 198 1510 
C 198 452 806 -64 1811 -64 
C 2054 -64 2419 -32 2842 182 
C 2982 253 3027 272 3027 350 
C 3027 395 3008 582 3002 633 
C 2976 833 2970 839 2912 839 
C 2886 839 2874 839 2803 775 
C 2426 447 2042 402 1837 402 
C 1114 402 1037 974 1018 1385 
L 2758 1385 
z
M 1024 1728 
C 1043 2122 1171 2606 1728 2606 
C 2240 2606 2336 2231 2355 1728 
L 1024 1728 
z
" transform="scale(0.015625)"/>
      <path id="CMSSBX10-72" d="M 1242 1496 
C 1242 2115 1747 2368 2150 2368 
C 2266 2368 2278 2368 2278 2555 
L 2278 2860 
C 2278 2989 2278 3034 2163 3034 
C 1984 3034 1517 2970 1216 2271 
L 1210 2271 
L 1210 2690 
C 1210 2897 1165 3001 902 3001 
L 698 3001 
C 467 3001 390 2930 390 2690 
L 390 310 
C 390 78 461 0 698 0 
L 934 0 
C 1178 0 1242 84 1242 312 
L 1242 1496 
z
" transform="scale(0.015625)"/>
      <path id="CMSSBX10-66" d="M 1402 2496 
L 1709 2496 
C 1786 2496 2016 2496 2016 2729 
C 2016 2962 1786 2962 1709 2962 
L 1382 2962 
L 1382 3668 
C 1382 3837 1382 4096 1798 4096 
C 2003 4096 2131 4038 2259 3915 
C 2304 3863 2323 3850 2355 3850 
C 2438 3850 2438 3915 2438 4018 
L 2438 4316 
C 2438 4471 2432 4477 2214 4523 
C 2029 4561 1894 4561 1798 4561 
C 1318 4561 550 4452 550 3480 
L 550 2962 
C 416 2962 192 2962 192 2729 
C 192 2496 410 2496 550 2496 
L 550 310 
C 550 78 621 0 858 0 
L 1094 0 
C 1338 0 1402 84 1402 310 
L 1402 2496 
z
" transform="scale(0.015625)"/>
      <path id="CMSSBX10-6f" d="M 3315 1459 
C 3315 2517 2803 3072 1760 3072 
C 691 3072 198 2497 198 1459 
C 198 407 749 -64 1754 -64 
C 2758 -64 3315 401 3315 1459 
z
M 1760 440 
C 1069 440 1069 1020 1069 1536 
C 1069 2033 1069 2606 1754 2606 
C 2445 2606 2445 2039 2445 1536 
C 2445 1027 2445 440 1760 440 
z
" transform="scale(0.015625)"/>
      <path id="CMSSBX10-6d" d="M 5158 2096 
C 5158 2761 4877 3025 4224 3025 
C 3770 3025 3418 2812 3187 2386 
C 3085 3012 2541 3012 2272 3012 
C 2150 3012 1882 3012 1594 2803 
C 1395 2658 1267 2455 1222 2360 
L 1216 2360 
L 1216 2687 
C 1216 2896 1171 3001 909 3001 
L 691 3001 
C 461 3001 384 2930 384 2690 
L 384 310 
C 384 78 454 0 691 0 
L 947 0 
C 1190 0 1254 84 1254 309 
L 1254 1735 
C 1254 2315 1645 2560 1958 2560 
C 2266 2560 2336 2424 2336 2082 
L 2336 309 
C 2336 78 2406 0 2643 0 
L 2899 0 
C 3142 0 3206 84 3206 309 
L 3206 1735 
C 3206 2315 3597 2560 3910 2560 
C 4218 2560 4288 2424 4288 2082 
L 4288 309 
C 4288 78 4358 0 4595 0 
L 4851 0 
C 5094 0 5158 84 5158 309 
L 5158 2096 
z
" transform="scale(0.015625)"/>
      <path id="CMSSBX10-61" d="M 2970 2050 
C 2970 3072 1997 3072 1677 3072 
C 1376 3072 1056 3046 627 2868 
C 493 2811 461 2792 461 2722 
C 461 2677 499 2300 506 2248 
C 512 2209 544 2177 589 2177 
C 621 2177 640 2196 659 2216 
C 934 2508 1254 2651 1651 2651 
C 1997 2651 2099 2435 2099 2049 
L 2099 1820 
C 1875 1820 198 1820 198 868 
C 198 415 557 -64 1120 -64 
C 1338 -64 1818 1 2118 447 
L 2118 317 
C 2118 110 2163 7 2426 7 
L 2662 7 
C 2906 7 2970 91 2970 317 
L 2970 2050 
z
M 2099 988 
C 2099 402 1491 402 1472 402 
C 1203 402 1030 639 1030 889 
C 1030 1536 1920 1536 2099 1536 
L 2099 988 
z
" transform="scale(0.015625)"/>
      <path id="CMSSBX10-6e" d="M 3200 2096 
C 3200 2761 2918 3025 2266 3025 
C 1594 3025 1306 2535 1222 2360 
L 1216 2360 
L 1216 2687 
C 1216 2896 1171 3001 909 3001 
L 691 3001 
C 461 3001 384 2930 384 2690 
L 384 310 
C 384 78 454 0 691 0 
L 947 0 
C 1190 0 1254 84 1254 309 
L 1254 1735 
C 1254 2295 1626 2560 1958 2560 
C 2266 2560 2330 2411 2330 2082 
L 2330 309 
C 2330 103 2374 0 2637 0 
L 2893 0 
C 3136 0 3200 84 3200 309 
L 3200 2096 
z
" transform="scale(0.015625)"/>
      <path id="CMSSBX10-63" d="M 2925 330 
C 2925 402 2899 698 2886 782 
C 2886 801 2874 866 2810 866 
C 2784 866 2771 866 2707 801 
C 2598 704 2298 440 1773 440 
C 1107 440 1107 1092 1107 1503 
C 1107 2026 1139 2568 1792 2568 
C 2208 2568 2381 2464 2611 2271 
C 2688 2200 2701 2200 2726 2200 
C 2790 2200 2803 2258 2810 2284 
C 2822 2336 2886 2697 2886 2729 
C 2886 2787 2842 2813 2733 2865 
C 2426 3007 2234 3072 1786 3072 
C 832 3072 237 2620 237 1491 
C 237 420 787 -64 1754 -64 
C 1926 -64 2310 -64 2739 159 
C 2918 258 2925 265 2925 330 
z
" transform="scale(0.015625)"/>
      <path id="CMSSBX10-43" d="M 4096 925 
C 4096 977 4051 1002 4026 1002 
C 3872 1002 3686 583 2784 583 
C 1658 583 1338 1280 1338 2247 
C 1338 3207 1683 3904 2733 3904 
C 3302 3904 3603 3678 3776 3536 
C 3814 3504 3834 3478 3878 3478 
C 3904 3478 3936 3510 3942 3536 
L 4070 4253 
C 4077 4279 4070 4305 4019 4324 
C 3642 4466 3251 4557 2752 4557 
C 1190 4557 390 3789 390 2253 
C 390 672 1203 -64 2758 -64 
C 3302 -64 3642 14 4109 305 
C 4160 337 4147 383 4147 383 
L 4096 925 
z
" transform="scale(0.015625)"/>
      <path id="CMSSBX10-75" d="M 3200 2652 
C 3200 2859 3155 2962 2893 2962 
L 2637 2962 
C 2394 2962 2330 2878 2330 2653 
L 2330 1124 
C 2330 698 2106 330 1651 330 
C 1293 330 1254 421 1254 763 
L 1254 2653 
C 1254 2859 1210 2962 947 2962 
L 691 2962 
C 461 2962 384 2891 384 2653 
L 384 820 
C 384 130 755 -64 1421 -64 
C 1594 -64 2048 -64 2349 485 
L 2349 314 
C 2349 104 2394 0 2656 0 
L 2893 0 
C 3136 0 3200 84 3200 310 
L 3200 2652 
z
" transform="scale(0.015625)"/>
      <path id="CMSSBX10-62" d="M 1242 4170 
C 1242 4377 1197 4480 934 4480 
L 698 4480 
C 467 4480 390 4409 390 4170 
L 390 302 
C 390 70 461 -8 698 -8 
L 954 -8 
C 1062 -8 1254 -8 1261 243 
C 1555 -82 1882 -82 1984 -82 
C 3347 -82 3347 1161 3347 1485 
C 3347 1795 3347 3025 2144 3025 
C 1619 3025 1299 2728 1242 2663 
L 1242 4170 
z
M 1261 2333 
C 1344 2411 1536 2560 1830 2560 
C 2477 2560 2477 1964 2477 1477 
C 2477 999 2477 384 1760 384 
C 1491 384 1331 546 1261 637 
L 1261 2333 
z
" transform="scale(0.015625)"/>
      <path id="CMSSBX10-73" d="M 2534 902 
C 2534 1267 2342 1496 2227 1600 
C 1971 1836 1747 1875 1478 1927 
C 1126 1992 870 2045 870 2299 
C 870 2566 1082 2619 1331 2619 
C 1760 2619 1990 2456 2157 2313 
C 2221 2248 2234 2248 2259 2248 
C 2323 2248 2336 2306 2342 2332 
C 2355 2384 2419 2747 2419 2779 
C 2419 2884 2080 2975 2010 3000 
C 1754 3072 1549 3072 1382 3072 
C 1094 3072 237 3072 237 2145 
C 237 1827 378 1633 550 1477 
C 774 1270 1024 1225 1389 1154 
C 1574 1121 1901 1062 1901 778 
C 1901 473 1651 427 1402 427 
C 1120 427 762 512 461 877 
C 429 909 410 928 371 928 
C 307 928 294 871 288 832 
C 275 743 198 378 198 313 
C 198 198 672 51 678 45 
C 1030 -64 1293 -64 1402 -64 
C 1728 -64 2534 -64 2534 902 
z
" transform="scale(0.015625)"/>
      <path id="CMSSBX10-57" d="M 6464 4171 
C 6490 4260 6490 4286 6490 4293 
C 6490 4480 6317 4480 6227 4480 
L 6093 4480 
C 5965 4480 5786 4480 5709 4196 
L 5030 1653 
C 4941 1323 4883 1110 4826 826 
L 4819 826 
C 4787 1000 4787 1013 4634 1582 
L 3942 4196 
C 3872 4448 3744 4480 3558 4480 
L 3136 4480 
C 3002 4480 2822 4480 2746 4196 
L 2182 2078 
L 2022 1439 
C 1952 1135 1901 929 1888 826 
L 1882 826 
C 1830 1161 1677 1730 1568 2137 
L 1018 4202 
C 941 4480 755 4480 634 4480 
L 416 4480 
C 326 4480 154 4480 154 4293 
C 154 4286 154 4260 179 4170 
L 1229 271 
C 1299 0 1478 0 1613 0 
L 2035 0 
C 2170 0 2349 0 2426 296 
L 3098 2821 
C 3194 3169 3238 3351 3302 3660 
L 3309 3660 
C 3386 3286 3424 3124 3539 2705 
L 4192 271 
C 4262 0 4442 0 4570 0 
L 5030 0 
C 5165 0 5344 0 5414 272 
L 6464 4171 
z
" transform="scale(0.015625)"/>
      <path id="CMSSBX10-69" d="M 653 4480 
C 448 4480 346 4441 346 4182 
L 346 3885 
C 346 3678 410 3594 646 3594 
L 979 3594 
C 1286 3594 1286 3730 1286 4034 
C 1286 4344 1286 4480 979 4480 
L 653 4480 
z
M 1242 2634 
C 1242 2841 1197 2944 934 2944 
L 698 2944 
C 467 2944 390 2873 390 2634 
L 390 292 
C 390 60 461 -18 698 -18 
L 934 -18 
C 1178 -18 1242 66 1242 292 
L 1242 2634 
z
" transform="scale(0.015625)"/>
      <path id="CMSSBX10-74" d="M 1395 2496 
L 1965 2496 
C 2042 2496 2272 2496 2272 2729 
C 2272 2962 2042 2962 1965 2962 
L 1395 2962 
L 1395 3498 
C 1395 3705 1350 3808 1088 3808 
L 890 3808 
C 659 3808 582 3737 582 3498 
L 582 2962 
L 435 2962 
C 365 2962 128 2962 128 2729 
C 128 2496 358 2496 435 2496 
L 563 2496 
L 563 864 
C 563 213 794 -64 1235 -64 
C 1293 -64 1574 -64 1907 39 
C 2016 72 2387 188 2387 311 
C 2387 330 2374 376 2336 510 
C 2304 639 2291 678 2234 678 
C 2202 678 2195 671 2157 632 
C 2086 582 1914 440 1645 440 
C 1491 440 1395 550 1395 975 
L 1395 2496 
z
" transform="scale(0.015625)"/>
      <path id="CMSSBX10-68" d="M 3200 2094 
C 3200 2760 2918 3025 2266 3025 
C 1626 3025 1331 2579 1242 2398 
L 1235 2398 
L 1235 4170 
C 1235 4377 1190 4480 928 4480 
L 691 4480 
C 461 4480 384 4409 384 4170 
L 384 302 
C 384 70 454 -8 691 -8 
L 947 -8 
C 1190 -8 1254 76 1254 302 
L 1254 1732 
C 1254 2294 1626 2560 1958 2560 
C 2266 2560 2330 2411 2330 2081 
L 2330 302 
C 2330 95 2374 -8 2637 -8 
L 2893 -8 
C 3136 -8 3200 76 3200 302 
L 3200 2094 
z
" transform="scale(0.015625)"/>
      <path id="CMSSBX10-44" d="M 890 4480 
C 659 4480 582 4409 582 4171 
L 582 309 
C 582 78 653 0 890 0 
L 2579 0 
C 4141 0 4685 942 4685 2208 
C 4685 2718 4602 3344 4243 3802 
C 3763 4403 2995 4480 2579 4480 
L 890 4480 
z
M 1504 556 
L 1504 3924 
L 2323 3924 
C 3706 3924 3763 2930 3763 2208 
C 3763 1479 3693 556 2330 556 
L 1504 556 
z
" transform="scale(0.015625)"/>
      <path id="CMSSBX10-b" d="M 1402 2496 
L 1715 2496 
C 1792 2496 2022 2496 2022 2729 
C 2022 2962 1792 2962 1715 2962 
L 1382 2962 
L 1382 3668 
C 1382 3837 1382 4096 1805 4096 
C 2010 4096 2138 4038 2266 3915 
C 2310 3863 2330 3850 2362 3850 
C 2445 3850 2445 3915 2445 4018 
L 2445 4316 
C 2445 4471 2438 4477 2221 4523 
C 2035 4561 1901 4561 1805 4561 
C 1261 4561 550 4413 550 3480 
L 550 2962 
C 416 2962 192 2962 192 2729 
C 192 2496 410 2496 550 2496 
L 550 310 
C 550 78 621 0 858 0 
L 1094 0 
C 1338 0 1402 84 1402 310 
L 1402 2496 
z
M 3354 2496 
L 3667 2496 
C 3744 2496 3974 2496 3974 2729 
C 3974 2962 3744 2962 3667 2962 
L 3334 2962 
L 3334 3668 
C 3334 3837 3334 4096 3757 4096 
C 3962 4096 4090 4038 4218 3915 
C 4262 3863 4282 3850 4314 3850 
C 4397 3850 4397 3915 4397 4018 
L 4397 4316 
C 4397 4471 4390 4477 4173 4523 
C 3987 4561 3853 4561 3757 4561 
C 3213 4561 2502 4413 2502 3481 
L 2502 310 
C 2502 103 2547 0 2810 0 
L 3046 0 
C 3290 0 3354 84 3354 310 
L 3354 2496 
z
" transform="scale(0.015625)"/>
      <path id="CMSSBX10-53" d="M 1728 2867 
C 1587 2899 1190 3049 1190 3418 
C 1190 3968 1734 3968 1952 3968 
C 2310 3968 2630 3884 2944 3574 
C 3046 3477 3053 3471 3078 3471 
C 3117 3471 3149 3490 3168 3587 
L 3264 4152 
C 3277 4203 3277 4216 3277 4236 
C 3277 4288 3270 4295 3110 4380 
C 2656 4608 2278 4641 1952 4641 
C 1382 4641 390 4505 390 3290 
C 390 2829 627 2531 749 2401 
C 1075 2063 1376 1998 1875 1882 
C 2234 1798 2374 1765 2515 1635 
C 2579 1571 2714 1434 2714 1187 
C 2714 577 2163 577 1952 577 
C 1414 577 947 795 627 1083 
C 550 1159 538 1159 512 1159 
C 474 1159 442 1140 422 1042 
L 326 476 
C 314 424 314 411 314 392 
C 314 255 979 21 1011 8 
C 1440 -128 1786 -128 1952 -128 
C 2912 -128 3514 305 3514 1308 
C 3514 2033 2982 2576 2342 2725 
L 1728 2867 
z
" transform="scale(0.015625)"/>
      <path id="CMSSBX10-7a" d="M 2726 2483 
C 2790 2568 2803 2600 2803 2703 
C 2803 2975 2605 2975 2496 2975 
L 602 2975 
C 518 2975 294 2975 294 2732 
C 294 2496 499 2496 672 2496 
C 877 2496 1395 2496 1600 2496 
L 1837 2496 
L 275 493 
C 211 407 198 375 198 272 
C 198 0 397 0 506 0 
L 2515 0 
C 2598 0 2822 0 2822 236 
C 2822 479 2624 479 2438 479 
C 2118 479 1779 479 1459 479 
L 1165 479 
L 2726 2483 
z
" transform="scale(0.015625)"/>
     </defs>
     <use xlink:href="#CMSSBX10-50" transform="scale(0.996264)"/>
     <use xlink:href="#CMSSBX10-65" transform="translate(66.971452 0)scale(0.996264)"/>
     <use xlink:href="#CMSSBX10-72" transform="translate(117.891905 0)scale(0.996264)"/>
     <use xlink:href="#CMSSBX10-66" transform="translate(154.975315 0)scale(0.996264)"/>
     <use xlink:href="#CMSSBX10-6f" transform="translate(188.461041 0)scale(0.996264)"/>
     <use xlink:href="#CMSSBX10-72" transform="translate(240.211709 0)scale(0.996264)"/>
     <use xlink:href="#CMSSBX10-6d" transform="translate(277.295119 0)scale(0.996264)"/>
     <use xlink:href="#CMSSBX10-61" transform="translate(363.638477 0)scale(0.996264)"/>
     <use xlink:href="#CMSSBX10-6e" transform="translate(415.942672 0)scale(0.996264)"/>
     <use xlink:href="#CMSSBX10-63" transform="translate(471.84446 0)scale(0.996264)"/>
     <use xlink:href="#CMSSBX10-65" transform="translate(520.55097 0)scale(0.996264)"/>
     <use xlink:href="#CMSSBX10-6f" transform="translate(608.001306 0)scale(0.996264)"/>
     <use xlink:href="#CMSSBX10-6e" transform="translate(662.796131 0)scale(0.996264)"/>
     <use xlink:href="#CMSSBX10-43" transform="translate(755.227802 0)scale(0.996264)"/>
     <use xlink:href="#CMSSBX10-75" transform="translate(825.243411 0)scale(0.996264)"/>
     <use xlink:href="#CMSSBX10-62" transform="translate(881.145199 0)scale(0.996264)"/>
     <use xlink:href="#CMSSBX10-65" transform="translate(940.091144 0)scale(0.996264)"/>
     <use xlink:href="#CMSSBX10-73" transform="translate(991.011597 0)scale(0.996264)"/>
     <use xlink:href="#CMSSBX10-57" transform="translate(1069.550845 0)scale(0.996264)"/>
     <use xlink:href="#CMSSBX10-69" transform="translate(1173.05218 0)scale(0.996264)"/>
     <use xlink:href="#CMSSBX10-74" transform="translate(1198.512399 0)scale(0.996264)"/>
     <use xlink:href="#CMSSBX10-68" transform="translate(1238.778303 0)scale(0.996264)"/>
     <use xlink:href="#CMSSBX10-44" transform="translate(1331.209974 0)scale(0.996264)"/>
     <use xlink:href="#CMSSBX10-69" transform="translate(1410.358054 0)scale(0.996264)"/>
     <use xlink:href="#CMSSBX10-b" transform="translate(1435.818272 0)scale(0.996264)"/>
     <use xlink:href="#CMSSBX10-65" transform="translate(1499.745568 0)scale(0.996264)"/>
     <use xlink:href="#CMSSBX10-72" transform="translate(1550.66602 0)scale(0.996264)"/>
     <use xlink:href="#CMSSBX10-65" transform="translate(1587.749431 0)scale(0.996264)"/>
     <use xlink:href="#CMSSBX10-6e" transform="translate(1638.669884 0)scale(0.996264)"/>
     <use xlink:href="#CMSSBX10-74" transform="translate(1694.571672 0)scale(0.996264)"/>
     <use xlink:href="#CMSSBX10-53" transform="translate(1771.367458 0)scale(0.996264)"/>
     <use xlink:href="#CMSSBX10-69" transform="translate(1832.250597 0)scale(0.996264)"/>
     <use xlink:href="#CMSSBX10-7a" transform="translate(1857.710815 0)scale(0.996264)"/>
     <use xlink:href="#CMSSBX10-65" transform="translate(1905.172011 0)scale(0.996264)"/>
     <use xlink:href="#CMSSBX10-73" transform="translate(1956.092464 0)scale(0.996264)"/>
    </g>
   </g>
   <g id="legend_1">
    <g id="patch_7">
     <path d="M 43.450582 105.266442 
L 137.725573 105.266442 
Q 140.525573 105.266442 140.525573 102.466442 
L 140.525573 45.330356 
Q 140.525573 42.530356 137.725573 42.530356 
L 43.450582 42.530356 
Q 40.650582 42.530356 40.650582 45.330356 
L 40.650582 102.466442 
Q 40.650582 105.266442 43.450582 105.266442 
z
" style="fill: #4c4c4c; opacity: 0.5; stroke: #4c4c4c; stroke-linejoin: miter"/>
    </g>
    <g id="patch_8">
     <path d="M 41.450582 103.266442 
L 135.725573 103.266442 
Q 138.525573 103.266442 138.525573 100.466442 
L 138.525573 43.330356 
Q 138.525573 40.530356 135.725573 40.530356 
L 41.450582 40.530356 
Q 38.650582 40.530356 38.650582 43.330356 
L 38.650582 100.466442 
Q 38.650582 103.266442 41.450582 103.266442 
z
" style="fill: #ffffff; stroke: #cccccc; stroke-linejoin: miter"/>
    </g>
    <g id="line2d_19">
     <path d="M 44.250582 51.030356 
L 58.250582 51.030356 
L 72.250582 51.030356 
" style="fill: none; stroke: #3388bb; stroke-linecap: round"/>
     <g>
      <use xlink:href="#mdfc1dc2c2c" x="58.250582" y="51.030356" style="fill: #3388bb; stroke: #3388bb; stroke-linejoin: miter"/>
     </g>
    </g>
    <g id="text_19">
     <!-- PolyVest -->
     <g style="fill: #262626" transform="translate(83.450582 55.930356)scale(0.14 -0.14)">
      <defs>
       <path id="CMSS17-56" d="M 3910 4416 
L 3411 4416 
L 2304 1362 
C 2272 1273 2074 688 2035 484 
L 2029 484 
C 1978 726 1773 1292 1664 1604 
L 922 3672 
L 646 4416 
L 83 4416 
L 1715 0 
L 2278 0 
L 3910 4416 
z
" transform="scale(0.015625)"/>
       <path id="CMSS17-74" d="M 1069 2368 
L 1901 2368 
L 1901 2737 
L 1069 2737 
L 1069 3520 
L 614 3520 
L 614 2737 
L 109 2737 
L 109 2368 
L 602 2368 
L 602 749 
C 602 384 685 -64 1107 -64 
C 1427 -64 1722 25 2003 172 
L 1901 548 
C 1747 414 1562 337 1363 337 
C 1082 337 1069 696 1069 856 
L 1069 2368 
z
" transform="scale(0.015625)"/>
      </defs>
      <use xlink:href="#CMSS17-50" transform="scale(0.996264)"/>
      <use xlink:href="#CMSS17-6f" transform="translate(57.133132 0)scale(0.996264)"/>
      <use xlink:href="#CMSS17-6c" transform="translate(103.976756 0)scale(0.996264)"/>
      <use xlink:href="#CMSS17-79" transform="translate(126.157479 0)scale(0.996264)"/>
      <use xlink:href="#CMSS17-56" transform="translate(169.157621 0)scale(0.996264)"/>
      <use xlink:href="#CMSS17-65" transform="translate(228.773022 0)scale(0.996264)"/>
      <use xlink:href="#CMSS17-73" transform="translate(270.411844 0)scale(0.996264)"/>
      <use xlink:href="#CMSS17-74" transform="translate(306.325386 0)scale(0.996264)"/>
     </g>
    </g>
    <g id="line2d_20">
     <path d="M 44.250582 70.542385 
L 58.250582 70.542385 
L 72.250582 70.542385 
" style="fill: none; stroke: #ee6666; stroke-linecap: round"/>
     <g>
      <use xlink:href="#m59e69eec4f" x="58.250582" y="70.542385" style="fill: #ee6666; stroke: #ee6666"/>
     </g>
    </g>
    <g id="text_20">
     <!-- Baseline -->
     <g style="fill: #262626" transform="translate(83.450582 75.442385)scale(0.14 -0.14)">
      <defs>
       <path id="CMSS17-42" d="M 570 4416 
L 570 0 
L 2163 0 
C 3034 0 3667 574 3667 1200 
C 3667 1685 3251 2176 2502 2317 
C 3334 2558 3501 3040 3501 3313 
C 3501 3883 2874 4416 1997 4416 
L 570 4416 
z
M 1088 2496 
L 1088 4059 
L 1824 4059 
C 2483 4059 3002 3724 3002 3306 
C 3002 2926 2592 2496 1766 2496 
L 1088 2496 
z
M 1088 357 
L 1088 2107 
L 1939 2107 
C 2630 2107 3162 1679 3162 1206 
C 3162 772 2694 357 1984 357 
L 1088 357 
z
" transform="scale(0.015625)"/>
      </defs>
      <use xlink:href="#CMSS17-42" transform="scale(0.996264)"/>
      <use xlink:href="#CMSS17-61" transform="translate(62.33804 0)scale(0.996264)"/>
      <use xlink:href="#CMSS17-73" transform="translate(107.259961 0)scale(0.996264)"/>
      <use xlink:href="#CMSS17-65" transform="translate(143.173503 0)scale(0.996264)"/>
      <use xlink:href="#CMSS17-6c" transform="translate(184.812325 0)scale(0.996264)"/>
      <use xlink:href="#CMSS17-69" transform="translate(206.993048 0)scale(0.996264)"/>
      <use xlink:href="#CMSS17-6e" transform="translate(229.173771 0)scale(0.996264)"/>
      <use xlink:href="#CMSS17-65" transform="translate(277.378714 0)scale(0.996264)"/>
     </g>
    </g>
    <g id="line2d_21">
     <path d="M 44.250582 90.054413 
L 58.250582 90.054413 
L 72.250582 90.054413 
" style="fill: none; stroke: #9988dd; stroke-linecap: round"/>
     <g>
      <use xlink:href="#m520ab4ec9b" x="58.250582" y="90.054413" style="fill: #9988dd; stroke: #9988dd; stroke-linejoin: miter"/>
     </g>
    </g>
    <g id="text_21">
     <!-- Opt-I -->
     <g style="fill: #262626" transform="translate(83.450582 94.954413)scale(0.14 -0.14)">
      <defs>
       <path id="CMSS17-4f" d="M 4096 2178 
C 4096 3503 3219 4497 2214 4497 
C 1210 4497 333 3497 333 2178 
C 333 847 1222 -128 2214 -128 
C 3206 -128 4096 847 4096 2178 
z
M 2214 273 
C 1510 273 870 1057 870 2261 
C 870 3433 1549 4096 2214 4096 
C 2880 4096 3558 3433 3558 2261 
C 3558 1051 2912 273 2214 273 
z
" transform="scale(0.015625)"/>
       <path id="CMSS17-2d" d="M 1664 1216 
L 1664 1585 
L 64 1585 
L 64 1216 
L 1664 1216 
z
" transform="scale(0.015625)"/>
       <path id="CMSS17-49" d="M 1094 4416 
L 557 4416 
L 557 0 
L 1094 0 
L 1094 4416 
z
" transform="scale(0.015625)"/>
      </defs>
      <use xlink:href="#CMSS17-4f" transform="scale(0.996264)"/>
      <use xlink:href="#CMSS17-70" transform="translate(69.024255 0)scale(0.996264)"/>
      <use xlink:href="#CMSS17-74" transform="translate(117.229198 0)scale(0.996264)"/>
      <use xlink:href="#CMSS17-2d" transform="translate(151.060765 0)scale(0.996264)"/>
      <use xlink:href="#CMSS17-49" transform="translate(182.289878 0)scale(0.996264)"/>
     </g>
    </g>
   </g>
  </g>
 </g>
 <defs>
  <clipPath id="p86a8885796">
   <rect x="31.650582" y="33.530356" width="357.12" height="266.112"/>
  </clipPath>
 </defs>
</svg>
